<?xml version="1.0" standalone="no"?>
<!DOCTYPE svg PUBLIC "-//W3C//DTD SVG 20010904//EN"
 "http://www.w3.org/TR/2001/REC-SVG-20010904/DTD/svg10.dtd">
<svg version="1.0" xmlns="http://www.w3.org/2000/svg"
 width="249.000000pt" height="249.000000pt" viewBox="0 0 249.000000 249.000000"
 preserveAspectRatio="xMidYMid meet">
<metadata>
Created by potrace 1.14, written by Peter Selinger 2001-2017
</metadata>
<g transform="translate(0.000000,249.000000) scale(0.100000,-0.100000)"
fill="#000000" stroke="none">
<path d="M1249 2356 c-2 -2 -24 -6 -49 -9 -293 -38 -562 -208 -746 -472 -87
-124 -165 -325 -177 -456 -6 -69 -13 -81 -78 -144 -156 -151 -222 -377 -178
-606 45 -235 244 -442 489 -508 138 -38 250 -33 394 18 l82 28 60 -18 c123
-39 203 -51 336 -50 474 4 900 309 1041 746 15 44 29 95 32 114 3 19 8 37 10
41 16 26 24 276 11 365 -52 366 -290 691 -621 849 -67 33 -180 71 -234 81 -14
2 -48 9 -76 14 -46 9 -288 14 -296 7z m298 -293 c277 -62 513 -270 610 -537
26 -72 49 -228 47 -311 -12 -352 -270 -673 -614 -765 -83 -22 -245 -34 -317
-23 -31 5 -32 6 -17 29 9 12 30 56 48 96 l31 73 67 2 c370 10 648 346 594 718
-34 237 -246 465 -483 519 -70 16 -224 14 -298 -3 -103 -24 -200 -82 -283
-169 -50 -52 -132 -176 -132 -199 0 -7 -39 -10 -109 -10 l-109 1 25 65 c99
268 348 475 618 517 22 3 42 7 43 9 11 10 221 1 279 -12z m-43 -407 c108 -32
216 -131 264 -242 49 -114 35 -293 -31 -393 -68 -102 -185 -174 -307 -187 -25
-3 -51 -7 -57 -9 -7 -3 -14 1 -14 8 -21 201 -88 350 -208 463 -28 27 -133 100
-153 107 -19 6 20 82 75 142 103 116 269 158 431 111z m-665 -396 c141 -47
245 -149 297 -290 22 -62 26 -207 8 -277 -62 -238 -285 -388 -526 -352 -81 12
-91 15 -156 48 -222 112 -319 399 -212 629 38 80 133 177 214 215 116 56 258
67 375 27z"/>
<path d="M553 1142 c-218 -78 -295 -354 -152 -544 70 -94 164 -141 279 -141
112 0 215 48 283 131 52 65 71 129 71 232 0 71 -5 94 -27 141 -32 67 -90 127
-160 165 -45 24 -65 29 -147 31 -73 3 -107 -1 -147 -15z"/>
</g>
</svg>
