<svg width="32" height="32" viewBox="0 0 32 32" fill="none" xmlns="http://www.w3.org/2000/svg">
<g clip-path="url(#clip0)">
<path fill-rule="evenodd" clip-rule="evenodd" d="M10.7845 0.773203C11.8249 -0.258365 13.5077 -0.25694 14.5483 0.772713L16.014 2.22288L17.4465 0.784871C18.4884 -0.26096 20.179 -0.262429 21.2205 0.785298L21.221 0.785779L26.3294 5.91378H27.6667C30.0506 5.91378 32 7.82735 32 10.2118V15V22C32 21.4477 31.5523 21 31 21H30V16H25.2704C24.6507 16 24 16.5773 24 17.4832V19.5168C24 20.4227 24.6507 21 25.2704 21H30L32 22V26.702C32 29.0864 30.0506 31 27.6667 31H4.33333C1.94945 31 0 29.0864 0 26.702V10.2118C0 7.82735 1.94945 5.91378 4.33333 5.91378H5.5889L10.7841 0.773614L10.7845 0.773203ZM10.7845 0.773203L11.4883 1.48357L10.785 0.772713L10.7845 0.773203ZM25.5931 7.91378C25.8514 8.02871 26.1485 8.02876 26.4069 7.91378H27.6667C28.9661 7.91378 30 8.95195 30 10.2118V14H25.2704C23.3813 14 22 15.6452 22 17.4832V19.5168C22 21.3548 23.3813 23 25.2704 23H30V26.702C30 27.9618 28.9661 29 27.6667 29H4.33333C3.03389 29 2 27.9618 2 26.702V10.2118C2 8.95195 3.03389 7.91378 4.33333 7.91378H5.99965H6.00042H19.3329H19.3337H25.5931ZM23.5064 5.91378L19.8032 2.19638L19.8023 2.19547C19.5438 1.93535 19.1248 1.93404 18.8635 2.19638L17.4358 3.62956L19.7444 5.91378H23.5064ZM15.1507 4.18214C15.1906 4.24622 15.2384 4.30676 15.2942 4.36234C15.3517 4.41961 15.4144 4.46844 15.4808 4.50883L16.9008 5.91378H8.43251L12.1917 2.19443L12.1926 2.19353C12.4522 1.93598 12.8791 1.93469 13.1417 2.19443L15.1507 4.18214Z" fill="#006B8F"/>
</g>
<defs>
<clipPath id="clip0">
<rect width="32" height="32" fill="white"/>
</clipPath>
</defs>
</svg>
