<svg width="33" height="32" viewBox="0 0 33 32" fill="none" xmlns="http://www.w3.org/2000/svg">
<path d="M27.35 23.8H21.9792C21.4615 23.8 20.9763 24.0589 20.6896 24.4898L20.0603 25.4338C19.7735 25.8647 19.2883 26.1235 18.7706 26.1235H11.1291C10.6114 26.1235 10.1262 25.8647 9.83948 25.4338L9.21017 24.4898C8.92187 24.0589 8.43826 23.8 7.91901 23.8H2.54977C1.69416 23.8 0.999756 24.4945 0.999756 25.3501V26.9001C0.999756 28.6128 2.38702 30.0001 4.09978 30.0001H25.7999C27.5127 30.0001 28.9 28.6128 28.9 26.9001V25.3501C28.9 24.4945 28.2056 23.8 27.35 23.8Z" stroke="#006B8F" stroke-width="2" stroke-linecap="round" stroke-linejoin="round"/>
<path d="M14.9501 5.19983H5.30597C3.78386 5.19983 2.55005 6.28949 2.55005 7.6349V23.8" stroke="#006B8F" stroke-width="2" stroke-linecap="round" stroke-linejoin="round"/>
<path d="M27.3499 23.8V17.6" stroke="#006B8F" stroke-width="2" stroke-linecap="round" stroke-linejoin="round"/>
<path d="M28.5122 10.9192L31.9997 14.4997" stroke="#006B8F" stroke-width="2" stroke-linecap="round" stroke-linejoin="round"/>
<path d="M28.517 3.613C30.5345 5.63053 30.5345 8.90158 28.517 10.9191C26.4995 12.9366 23.2284 12.9366 21.2109 10.9191C19.1934 8.90156 19.1934 5.63051 21.2109 3.613C23.2284 1.59547 26.4995 1.59547 28.517 3.613" stroke="#006B8F" stroke-width="2" stroke-linecap="round" stroke-linejoin="round"/>
</svg>
