<svg width="32" height="32" viewBox="0 0 32 32" fill="none" xmlns="http://www.w3.org/2000/svg">
<path fill-rule="evenodd" clip-rule="evenodd" d="M9 2C9 1.44772 9.44772 1 10 1H21.6096C26.2244 1 30 4.67433 30 9.25C30 11.5779 28.8674 13.7624 27.2245 15.3468C25.5809 16.9319 23.3414 18 21 18H11V24H19C19.5523 24 20 24.4477 20 25C20 25.5523 19.5523 26 19 26H11V31C11 31.5523 10.5523 32 10 32C9.44772 32 9 31.5523 9 31V26H4C3.44772 26 3 25.5523 3 25C3 24.4477 3.44772 24 4 24H9V18H4C3.44772 18 3 17.5523 3 17C3 16.4477 3.44772 16 4 16H9V2ZM25.8361 13.9072C24.5 15.1957 22.7394 16 21 16H11V3H21.6096C25.1565 3 28 5.81523 28 9.25C28 10.9273 27.173 12.6179 25.8361 13.9072Z" fill="#006B8F"/>
</svg>
