<svg width="505" height="292" viewBox="0 0 505 292" fill="none" xmlns="http://www.w3.org/2000/svg">
<path d="M423.343 41H225.678C221.974 41 219 43.9735 219 47.6782V170.226C219 173.93 221.974 176.904 225.678 176.904H423.343C427.048 176.904 430.022 173.93 430.022 170.226V47.6782C430.022 43.9735 427.048 41 423.343 41Z" fill="url(#paint0_linear)"/>
<path d="M423.343 41H225.678C221.974 41 219 43.9735 219 47.6782V54.5514H430.022V47.6782C430.022 43.9735 427.048 41 423.343 41Z" fill="url(#paint1_linear)"/>
<path d="M317.857 47.7755C317.857 48.9942 316.882 50.0178 315.615 50.0178C314.347 50.0178 313.373 49.0429 313.373 47.7755C313.373 46.5081 314.347 45.5332 315.615 45.5332C316.882 45.5332 317.857 46.5569 317.857 47.7755Z" fill="url(#paint2_linear)"/>
<path d="M326.729 47.7755C326.729 48.9942 325.754 50.0178 324.486 50.0178C323.268 50.0178 322.244 49.0429 322.244 47.7755C322.244 46.5081 323.219 45.5332 324.486 45.5332C325.754 45.5332 326.729 46.5569 326.729 47.7755Z" fill="#42C1C7"/>
<path d="M335.601 47.7755C335.601 48.9942 334.626 50.0178 333.359 50.0178C332.14 50.0178 331.116 49.0429 331.116 47.7755C331.116 46.5081 332.091 45.5332 333.359 45.5332C334.626 45.5332 335.601 46.5569 335.601 47.7755Z" fill="#42C1C7"/>
<path d="M246.785 49.969H229.042C227.823 49.969 226.799 48.9941 226.799 47.7267C226.799 46.508 227.774 45.4844 229.042 45.4844H246.785C248.004 45.4844 249.028 46.4593 249.028 47.7267C249.028 48.9941 248.004 49.969 246.785 49.969Z" fill="url(#paint3_linear)"/>
<path d="M416.812 49.969H354.465C353.247 49.969 352.223 48.9941 352.223 47.7267C352.223 46.508 353.198 45.4844 354.465 45.4844H416.812C418.03 45.4844 419.054 46.4593 419.054 47.7267C419.054 48.9941 418.03 49.969 416.812 49.969Z" fill="url(#paint4_linear)"/>
<path d="M257.265 47.7755C257.265 48.9942 256.29 50.0178 255.023 50.0178C253.756 50.0178 252.781 49.0429 252.781 47.7755C252.781 46.5081 253.756 45.5332 255.023 45.5332C256.29 45.5332 257.265 46.5569 257.265 47.7755Z" fill="url(#paint5_linear)"/>
<path d="M454.464 105.776H274.201C270.837 105.776 268.107 108.506 268.107 111.87V223.644C268.107 227.008 270.837 229.738 274.201 229.738H454.464C457.827 229.738 460.557 227.008 460.557 223.644V111.87C460.557 108.506 457.827 105.776 454.464 105.776Z" fill="url(#paint6_linear)"/>
<path d="M118.232 56H6.76773C4.68794 56 3 57.6956 3 59.7849V129.215C3 131.304 4.68794 133 6.76773 133H118.232C120.312 133 122 131.304 122 129.215V59.7849C122 57.6956 120.312 56 118.232 56Z" fill="url(#paint7_linear)"/>
<path d="M454.464 105.776H274.201C270.837 105.776 268.107 108.506 268.107 111.87V118.158H460.557V111.87C460.557 108.506 457.827 105.776 454.464 105.776Z" fill="url(#paint8_linear)"/>
<path d="M356.24 114.015C357.37 114.015 358.287 113.098 358.287 111.967C358.287 110.837 357.37 109.92 356.24 109.92C355.109 109.92 354.192 110.837 354.192 111.967C354.192 113.098 355.109 114.015 356.24 114.015Z" fill="#42C1C7"/>
<path d="M364.332 114.015C365.463 114.015 366.379 113.098 366.379 111.967C366.379 110.837 365.463 109.92 364.332 109.92C363.201 109.92 362.285 110.837 362.285 111.967C362.285 113.098 363.201 114.015 364.332 114.015Z" fill="#42C1C7"/>
<path d="M372.424 114.015C373.555 114.015 374.471 113.098 374.471 111.967C374.471 110.837 373.555 109.92 372.424 109.92C371.293 109.92 370.376 110.837 370.376 111.967C370.376 113.098 371.293 114.015 372.424 114.015Z" fill="#42C1C7"/>
<path d="M293.455 113.966H277.272C276.15 113.966 275.273 113.04 275.273 111.967C275.273 110.846 276.199 109.969 277.272 109.969H293.455C294.576 109.969 295.454 110.895 295.454 111.967C295.503 113.04 294.576 113.966 293.455 113.966Z" fill="url(#paint9_linear)"/>
<path d="M448.517 113.966H391.679C390.558 113.966 389.68 113.04 389.68 111.967C389.68 110.846 390.606 109.969 391.679 109.969H448.517C449.638 109.969 450.515 110.895 450.515 111.967C450.515 113.04 449.638 113.966 448.517 113.966Z" fill="url(#paint10_linear)"/>
<path d="M301.011 114.015C302.141 114.015 303.058 113.098 303.058 111.967C303.058 110.837 302.141 109.92 301.011 109.92C299.88 109.92 298.963 110.837 298.963 111.967C298.963 113.098 299.88 114.015 301.011 114.015Z" fill="url(#paint11_linear)"/>
<path d="M48.5821 198.463H182.78C185.315 198.463 187.362 196.415 187.362 193.881V98.5821C187.362 96.0473 185.315 94 182.78 94H48.5821C46.0473 94 44 96.0473 44 98.5821V193.832C44 196.415 46.0473 198.463 48.5821 198.463Z" fill="url(#paint12_linear)"/>
<path d="M73.7354 106.771H54.9194C53.6033 106.771 52.5796 105.699 52.5796 104.432C52.5796 103.115 53.652 102.092 54.9194 102.092H73.7354C75.0515 102.092 76.0752 103.164 76.0752 104.432C76.1239 105.748 75.0515 106.771 73.7354 106.771Z" fill="url(#paint13_linear)"/>
<path d="M82.5092 106.771C83.8015 106.771 84.849 105.724 84.849 104.432C84.849 103.139 83.8015 102.092 82.5092 102.092C81.217 102.092 80.1694 103.139 80.1694 104.432C80.1694 105.724 81.217 106.771 82.5092 106.771Z" fill="url(#paint14_linear)"/>
<path d="M138.324 111.695C140.935 111.695 143.052 109.578 143.052 106.967C143.052 104.355 140.935 102.238 138.324 102.238C135.712 102.238 133.595 104.355 133.595 106.967C133.595 109.578 135.712 111.695 138.324 111.695Z" fill="#42C1C7"/>
<path d="M157.14 111.695C159.751 111.695 161.868 109.578 161.868 106.967C161.868 104.355 159.751 102.238 157.14 102.238C154.529 102.238 152.412 104.355 152.412 106.967C152.412 109.578 154.529 111.695 157.14 111.695Z" fill="#42C1C7"/>
<path d="M176.005 111.695C178.616 111.695 180.733 109.578 180.733 106.967C180.733 104.355 178.616 102.238 176.005 102.238C173.393 102.238 171.276 104.355 171.276 106.967C171.276 109.578 173.393 111.695 176.005 111.695Z" fill="#42C1C7"/>
<path d="M503.307 95.5397H423.9C423.022 95.5397 422.34 94.8572 422.34 93.9798V55.1292C422.34 54.2518 423.022 53.5693 423.9 53.5693H503.258C504.136 53.5693 504.818 54.2518 504.818 55.1292V93.9798C504.867 94.8085 504.136 95.5397 503.307 95.5397Z" fill="url(#paint15_linear)"/>
<path d="M503.307 95.5397H423.9C423.022 95.5397 422.34 94.8572 422.34 93.9798V55.1292C422.34 54.2518 423.022 53.5693 423.9 53.5693H503.258C504.136 53.5693 504.818 54.2518 504.818 55.1292V93.9798C504.867 94.8085 504.136 95.5397 503.307 95.5397Z" fill="url(#paint16_linear)"/>
<path opacity="0.5" d="M423.387 197.876C423.289 197.338 423.24 196.751 423.142 196.213C419.965 176.694 411.02 158.397 398.799 142.939C386.431 127.333 370.593 117.696 355.489 105.221C343.024 94.9475 331.829 85.5059 316.334 79.7332C297.807 72.8844 278.596 77.8743 260.754 84.5274C241.836 91.572 231.375 102.334 210.698 94.2626C156.878 73.2757 133.952 -20.7005 64.0493 4.15107C13.7 22.007 -9.17712 82.1303 3.38574 130.023C12.2824 163.828 30.6135 194.256 55.4948 218.716C91.3259 253.89 133.707 292.195 187.723 291.999C220.328 291.901 251.026 275.66 280.502 263.528C293.212 258.293 302.5 256.434 316.382 261.571C345.908 272.578 361.697 301.001 394.057 274.437C415.028 257.217 426.906 224.636 423.387 197.876Z" fill="url(#paint17_linear)"/>
<path d="M433.308 87.204H414.492C413.176 87.204 412.152 86.1316 412.152 84.8642C412.152 83.5481 413.224 82.5244 414.492 82.5244H433.308C434.624 82.5244 435.647 83.5968 435.647 84.8642C435.647 86.1316 434.624 87.204 433.308 87.204Z" fill="url(#paint18_linear)"/>
<path d="M442.082 87.204C443.374 87.204 444.422 86.1565 444.422 84.8642C444.422 83.572 443.374 82.5244 442.082 82.5244C440.79 82.5244 439.742 83.572 439.742 84.8642C439.742 86.1565 440.79 87.204 442.082 87.204Z" fill="url(#paint19_linear)"/>
<defs>
<linearGradient id="paint0_linear" x1="266.758" y1="123.31" x2="298.504" y2="200.123" gradientUnits="userSpaceOnUse">
<stop stop-color="#42C1C7" stop-opacity="0.17"/>
<stop offset="1" stop-color="#87B6B8" stop-opacity="0"/>
</linearGradient>
<linearGradient id="paint1_linear" x1="266.758" y1="49.2074" x2="267.127" y2="58.1598" gradientUnits="userSpaceOnUse">
<stop stop-color="#42C1C7" stop-opacity="0.17"/>
<stop offset="1" stop-color="#87B6B8" stop-opacity="0"/>
</linearGradient>
<linearGradient id="paint2_linear" x1="314.388" y1="48.2493" x2="315.736" y2="50.3513" gradientUnits="userSpaceOnUse">
<stop stop-color="#42C1C7" stop-opacity="0.17"/>
<stop offset="1" stop-color="#87B6B8" stop-opacity="0"/>
</linearGradient>
<linearGradient id="paint3_linear" x1="231.83" y1="48.2005" x2="232.208" y2="51.1192" gradientUnits="userSpaceOnUse">
<stop stop-color="white" stop-opacity="0.17"/>
<stop offset="1" stop-color="#E6E6E6" stop-opacity="0"/>
</linearGradient>
<linearGradient id="paint4_linear" x1="367.348" y1="48.2005" x2="367.476" y2="51.1627" gradientUnits="userSpaceOnUse">
<stop stop-color="white" stop-opacity="0.17"/>
<stop offset="1" stop-color="#E6E6E6" stop-opacity="0"/>
</linearGradient>
<linearGradient id="paint5_linear" x1="253.796" y1="48.2493" x2="255.145" y2="50.3513" gradientUnits="userSpaceOnUse">
<stop stop-color="white" stop-opacity="0.17"/>
<stop offset="1" stop-color="#E6E6E6" stop-opacity="0"/>
</linearGradient>
<linearGradient id="paint6_linear" x1="311.662" y1="180.853" x2="340.622" y2="250.913" gradientUnits="userSpaceOnUse">
<stop stop-color="#42C1C7" stop-opacity="0.17"/>
<stop offset="1" stop-color="#87B6B8" stop-opacity="0"/>
</linearGradient>
<linearGradient id="paint7_linear" x1="29.9319" y1="102.635" x2="47.9784" y2="146.096" gradientUnits="userSpaceOnUse">
<stop stop-color="#42C1C7" stop-opacity="0.17"/>
<stop offset="1" stop-color="#87B6B8" stop-opacity="0"/>
</linearGradient>
<linearGradient id="paint8_linear" x1="311.662" y1="113.275" x2="312" y2="121.455" gradientUnits="userSpaceOnUse">
<stop stop-color="#42C1C7" stop-opacity="0.17"/>
<stop offset="1" stop-color="#87B6B8" stop-opacity="0"/>
</linearGradient>
<linearGradient id="paint9_linear" x1="279.841" y1="112.39" x2="280.172" y2="114.993" gradientUnits="userSpaceOnUse">
<stop stop-color="white" stop-opacity="0.17"/>
<stop offset="1" stop-color="#E6E6E6" stop-opacity="0"/>
</linearGradient>
<linearGradient id="paint10_linear" x1="403.448" y1="112.39" x2="403.56" y2="115.03" gradientUnits="userSpaceOnUse">
<stop stop-color="white" stop-opacity="0.17"/>
<stop offset="1" stop-color="#E6E6E6" stop-opacity="0"/>
</linearGradient>
<linearGradient id="paint11_linear" x1="299.89" y1="112.4" x2="301.122" y2="114.319" gradientUnits="userSpaceOnUse">
<stop stop-color="white" stop-opacity="0.17"/>
<stop offset="1" stop-color="#E6E6E6" stop-opacity="0"/>
</linearGradient>
<linearGradient id="paint12_linear" x1="76.4455" y1="157.268" x2="102.97" y2="213.992" gradientUnits="userSpaceOnUse">
<stop stop-color="#42C1C7" stop-opacity="0.17"/>
<stop offset="1" stop-color="#87B6B8" stop-opacity="0"/>
</linearGradient>
<linearGradient id="paint13_linear" x1="57.8974" y1="104.926" x2="58.2869" y2="107.973" gradientUnits="userSpaceOnUse">
<stop stop-color="white" stop-opacity="0.17"/>
<stop offset="1" stop-color="#E6E6E6" stop-opacity="0"/>
</linearGradient>
<linearGradient id="paint14_linear" x1="81.2285" y1="104.926" x2="82.6361" y2="107.119" gradientUnits="userSpaceOnUse">
<stop stop-color="white" stop-opacity="0.17"/>
<stop offset="1" stop-color="#E6E6E6" stop-opacity="0"/>
</linearGradient>
<linearGradient id="paint15_linear" x1="441.007" y1="78.9886" x2="449.202" y2="104.086" gradientUnits="userSpaceOnUse">
<stop stop-color="#42C1C7" stop-opacity="0.17"/>
<stop offset="1" stop-color="#87B6B8" stop-opacity="0"/>
</linearGradient>
<linearGradient id="paint16_linear" x1="441.007" y1="78.9886" x2="449.202" y2="104.086" gradientUnits="userSpaceOnUse">
<stop stop-color="#42C1C7" stop-opacity="0.17"/>
<stop offset="1" stop-color="#87B6B8" stop-opacity="0"/>
</linearGradient>
<linearGradient id="paint17_linear" x1="328.041" y1="176.849" x2="256.598" y2="338.505" gradientUnits="userSpaceOnUse">
<stop stop-color="#42C1C7" stop-opacity="0.17"/>
<stop offset="1" stop-color="#87B6B8" stop-opacity="0"/>
</linearGradient>
<linearGradient id="paint18_linear" x1="417.469" y1="85.3586" x2="417.859" y2="88.4056" gradientUnits="userSpaceOnUse">
<stop stop-color="white" stop-opacity="0.17"/>
<stop offset="1" stop-color="#E6E6E6" stop-opacity="0"/>
</linearGradient>
<linearGradient id="paint19_linear" x1="440.801" y1="85.3586" x2="442.209" y2="87.5521" gradientUnits="userSpaceOnUse">
<stop stop-color="white" stop-opacity="0.17"/>
<stop offset="1" stop-color="#E6E6E6" stop-opacity="0"/>
</linearGradient>
</defs>
</svg>
