<svg width="687" height="551" viewBox="0 0 687 551" fill="none" xmlns="http://www.w3.org/2000/svg">
<g style="mix-blend-mode:multiply" opacity="0.907529" filter="url(#filter0_f)">
<rect x="49.9211" y="50.4341" width="568.38" height="430.84" rx="13.6956" fill="#E3E6EC"/>
</g>
<rect x="31.5679" y="25.896" width="605.086" height="410.867" rx="13.6956" fill="white"/>
<g filter="url(#filter1_i)">
<rect x="49.8286" y="204.509" width="565.513" height="1" fill="black" fill-opacity="0.01"/>
</g>
<path d="M258.706 165.556H262.094V165.906C262.094 167.768 261.1 169.238 258.93 169.238C256.34 169.238 255.29 167.11 255.29 164.898C255.29 162.658 256.382 160.558 258.958 160.558C260.568 160.558 261.408 161.286 261.758 162.406H262.724C262.332 160.726 260.96 159.718 258.958 159.718C255.99 159.718 254.366 161.986 254.366 164.898C254.366 167.754 255.948 170.078 258.93 170.078C261.912 170.078 263.046 167.922 263.046 165.626V164.716H258.706V165.556ZM268.006 162.714C265.822 162.714 264.632 164.366 264.632 166.396C264.632 168.426 265.822 170.078 268.006 170.078C270.176 170.078 271.38 168.426 271.38 166.396C271.38 164.366 270.176 162.714 268.006 162.714ZM268.006 169.294C266.284 169.294 265.514 167.866 265.514 166.396C265.514 164.926 266.284 163.498 268.006 163.498C269.686 163.498 270.498 164.926 270.498 166.396C270.498 167.866 269.686 169.294 268.006 169.294ZM276.237 162.714C274.053 162.714 272.863 164.366 272.863 166.396C272.863 168.426 274.053 170.078 276.237 170.078C278.407 170.078 279.611 168.426 279.611 166.396C279.611 164.366 278.407 162.714 276.237 162.714ZM276.237 169.294C274.515 169.294 273.745 167.866 273.745 166.396C273.745 164.926 274.515 163.498 276.237 163.498C277.917 163.498 278.729 164.926 278.729 166.396C278.729 167.866 277.917 169.294 276.237 169.294ZM286.763 162.896V163.68H286.483C286.077 163.19 285.363 162.714 284.229 162.714C282.283 162.714 281.093 164.254 281.093 166.312C281.093 168.356 282.283 169.896 284.229 169.896C285.335 169.896 286.049 169.434 286.455 168.93H286.735V169.546C286.735 171.1 286.007 171.996 284.439 171.996C283.305 171.996 282.465 171.674 282.241 170.722H281.373C281.611 172.024 282.703 172.78 284.453 172.78C286.469 172.78 287.617 171.506 287.617 169.546V162.896H286.763ZM284.327 169.112C282.843 169.112 281.975 167.992 281.975 166.312C281.975 164.618 282.829 163.498 284.327 163.498C286.007 163.498 286.735 164.856 286.735 166.312C286.735 167.768 286.007 169.112 284.327 169.112ZM290.872 159.718H289.99V169.896H290.872V159.718ZM299.138 165.962C299.138 164.31 298.158 162.714 296.128 162.714C294.042 162.714 292.81 164.184 292.81 166.312C292.81 168.398 293.972 170.078 296.142 170.078C297.836 170.078 298.774 169.168 298.998 168.048H298.116C297.892 168.818 297.22 169.294 296.142 169.294C294.658 169.294 293.692 168.174 293.692 166.438V166.242H299.138V165.962ZM296.1 163.498C297.444 163.498 298.158 164.464 298.228 165.458H293.748C293.902 164.464 294.672 163.498 296.1 163.498ZM305.087 159.9V169.896H306.011V165.724H309.189C311.317 165.724 312.479 164.618 312.479 162.812C312.479 161.006 311.317 159.9 309.189 159.9H305.087ZM306.011 164.884V160.74H309.035C310.897 160.74 311.555 161.552 311.555 162.812C311.555 164.072 310.897 164.884 309.035 164.884H306.011ZM319.878 165.962C319.878 164.31 318.898 162.714 316.868 162.714C314.782 162.714 313.55 164.184 313.55 166.312C313.55 168.398 314.712 170.078 316.882 170.078C318.576 170.078 319.514 169.168 319.738 168.048H318.856C318.632 168.818 317.96 169.294 316.882 169.294C315.398 169.294 314.432 168.174 314.432 166.438V166.242H319.878V165.962ZM316.84 163.498C318.184 163.498 318.898 164.464 318.968 165.458H314.488C314.642 164.464 315.412 163.498 316.84 163.498ZM326.635 169.896H327.601L325.795 166.27L327.503 162.896H326.551L325.039 165.892H322.687V162.896H321.805V169.896H322.687V166.676H325.025L326.635 169.896ZM328.526 169.896H328.764C330.346 169.896 331.004 168.832 331.004 165.514V163.68H334.392V169.896H335.274V162.896H330.178V165.514C330.178 168.3 329.758 169.084 328.764 169.084H328.526V169.896ZM342.172 169.896H343.026V165.038C343.026 163.582 341.948 162.714 340.254 162.714C338.728 162.714 337.664 163.428 337.552 164.702H338.434C338.49 163.96 339.092 163.498 340.254 163.498C341.612 163.498 342.144 164.198 342.144 165.094V165.528H339.708C337.776 165.528 337.09 166.718 337.09 167.824C337.09 169 337.972 170.078 339.624 170.078C340.646 170.078 341.458 169.672 341.892 169.112H342.172V169.896ZM339.75 169.294C338.686 169.294 337.972 168.748 337.972 167.754C337.972 166.858 338.658 166.27 339.946 166.27H342.144V167.096C342.144 168.384 341.052 169.294 339.75 169.294ZM345.293 169.896H346.175V163.764H346.427L348.261 167.096H349.437L351.257 163.764H351.509V169.896H352.391V162.896H350.823L349.003 166.284H348.723L346.861 162.896H345.293V169.896ZM359.29 169.896H360.144V165.038C360.144 163.582 359.066 162.714 357.372 162.714C355.846 162.714 354.782 163.428 354.67 164.702H355.552C355.608 163.96 356.21 163.498 357.372 163.498C358.73 163.498 359.262 164.198 359.262 165.094V165.528H356.826C354.894 165.528 354.208 166.718 354.208 167.824C354.208 169 355.09 170.078 356.742 170.078C357.764 170.078 358.576 169.672 359.01 169.112H359.29V169.896ZM356.868 169.294C355.804 169.294 355.09 168.748 355.09 167.754C355.09 166.858 355.776 166.27 357.064 166.27H359.262V167.096C359.262 168.384 358.17 169.294 356.868 169.294Z" fill="#253640"/>
<path d="M143.506 153.172C140.89 153.172 139.51 155.152 139.51 157.612C139.51 160.072 140.89 162.052 143.506 162.052C146.11 162.052 147.502 160.072 147.502 157.612C147.502 155.152 146.11 153.172 143.506 153.172ZM143.506 161.068C141.466 161.068 140.602 159.4 140.602 157.612C140.602 155.824 141.466 154.156 143.506 154.156C145.546 154.156 146.41 155.824 146.41 157.612C146.41 159.4 145.546 161.068 143.506 161.068ZM148.326 161.896H148.53C150.018 161.896 150.666 160.996 150.666 158.212V156.736H153.318V161.896H154.35V155.848H149.718V158.188C149.718 160.336 149.346 160.936 148.53 160.936H148.326V161.896ZM161.555 158.512C161.519 157.024 160.655 155.692 158.855 155.692C157.019 155.692 155.939 156.952 155.939 158.812C155.939 160.672 156.995 162.052 158.879 162.052C160.379 162.052 161.255 161.26 161.447 160.228H160.415C160.235 160.804 159.731 161.164 158.879 161.164C157.631 161.164 156.983 160.3 156.947 158.86H161.555V158.512ZM158.831 156.58C159.851 156.58 160.439 157.24 160.499 158.008H157.007C157.139 157.24 157.739 156.58 158.831 156.58ZM163.143 161.896H164.163V156.736H167.679V155.848H163.143V161.896Z" fill="#11142D"/>
<path d="M140.238 175.916C140.318 175.146 140.818 174.796 141.498 174.796C142.218 174.796 142.708 175.186 142.708 175.956C142.708 176.696 142.118 177.256 141.598 177.666L139.088 179.646V180.896H144.078V179.876H140.838V179.636L142.458 178.326C143.258 177.686 143.878 176.896 143.878 175.946C143.878 174.516 142.888 173.756 141.528 173.756C140.138 173.756 139.158 174.476 139.078 175.916H140.238ZM147.695 173.756C146.175 173.756 145.035 174.856 145.035 177.396C145.035 179.926 146.175 181.026 147.695 181.026C149.205 181.026 150.355 179.926 150.355 177.396C150.355 174.856 149.205 173.756 147.695 173.756ZM147.695 179.986C146.575 179.986 146.205 178.816 146.205 177.396C146.205 175.966 146.575 174.796 147.695 174.796C148.815 174.796 149.185 175.966 149.185 177.396C149.185 178.816 148.815 179.986 147.695 179.986ZM152.58 180.896V179.556H151.29V180.896H152.58ZM156.25 173.756C154.73 173.756 153.59 174.856 153.59 177.396C153.59 179.926 154.73 181.026 156.25 181.026C157.76 181.026 158.91 179.926 158.91 177.396C158.91 174.856 157.76 173.756 156.25 173.756ZM156.25 179.986C155.13 179.986 154.76 178.816 154.76 177.396C154.76 175.966 155.13 174.796 156.25 174.796C157.37 174.796 157.74 175.966 157.74 177.396C157.74 178.816 157.37 179.986 156.25 179.986ZM159.987 180.896H164.257V179.876H162.767V173.896H161.377L159.977 174.856V176.026L161.367 175.086H161.607V179.876H159.987V180.896ZM166.623 180.896V179.556H165.333V180.896H166.623ZM169.037 175.916C169.117 175.146 169.617 174.796 170.297 174.796C171.017 174.796 171.507 175.186 171.507 175.956C171.507 176.696 170.917 177.256 170.397 177.666L167.887 179.646V180.896H172.877V179.876H169.637V179.636L171.257 178.326C172.057 177.686 172.677 176.896 172.677 175.946C172.677 174.516 171.687 173.756 170.327 173.756C168.937 173.756 167.957 174.476 167.877 175.916H169.037ZM176.494 173.756C174.974 173.756 173.834 174.856 173.834 177.396C173.834 179.926 174.974 181.026 176.494 181.026C178.004 181.026 179.154 179.926 179.154 177.396C179.154 174.856 178.004 173.756 176.494 173.756ZM176.494 179.986C175.374 179.986 175.004 178.816 175.004 177.396C175.004 175.966 175.374 174.796 176.494 174.796C177.614 174.796 177.984 175.966 177.984 177.396C177.984 178.816 177.614 179.986 176.494 179.986ZM181.341 175.916C181.421 175.146 181.921 174.796 182.601 174.796C183.321 174.796 183.811 175.186 183.811 175.956C183.811 176.696 183.221 177.256 182.701 177.666L180.191 179.646V180.896H185.181V179.876H181.941V179.636L183.561 178.326C184.361 177.686 184.981 176.896 184.981 175.946C184.981 174.516 183.991 173.756 182.631 173.756C181.241 173.756 180.261 174.476 180.181 175.916H181.341ZM186.179 180.896H190.449V179.876H188.959V173.896H187.569L186.169 174.856V176.026L187.559 175.086H187.799V179.876H186.179V180.896Z" fill="#808191"/>
<path d="M401.87 159.9V164.296H395.808V159.9H394.884V169.896H395.808V165.164H401.87V169.896H402.794V159.9H401.87ZM408.225 162.714C406.041 162.714 404.851 164.366 404.851 166.396C404.851 168.426 406.041 170.078 408.225 170.078C410.395 170.078 411.599 168.426 411.599 166.396C411.599 164.366 410.395 162.714 408.225 162.714ZM408.225 169.294C406.503 169.294 405.733 167.866 405.733 166.396C405.733 164.926 406.503 163.498 408.225 163.498C409.905 163.498 410.717 164.926 410.717 166.396C410.717 167.866 409.905 169.294 408.225 169.294ZM414.933 172.696L419.119 162.896H418.195L416.109 167.838H415.773L413.463 162.896H412.511L415.479 169.238L414.037 172.696H414.933ZM419.814 163.68H422.292V169.896H423.174V163.68H425.638V162.896H419.814V163.68ZM430.294 162.896C429.328 162.896 428.586 163.148 427.97 163.932H427.704C427.858 162.77 428.194 161.664 429.58 161.44L431.666 161.104C432.688 160.936 432.982 160.488 433.038 159.718H432.156C432.114 160.124 431.988 160.208 431.484 160.278L429.566 160.586C427.088 160.992 426.794 163.47 426.794 165.878C426.794 168.552 428.026 170.078 430.21 170.078C432.38 170.078 433.598 168.468 433.598 166.494C433.598 164.506 432.464 162.896 430.294 162.896ZM430.182 169.294C428.474 169.294 427.676 167.908 427.676 166.494C427.676 165.066 428.474 163.68 430.182 163.68C431.876 163.68 432.688 165.066 432.688 166.494C432.688 167.908 431.876 169.294 430.182 169.294ZM436.89 172.696L441.076 162.896H440.152L438.066 167.838H437.73L435.42 162.896H434.468L437.436 169.238L435.994 172.696H436.89ZM447.371 169.896H448.337L446.531 166.27L448.239 162.896H447.287L445.775 165.892H443.423V162.896H442.541V169.896H443.423V166.676H445.761L447.371 169.896Z" fill="#11142D"/>
<path d="M529.702 160.096V160.908H534.112V161.188L531.48 163.554V164.702C531.69 164.646 532.012 164.618 532.306 164.618C533.874 164.618 534.728 165.486 534.728 166.886C534.728 168.384 533.706 169.266 532.292 169.266C531.018 169.266 530.01 168.468 529.898 167.25H528.988C529.1 168.86 530.374 170.078 532.292 170.078C534.21 170.078 535.638 168.916 535.638 166.886C535.638 164.94 534.322 163.848 532.516 163.848V163.568L535.204 161.188V160.096H529.702ZM540.645 159.9C538.629 159.9 537.131 161.482 537.131 164.996C537.131 168.51 538.629 170.078 540.645 170.078C542.661 170.078 544.159 168.51 544.159 164.996C544.159 161.482 542.661 159.9 540.645 159.9ZM540.645 169.266C538.951 169.266 538.041 167.782 538.041 164.996C538.041 162.21 538.951 160.712 540.645 160.712C542.339 160.712 543.249 162.21 543.249 164.996C543.249 167.782 542.339 169.266 540.645 169.266ZM553.169 159.9C551.153 159.9 549.655 161.482 549.655 164.996C549.655 168.51 551.153 170.078 553.169 170.078C555.185 170.078 556.683 168.51 556.683 164.996C556.683 161.482 555.185 159.9 553.169 159.9ZM553.169 169.266C551.475 169.266 550.565 167.782 550.565 164.996C550.565 162.21 551.475 160.712 553.169 160.712C554.863 160.712 555.773 162.21 555.773 164.996C555.773 167.782 554.863 169.266 553.169 169.266ZM561.796 159.9C559.78 159.9 558.282 161.482 558.282 164.996C558.282 168.51 559.78 170.078 561.796 170.078C563.812 170.078 565.31 168.51 565.31 164.996C565.31 161.482 563.812 159.9 561.796 159.9ZM561.796 169.266C560.102 169.266 559.192 167.782 559.192 164.996C559.192 162.21 560.102 160.712 561.796 160.712C563.49 160.712 564.4 162.21 564.4 164.996C564.4 167.782 563.49 169.266 561.796 169.266ZM570.423 159.9C568.407 159.9 566.909 161.482 566.909 164.996C566.909 168.51 568.407 170.078 570.423 170.078C572.439 170.078 573.937 168.51 573.937 164.996C573.937 161.482 572.439 159.9 570.423 159.9ZM570.423 169.266C568.729 169.266 567.819 167.782 567.819 164.996C567.819 162.21 568.729 160.712 570.423 160.712C572.117 160.712 573.027 162.21 573.027 164.996C573.027 167.782 572.117 169.266 570.423 169.266ZM579.334 165.64H580.72V166.732H579.334V167.46H580.72V169.896H581.63V167.46H585.256V166.732H581.63V165.64H584.192C586.222 165.64 587.328 164.604 587.328 162.868C587.328 161.118 586.222 160.096 584.192 160.096H580.72V164.912H579.334V165.64ZM581.63 164.912V160.908H584.052C585.788 160.908 586.418 161.678 586.418 162.896C586.418 164.086 585.788 164.912 584.052 164.912H581.63Z" fill="#11142D"/>
<g clip-path="url(#clip0)">
<rect x="71.019" y="149.885" width="37.1967" height="40.5782" rx="4.56519" fill="#E7FAFF"/>
<rect x="67.6375" y="145.376" width="42.8326" height="40.5782" rx="4.56519" fill="#C3ECF8"/>
<mask id="mask0" mask-type="alpha" maskUnits="userSpaceOnUse" x="67" y="144" width="44" height="42">
<rect x="67.6375" y="144.896" width="42.8326" height="40.5782" rx="4.56519" fill="white"/>
</mask>
<g mask="url(#mask0)">
</g>
<path fill-rule="evenodd" clip-rule="evenodd" d="M86.5642 166.933C86.5642 167.427 86.8617 167.872 87.318 168.061C87.7743 168.25 88.2996 168.145 88.6488 167.796L89.0064 167.439V168.681C89.0064 169.524 89.6898 170.208 90.5328 170.208H91.3609L91.9886 170.843C92.3366 171.196 92.863 171.303 93.3213 171.115C93.7098 170.956 93.984 170.611 94.0584 170.208H94.1961C95.0391 170.208 95.7225 169.524 95.7225 168.681V166.628C95.7225 165.785 95.0391 165.101 94.1961 165.101H93.7866C93.8541 164.91 93.8909 164.705 93.8909 164.491V160.827C93.8909 159.816 93.0708 158.996 92.0592 158.996H85.3431C84.3315 158.996 83.5115 159.816 83.5115 160.827V164.491C83.5115 165.502 84.3315 166.322 85.3431 166.322H86.5642V166.933ZM92.0592 165.101C92.3964 165.101 92.6698 164.828 92.6698 164.491V160.827C92.6698 160.49 92.3964 160.217 92.0592 160.217H85.3431C85.0059 160.217 84.7326 160.49 84.7326 160.827V164.491C84.7326 164.828 85.0059 165.101 85.3431 165.101H87.1748C87.3701 165.101 87.544 165.193 87.6557 165.335C87.7369 165.439 87.7853 165.57 87.7853 165.712V166.933L89.0064 165.712L89.4382 165.28C89.5527 165.165 89.708 165.101 89.8699 165.101H90.5328H92.0592ZM90.5328 166.322C90.3642 166.322 90.2275 166.459 90.2275 166.628V168.681C90.2275 168.85 90.3642 168.986 90.5328 168.986H91.667H91.7437C91.8254 168.986 91.9036 169.019 91.961 169.077L92.1727 169.292L92.8576 169.986V169.292C92.8576 169.123 92.9943 168.986 93.1629 168.986H93.5872H94.1961C94.3647 168.986 94.5014 168.85 94.5014 168.681V166.628C94.5014 166.459 94.3647 166.322 94.1961 166.322H92.0592H90.5328Z" fill="#006B8F"/>
</g>
<g clip-path="url(#clip1)">
<rect x="71.019" y="223.15" width="37.1967" height="40.5782" rx="4.56519" fill="#E7FAFF"/>
<rect x="67.6375" y="218.642" width="42.8326" height="40.5782" rx="4.56519" fill="#C3ECF8"/>
<mask id="mask1" mask-type="alpha" maskUnits="userSpaceOnUse" x="67" y="217" width="44" height="42">
<rect x="67.6375" y="217.896" width="42.8326" height="40.5782" rx="4.56519" fill="white"/>
</mask>
<g mask="url(#mask1)">
</g>
<path fill-rule="evenodd" clip-rule="evenodd" d="M86.1356 233.603L86.136 233.604L86.1356 233.603ZM86.1618 233.644L87.3857 235.573C87.2378 235.712 87.0765 235.849 86.9029 235.997C86.7537 236.124 86.5954 236.259 86.4287 236.409C86.0156 236.782 85.9358 237.38 86.2032 237.846C87.6169 240.31 89.5451 241.431 90.4079 241.834C90.9276 242.076 91.4924 241.885 91.8067 241.489L92.6536 240.421C92.6536 240.421 92.6543 240.421 92.6556 240.42C92.6569 240.42 92.6592 240.42 92.6592 240.42C92.6592 240.42 92.6611 240.421 92.6629 240.422C93.1564 240.723 93.8449 241.133 94.4773 241.48C94.3637 242.159 94.1028 242.555 93.8151 242.797C93.513 243.051 93.1224 243.185 92.6867 243.233C91.8167 243.329 90.9335 243.068 90.7376 243.004C90.5215 242.895 89.3365 242.277 88.0705 241.276C86.765 240.244 85.456 238.868 84.9553 237.29C84.5895 236.137 84.7274 235.326 85.015 234.766C85.293 234.225 85.7429 233.858 86.1618 233.644ZM85.7191 232.503C86.2959 232.232 86.8922 232.514 87.17 232.952L88.4504 234.97C88.7092 235.377 88.727 235.974 88.3062 236.382C88.1258 236.557 87.8749 236.772 87.6414 236.972C87.5133 237.082 87.3904 237.188 87.2872 237.28C88.5039 239.378 90.1306 240.348 90.8704 240.703L91.694 239.665C92.0828 239.175 92.7752 239.06 93.3024 239.383C93.7901 239.681 94.4644 240.082 95.0754 240.417C95.4829 240.64 95.7744 241.106 95.6918 241.632C95.5435 242.577 95.156 243.265 94.6039 243.729C94.061 244.185 93.4142 244.379 92.8218 244.444C91.6564 244.573 90.5419 244.224 90.3383 244.157C90.2868 244.139 90.244 244.121 90.1981 244.098C89.9796 243.988 88.6918 243.323 87.3101 242.231C85.9428 241.15 84.4008 239.586 83.789 237.658C83.3396 236.242 83.4725 235.094 83.9262 234.211C84.3718 233.343 85.0936 232.797 85.7191 232.503Z" fill="#006B8F"/>
<path fill-rule="evenodd" clip-rule="evenodd" d="M91.2719 232.317C90.9649 232.177 90.6018 232.311 90.4609 232.617C90.32 232.923 90.4547 233.285 90.7617 233.425C92.1821 234.075 93.8078 235.296 94.5507 236.981C94.6866 237.289 95.0475 237.43 95.3567 237.294C95.666 237.159 95.8066 236.799 95.6707 236.491C94.7633 234.433 92.8452 233.037 91.2719 232.317ZM90.8191 234.48C90.5169 234.329 90.1495 234.451 89.9985 234.752C89.8474 235.054 89.9699 235.42 90.272 235.57C90.8468 235.857 91.2445 236.126 91.5657 236.447C91.8869 236.767 92.1577 237.163 92.445 237.736C92.5961 238.037 92.9635 238.159 93.2657 238.008C93.5678 237.858 93.6903 237.492 93.5392 237.191C93.2149 236.544 92.8741 236.026 92.4307 235.585C91.9873 235.143 91.4676 234.803 90.8191 234.48Z" fill="#006B8F"/>
</g>
<g clip-path="url(#clip2)">
<rect x="71.019" y="296.417" width="37.1967" height="41.7054" rx="4.56519" fill="#E7FAFF"/>
<rect x="67.6375" y="291.908" width="42.8326" height="41.7054" rx="4.56519" fill="#C3ECF8"/>
<mask id="mask2" mask-type="alpha" maskUnits="userSpaceOnUse" x="67" y="291" width="44" height="42">
<rect x="67.6375" y="291.896" width="42.8326" height="40.5782" rx="4.56519" fill="white"/>
</mask>
<g mask="url(#mask2)">
<path d="M86.3991 306.702H95.0015C95.5292 306.702 95.9575 307.13 95.9575 307.658V313.303C95.9575 313.832 95.5292 314.259 95.0015 314.259H86.3991C85.8714 314.26 85.4431 313.832 85.4431 313.303V307.658C85.4431 307.13 85.8714 306.702 86.3991 306.702V306.702Z" stroke="#006B8F" stroke-width="1.12717" stroke-linecap="round" stroke-linejoin="round"/>
<path d="M85.5134 307.358L89.8707 310.474C90.3603 310.825 91.0183 310.825 91.5086 310.476L95.8862 307.354" stroke="#006B8F" stroke-width="1.12717" stroke-linecap="round" stroke-linejoin="round"/>
<path d="M92.8353 316.565H84.6858C83.9074 316.565 83.2769 315.935 83.2769 315.156V309.965" stroke="#006B8F" stroke-width="1.12717" stroke-linecap="round" stroke-linejoin="round"/>
</g>
</g>
<g clip-path="url(#clip3)">
<rect x="71.019" y="370.811" width="37.1967" height="41.7054" rx="4.56519" fill="#E7FAFF"/>
<rect x="67.6375" y="366.302" width="42.8326" height="41.7054" rx="4.56519" fill="#C3ECF8"/>
<mask id="mask3" mask-type="alpha" maskUnits="userSpaceOnUse" x="67" y="365" width="44" height="42">
<rect x="67.6375" y="365.896" width="42.8326" height="40.5782" rx="4.56519" fill="white"/>
</mask>
<g mask="url(#mask3)">
</g>
<path fill-rule="evenodd" clip-rule="evenodd" d="M91.0263 378.982H85.3904C83.8341 378.982 82.5725 380.244 82.5725 381.8V387.436C82.5725 388.993 83.8341 390.254 85.3904 390.254C85.3904 391.81 86.6521 393.072 88.2084 393.072H90.6741H93.8442C95.4005 393.072 96.6622 391.81 96.6622 390.254V384.618C96.6622 383.062 95.4005 381.8 93.8442 381.8C93.8442 380.244 92.5826 378.982 91.0263 378.982ZM93.8442 383.209V387.436C93.8442 388.993 92.5826 390.254 91.0263 390.254H86.7994C86.7994 391.032 87.4302 391.663 88.2084 391.663H90.6741H93.8442C94.6224 391.663 95.2532 391.032 95.2532 390.254V384.618C95.2532 383.84 94.6224 383.209 93.8442 383.209ZM83.9815 381.8C83.9815 381.022 84.6123 380.391 85.3904 380.391H91.0263C91.8045 380.391 92.4353 381.022 92.4353 381.8V387.436C92.4353 388.214 91.8045 388.845 91.0263 388.845H85.3904C84.6123 388.845 83.9815 388.214 83.9815 387.436V381.8Z" fill="#006B8F"/>
</g>
<g filter="url(#filter2_i)">
<rect x="49.5679" y="274.896" width="566" height="3" fill="black" fill-opacity="0.01"/>
</g>
<path d="M139.942 234.896H140.998V227.552H141.262L143.458 231.62H144.586L146.782 227.552H147.046V234.896H148.102V226.328H146.29L144.166 230.348H143.902L141.742 226.328H139.942V234.896ZM154.034 234.896H154.994V230.78C154.994 229.424 154.022 228.692 152.498 228.692C151.142 228.692 150.182 229.34 150.098 230.456H151.118C151.166 229.928 151.622 229.58 152.522 229.58C153.578 229.58 153.998 230.108 153.998 230.84V231.08H152.03C150.35 231.08 149.714 232.112 149.714 233.084C149.714 234.116 150.494 235.052 151.886 235.052C152.75 235.052 153.398 234.728 153.77 234.26H154.034V234.896ZM152.138 234.164C151.238 234.164 150.734 233.732 150.734 233.048C150.734 232.328 151.19 231.896 152.186 231.896H153.998V232.448C153.998 233.408 153.146 234.164 152.138 234.164ZM159.765 229.58C160.977 229.58 161.625 230.528 161.625 231.872C161.625 233.216 160.977 234.164 159.765 234.164C158.421 234.164 157.869 233.06 157.869 231.872C157.869 230.684 158.421 229.58 159.765 229.58ZM156.861 228.848V237.296H157.881V234.248H158.145C158.469 234.68 159.033 235.052 159.993 235.052C161.661 235.052 162.645 233.696 162.645 231.872C162.645 230.084 161.661 228.692 159.993 228.692C159.033 228.692 158.445 229.076 158.109 229.496H157.845V228.848H156.861ZM164.244 234.896H165.264V229.736H168.78V228.848H164.244V234.896ZM172.438 228.692C170.542 228.692 169.462 230.084 169.462 231.872C169.462 233.66 170.542 235.052 172.438 235.052C174.322 235.052 175.414 233.66 175.414 231.872C175.414 230.084 174.322 228.692 172.438 228.692ZM172.438 234.164C171.094 234.164 170.482 233.06 170.482 231.872C170.482 230.684 171.094 229.58 172.438 229.58C173.77 229.58 174.394 230.684 174.394 231.872C174.394 233.06 173.77 234.164 172.438 234.164Z" fill="#11142D"/>
<path d="M139.41 255.742H143.68V254.722H142.19V248.742H140.8L139.4 249.702V250.872L140.79 249.932H141.03V254.722H139.41V255.742ZM147.376 251.002C146.726 251.002 146.386 251.192 146.076 251.442H145.836L145.966 249.732H149.216V248.742H145.046L144.736 252.532H145.856C146.146 252.122 146.556 251.942 147.106 251.942C147.916 251.942 148.456 252.502 148.456 253.382C148.456 254.272 147.926 254.832 147.086 254.832C146.326 254.832 145.826 254.452 145.736 253.692H144.576C144.656 254.932 145.536 255.872 147.126 255.872C148.596 255.872 149.626 254.872 149.626 253.352C149.626 251.992 148.706 251.002 147.376 251.002ZM152.032 255.742V254.402H150.742V255.742H152.032ZM155.702 248.602C154.182 248.602 153.042 249.702 153.042 252.242C153.042 254.772 154.182 255.872 155.702 255.872C157.212 255.872 158.362 254.772 158.362 252.242C158.362 249.702 157.212 248.602 155.702 248.602ZM155.702 254.832C154.582 254.832 154.212 253.662 154.212 252.242C154.212 250.812 154.582 249.642 155.702 249.642C156.822 249.642 157.192 250.812 157.192 252.242C157.192 253.662 156.822 254.832 155.702 254.832ZM159.439 255.742H163.709V254.722H162.219V248.742H160.829L159.429 249.702V250.872L160.819 249.932H161.059V254.722H159.439V255.742ZM166.075 255.742V254.402H164.785V255.742H166.075ZM168.489 250.762C168.569 249.992 169.069 249.642 169.749 249.642C170.469 249.642 170.959 250.032 170.959 250.802C170.959 251.542 170.369 252.102 169.849 252.512L167.339 254.492V255.742H172.329V254.722H169.089V254.482L170.709 253.172C171.509 252.532 172.129 251.742 172.129 250.792C172.129 249.362 171.139 248.602 169.779 248.602C168.389 248.602 167.409 249.322 167.329 250.762H168.489ZM175.946 248.602C174.426 248.602 173.286 249.702 173.286 252.242C173.286 254.772 174.426 255.872 175.946 255.872C177.456 255.872 178.606 254.772 178.606 252.242C178.606 249.702 177.456 248.602 175.946 248.602ZM175.946 254.832C174.826 254.832 174.456 253.662 174.456 252.242C174.456 250.812 174.826 249.642 175.946 249.642C177.066 249.642 177.436 250.812 177.436 252.242C177.436 253.662 177.066 254.832 175.946 254.832ZM180.794 250.762C180.874 249.992 181.374 249.642 182.054 249.642C182.774 249.642 183.264 250.032 183.264 250.802C183.264 251.542 182.674 252.102 182.154 252.512L179.644 254.492V255.742H184.634V254.722H181.394V254.482L183.014 253.172C183.814 252.532 184.434 251.742 184.434 250.792C184.434 249.362 183.444 248.602 182.084 248.602C180.694 248.602 179.714 249.322 179.634 250.762H180.794ZM185.631 255.742H189.901V254.722H188.411V248.742H187.021L185.621 249.702V250.872L187.011 249.932H187.251V254.722H185.631V255.742Z" fill="#808191"/>
<path d="M399.884 242.896H400.808V233.88H401.088L404.028 238.906H405.008L407.934 233.88H408.214V242.896H409.138V232.9H407.514L404.672 237.856H404.406L401.494 232.9H399.884V242.896ZM412.521 235.896H411.639V242.896H414.593C416.259 242.896 417.169 242.028 417.169 240.614C417.169 239.2 416.259 238.346 414.593 238.346H412.521V235.896ZM412.521 242.112V239.13H414.481C415.825 239.13 416.287 239.718 416.287 240.628C416.287 241.524 415.825 242.112 414.481 242.112H412.521ZM419.199 235.896H418.317V242.896H419.199V235.896ZM429.39 235.896V242.112H426.366V235.896H425.484V242.112H422.46V235.896H421.578V242.896H430.272V235.896H429.39ZM433.534 235.896H432.652V242.896H435.746C437.412 242.896 438.322 242.028 438.322 240.614C438.322 239.2 437.412 238.346 435.746 238.346H433.534V235.896ZM433.534 242.112V239.13H435.634C436.978 239.13 437.44 239.718 437.44 240.628C437.44 241.524 436.978 242.112 435.634 242.112H433.534ZM443.861 235.896V240.404C443.861 242.042 444.869 243.078 446.563 243.078C447.529 243.078 448.369 242.658 448.747 242.112H449.027V242.896H449.881V235.896H448.999V239.732C448.999 241.09 448.061 242.294 446.689 242.294C445.387 242.294 444.743 241.594 444.743 240.194V235.896H443.861ZM454.68 243.078C456.472 243.078 457.466 242.042 457.466 240.922C457.466 239.732 456.71 239.144 455.548 238.934L454.68 238.794C454.47 238.752 454.232 238.724 453.994 238.682C453.196 238.528 452.804 238.248 452.804 237.632C452.804 236.918 453.448 236.498 454.554 236.498C455.52 236.498 456.318 236.89 456.416 237.66H457.284C457.13 236.484 456.192 235.714 454.61 235.714C452.818 235.714 451.922 236.582 451.922 237.716C451.922 238.71 452.594 239.214 453.532 239.396C454.008 239.508 454.89 239.648 455.198 239.69C456.206 239.844 456.584 240.264 456.584 240.95C456.584 241.846 455.814 242.294 454.596 242.294C453.42 242.294 452.678 241.832 452.51 240.95H451.642C451.824 242.238 452.762 243.078 454.68 243.078ZM462.674 235.714C461.512 235.714 460.826 236.176 460.434 236.68H460.154V232.718H459.272V242.896H460.126V242.112H460.406C460.798 242.602 461.512 243.078 462.674 243.078C464.634 243.078 465.796 241.468 465.796 239.396C465.796 237.31 464.634 235.714 462.674 235.714ZM462.562 242.294C460.84 242.294 460.154 240.866 460.154 239.396C460.154 237.912 460.84 236.498 462.562 236.498C464.088 236.498 464.914 237.674 464.914 239.396C464.914 241.118 464.088 242.294 462.562 242.294Z" fill="#11142D"/>
<path d="M530.528 235.546C530.528 234.356 531.564 233.712 532.782 233.712C534 233.712 535.036 234.356 535.036 235.546C535.036 236.736 534 237.38 532.782 237.38C531.564 237.38 530.528 236.736 530.528 235.546ZM532.782 242.266C531.34 242.266 530.234 241.496 530.234 240.25C530.234 238.99 531.284 238.192 532.782 238.192C534.28 238.192 535.33 238.99 535.33 240.25C535.33 241.496 534.224 242.266 532.782 242.266ZM536.24 240.292C536.24 238.892 535.26 238.206 534.546 237.898V237.618C535.106 237.324 535.96 236.666 535.96 235.532C535.96 233.95 534.616 232.9 532.782 232.9C530.948 232.9 529.618 233.95 529.618 235.532C529.618 236.666 530.458 237.324 531.018 237.618V237.898C530.304 238.206 529.324 238.892 529.324 240.292C529.324 241.93 530.752 243.078 532.782 243.078C534.812 243.078 536.24 241.93 536.24 240.292ZM541.302 232.9C539.286 232.9 537.788 234.482 537.788 237.996C537.788 241.51 539.286 243.078 541.302 243.078C543.318 243.078 544.816 241.51 544.816 237.996C544.816 234.482 543.318 232.9 541.302 232.9ZM541.302 242.266C539.608 242.266 538.698 240.782 538.698 237.996C538.698 235.21 539.608 233.712 541.302 233.712C542.996 233.712 543.906 235.21 543.906 237.996C543.906 240.782 542.996 242.266 541.302 242.266ZM549.929 232.9C547.913 232.9 546.415 234.482 546.415 237.996C546.415 241.51 547.913 243.078 549.929 243.078C551.945 243.078 553.443 241.51 553.443 237.996C553.443 234.482 551.945 232.9 549.929 232.9ZM549.929 242.266C548.235 242.266 547.325 240.782 547.325 237.996C547.325 235.21 548.235 233.712 549.929 233.712C551.623 233.712 552.533 235.21 552.533 237.996C552.533 240.782 551.623 242.266 549.929 242.266ZM558.84 238.64H560.226V239.732H558.84V240.46H560.226V242.896H561.136V240.46H564.762V239.732H561.136V238.64H563.698C565.728 238.64 566.834 237.604 566.834 235.868C566.834 234.118 565.728 233.096 563.698 233.096H560.226V237.912H558.84V238.64ZM561.136 237.912V233.908H563.558C565.294 233.908 565.924 234.678 565.924 235.896C565.924 237.086 565.294 237.912 563.558 237.912H561.136Z" fill="#11142D"/>
<path d="M257.88 232.9C255.808 232.9 254.674 233.95 254.674 235.728C254.674 236.946 255.22 237.814 256.228 238.248L254.59 242.896H255.556L257.124 238.486C257.334 238.528 257.586 238.542 257.88 238.542H261.268V242.896H262.192V232.9H257.88ZM258.02 237.702C256.242 237.702 255.598 236.946 255.598 235.728C255.598 234.51 256.228 233.74 258.02 233.74H261.268V237.702H258.02ZM270.731 242.896V235.896H269.849V238.892H265.579V235.896H264.697V242.896H265.579V239.676H269.849V242.896H270.731ZM279.14 242.112V235.896H274.114V237.772C274.114 239.676 273.638 241.16 273.148 242.112H272.266V244.898H273.148V242.896H279.56V244.898H280.442V242.112H279.14ZM278.258 242.112H274.1C274.59 241.16 274.954 239.676 274.954 237.772V236.68H278.258V242.112ZM287.927 238.962C287.927 237.31 286.947 235.714 284.917 235.714C282.831 235.714 281.599 237.184 281.599 239.312C281.599 241.398 282.761 243.078 284.931 243.078C286.625 243.078 287.563 242.168 287.787 241.048H286.905C286.681 241.818 286.009 242.294 284.931 242.294C283.447 242.294 282.481 241.174 282.481 239.438V239.242H287.927V238.962ZM284.889 236.498C286.233 236.498 286.947 237.464 287.017 238.458H282.537C282.691 237.464 283.461 236.498 284.889 236.498ZM294.684 242.896H295.65L293.844 239.27L295.552 235.896H294.6L293.088 238.892H290.736V235.896H289.854V242.896H290.736V239.676H293.074L294.684 242.896ZM302.053 240.894C301.843 241.734 301.213 242.294 300.093 242.294C298.357 242.294 297.629 240.88 297.629 239.368C297.629 237.842 298.343 236.498 300.093 236.498C301.171 236.498 301.759 237.044 302.025 237.842H302.907C302.641 236.61 301.717 235.714 300.093 235.714C297.923 235.714 296.747 237.338 296.747 239.396C296.747 241.426 297.923 243.078 300.093 243.078C301.675 243.078 302.655 242.182 302.935 240.894H302.053ZM305.876 242.896V241.468H304.7V242.896H305.876ZM316.372 242.056V232.9H310.338V234.916C310.338 238.388 309.61 240.628 309.008 242.056H307.972V245.346H308.896V242.896H316.89V245.346H317.814V242.056H316.372ZM315.448 242.056H310.044C310.604 240.642 311.262 238.262 311.262 234.916V233.74H315.448V242.056ZM321.376 242.896L324.694 236.764H324.974V242.896H325.856V235.896H324.232L320.984 242.028H320.704V235.896H319.822V242.896H321.376ZM331.633 243.078C333.593 243.078 334.755 241.482 334.755 239.396C334.755 237.324 333.593 235.714 331.633 235.714C330.471 235.714 329.757 236.19 329.365 236.68H329.085V235.896H328.231V245.696H329.113V242.112H329.393C329.785 242.616 330.471 243.078 331.633 243.078ZM331.521 236.498C333.047 236.498 333.873 237.674 333.873 239.396C333.873 241.118 333.047 242.294 331.521 242.294C329.799 242.294 329.113 240.88 329.113 239.396C329.113 237.926 329.799 236.498 331.521 236.498ZM342.56 238.962C342.56 237.31 341.58 235.714 339.55 235.714C337.464 235.714 336.232 237.184 336.232 239.312C336.232 241.398 337.394 243.078 339.564 243.078C341.258 243.078 342.196 242.168 342.42 241.048H341.538C341.314 241.818 340.642 242.294 339.564 242.294C338.08 242.294 337.114 241.174 337.114 239.438V239.242H342.56V238.962ZM339.522 236.498C340.866 236.498 341.58 237.464 341.65 238.458H337.17C337.324 237.464 338.094 236.498 339.522 236.498ZM349.316 242.896H350.282L348.476 239.27L350.184 235.896H349.232L347.72 238.892H345.368V235.896H344.486V242.896H345.368V239.676H347.706L349.316 242.896ZM351.263 236.68H353.741V242.896H354.623V236.68H357.087V235.896H351.263V236.68Z" fill="#253640"/>
<g filter="url(#filter3_i)">
<rect x="49.5679" y="348.896" width="566" height="3" fill="black" fill-opacity="0.01"/>
</g>
<path d="M139.942 300.328V308.896H141.634L145.618 301.636H145.882V308.896H146.938V300.328H145.246L141.262 307.588H140.998V300.328H139.942ZM149.01 308.896H150.03V303.736H153.546V302.848H149.01V308.896ZM157.204 302.692C155.308 302.692 154.228 304.084 154.228 305.872C154.228 307.66 155.308 309.052 157.204 309.052C159.088 309.052 160.18 307.66 160.18 305.872C160.18 304.084 159.088 302.692 157.204 302.692ZM157.204 308.164C155.86 308.164 155.248 307.06 155.248 305.872C155.248 304.684 155.86 303.58 157.204 303.58C158.536 303.58 159.16 304.684 159.16 305.872C159.16 307.06 158.536 308.164 157.204 308.164ZM164.676 303.58C165.888 303.58 166.536 304.528 166.536 305.872C166.536 307.216 165.888 308.164 164.676 308.164C163.332 308.164 162.78 307.06 162.78 305.872C162.78 304.684 163.332 303.58 164.676 303.58ZM161.772 302.848V311.296H162.792V308.248H163.056C163.38 308.68 163.944 309.052 164.904 309.052C166.572 309.052 167.556 307.696 167.556 305.872C167.556 304.084 166.572 302.692 164.904 302.692C163.944 302.692 163.356 303.076 163.02 303.496H162.756V302.848H161.772ZM170.174 302.848H169.154V308.896H171.962C173.438 308.896 174.242 308.128 174.242 306.868C174.242 305.62 173.438 304.864 171.962 304.864H170.174V302.848ZM170.174 308.008V305.728H171.818C172.874 305.728 173.222 306.148 173.222 306.868C173.222 307.576 172.874 308.008 171.818 308.008H170.174Z" fill="#11142D"/>
<path d="M139.41 329.896H143.68V328.876H142.19V322.896H140.8L139.4 323.856V325.026L140.79 324.086H141.03V328.876H139.41V329.896ZM148.686 326.076C149.036 325.886 149.526 325.436 149.526 324.636C149.526 323.546 148.586 322.756 147.136 322.756C145.676 322.756 144.736 323.546 144.736 324.636C144.736 325.426 145.216 325.896 145.576 326.076V326.316C145.116 326.506 144.516 327.016 144.516 327.956C144.516 329.096 145.476 330.026 147.136 330.026C148.786 330.026 149.746 329.096 149.746 327.956C149.746 327.016 149.146 326.506 148.686 326.316V326.076ZM147.136 323.696C147.856 323.696 148.396 324.086 148.396 324.726C148.396 325.366 147.856 325.766 147.136 325.766C146.416 325.766 145.866 325.366 145.866 324.726C145.866 324.086 146.416 323.696 147.136 323.696ZM147.136 329.026C146.186 329.026 145.676 328.536 145.676 327.846C145.676 327.156 146.186 326.666 147.136 326.666C148.066 326.666 148.596 327.156 148.596 327.846C148.596 328.536 148.066 329.026 147.136 329.026ZM152.218 329.896V328.556H150.928V329.896H152.218ZM155.888 322.756C154.368 322.756 153.228 323.856 153.228 326.396C153.228 328.926 154.368 330.026 155.888 330.026C157.398 330.026 158.548 328.926 158.548 326.396C158.548 323.856 157.398 322.756 155.888 322.756ZM155.888 328.986C154.768 328.986 154.398 327.816 154.398 326.396C154.398 324.966 154.768 323.796 155.888 323.796C157.008 323.796 157.378 324.966 157.378 326.396C157.378 327.816 157.008 328.986 155.888 328.986ZM159.625 329.896H163.895V328.876H162.405V322.896H161.015L159.615 323.856V325.026L161.005 324.086H161.245V328.876H159.625V329.896ZM166.261 329.896V328.556H164.971V329.896H166.261ZM168.674 324.916C168.754 324.146 169.254 323.796 169.934 323.796C170.654 323.796 171.144 324.186 171.144 324.956C171.144 325.696 170.554 326.256 170.034 326.666L167.524 328.646V329.896H172.514V328.876H169.274V328.636L170.894 327.326C171.694 326.686 172.314 325.896 172.314 324.946C172.314 323.516 171.324 322.756 169.964 322.756C168.574 322.756 167.594 323.476 167.514 324.916H168.674ZM176.132 322.756C174.612 322.756 173.472 323.856 173.472 326.396C173.472 328.926 174.612 330.026 176.132 330.026C177.642 330.026 178.792 328.926 178.792 326.396C178.792 323.856 177.642 322.756 176.132 322.756ZM176.132 328.986C175.012 328.986 174.642 327.816 174.642 326.396C174.642 324.966 175.012 323.796 176.132 323.796C177.252 323.796 177.622 324.966 177.622 326.396C177.622 327.816 177.252 328.986 176.132 328.986ZM180.979 324.916C181.059 324.146 181.559 323.796 182.239 323.796C182.959 323.796 183.449 324.186 183.449 324.956C183.449 325.696 182.859 326.256 182.339 326.666L179.829 328.646V329.896H184.819V328.876H181.579V328.636L183.199 327.326C183.999 326.686 184.619 325.896 184.619 324.946C184.619 323.516 183.629 322.756 182.269 322.756C180.879 322.756 179.899 323.476 179.819 324.916H180.979ZM185.816 329.896H190.086V328.876H188.596V322.896H187.206L185.806 323.856V325.026L187.196 324.086H187.436V328.876H185.816V329.896Z" fill="#808191"/>
<path d="M338.439 309.693L340.827 304.101H340.3L339.11 306.921H338.918L337.6 304.101H337.056L338.75 307.72L337.927 309.693H338.439ZM340.973 308.095H341.109C342.012 308.095 342.387 307.488 342.387 305.595V304.548H344.321V308.095H344.824V304.101H341.916V305.595C341.916 307.184 341.676 307.632 341.109 307.632H340.973V308.095Z" fill="#11142D"/>
<path d="M553.271 304.348C552.759 304.348 552.44 304.508 552.16 304.764H552L552.144 302.966H554.805V302.503H551.713L551.465 305.387H552.016C552.272 305.003 552.671 304.812 553.223 304.812C554.054 304.812 554.557 305.443 554.557 306.25C554.557 307.184 553.998 307.736 553.191 307.736C552.456 307.736 551.944 307.352 551.857 306.585H551.337C551.401 307.504 552.024 308.199 553.215 308.199C554.333 308.199 555.076 307.424 555.076 306.218C555.076 305.219 554.453 304.348 553.271 304.348ZM556.693 308.095V307.28H556.022V308.095H556.693ZM559.552 302.391C558.402 302.391 557.547 303.294 557.547 305.299C557.547 307.304 558.402 308.199 559.552 308.199C560.703 308.199 561.557 307.304 561.557 305.299C561.557 303.294 560.703 302.391 559.552 302.391ZM559.552 307.736C558.586 307.736 558.066 306.889 558.066 305.299C558.066 303.709 558.586 302.854 559.552 302.854C560.519 302.854 561.038 303.709 561.038 305.299C561.038 306.889 560.519 307.736 559.552 307.736Z" fill="#7FBA7A"/>
<path d="M436.623 304.94V302.87C437.287 302.958 437.638 303.31 437.758 303.853H438.269C438.149 303.086 437.574 302.503 436.623 302.407V301.72H436.216V302.399C435.193 302.463 434.57 303.15 434.57 303.893C434.57 304.652 435.074 305.107 435.904 305.291L436.216 305.355V307.72C435.545 307.648 435.018 307.288 434.882 306.593H434.363C434.498 307.496 435.153 308.095 436.216 308.183V308.878H436.623V308.191C437.75 308.127 438.437 307.408 438.437 306.585C438.437 305.722 437.91 305.203 436.983 305.019L436.623 304.94ZM436.863 305.491C437.526 305.627 437.918 305.954 437.918 306.585C437.918 307.224 437.358 307.696 436.623 307.736V305.443L436.863 305.491ZM435.09 303.893C435.09 303.326 435.553 302.902 436.216 302.862V304.852L436.016 304.804C435.337 304.652 435.09 304.38 435.09 303.893ZM439.594 302.503V302.966H442.11V303.126L440.608 304.476V305.131C440.728 305.099 440.912 305.083 441.08 305.083C441.974 305.083 442.462 305.579 442.462 306.378C442.462 307.232 441.878 307.736 441.072 307.736C440.345 307.736 439.769 307.28 439.705 306.585H439.186C439.25 307.504 439.977 308.199 441.072 308.199C442.166 308.199 442.981 307.536 442.981 306.378C442.981 305.267 442.23 304.644 441.199 304.644V304.484L442.733 303.126V302.503H439.594ZM447.486 307.632H444.482V307.472L445.209 306.849C445.6 306.505 446.024 306.13 446.239 305.93C446.815 305.379 447.302 304.82 447.302 304.053C447.302 302.942 446.535 302.391 445.536 302.391C444.626 302.391 443.819 302.886 443.755 303.989H444.274C444.362 303.222 444.825 302.854 445.528 302.854C446.295 302.854 446.783 303.27 446.783 304.061C446.783 304.724 446.279 305.251 445.92 305.595C445.624 305.89 445.081 306.346 444.618 306.745L443.763 307.472V308.095H447.486V307.632ZM449.198 308.095V307.28H448.526V308.095H449.198ZM452.057 302.391C450.906 302.391 450.051 303.294 450.051 305.299C450.051 307.304 450.906 308.199 452.057 308.199C453.207 308.199 454.062 307.304 454.062 305.299C454.062 303.294 453.207 302.391 452.057 302.391ZM452.057 307.736C451.09 307.736 450.571 306.889 450.571 305.299C450.571 303.709 451.09 302.854 452.057 302.854C453.023 302.854 453.543 303.709 453.543 305.299C453.543 306.889 453.023 307.736 452.057 307.736ZM456.98 302.391C455.829 302.391 454.974 303.294 454.974 305.299C454.974 307.304 455.829 308.199 456.98 308.199C458.13 308.199 458.985 307.304 458.985 305.299C458.985 303.294 458.13 302.391 456.98 302.391ZM456.98 307.736C456.013 307.736 455.494 306.889 455.494 305.299C455.494 303.709 456.013 302.854 456.98 302.854C457.946 302.854 458.466 303.709 458.466 305.299C458.466 306.889 457.946 307.736 456.98 307.736Z" fill="#5F75EE"/>
<path d="M261.716 307.74V306.9H254.884V316.896H255.808V312.248H260.638V311.408H255.808V307.74H261.716ZM267.374 316.896H268.228V312.038C268.228 310.582 267.15 309.714 265.456 309.714C263.93 309.714 262.866 310.428 262.754 311.702H263.636C263.692 310.96 264.294 310.498 265.456 310.498C266.814 310.498 267.346 311.198 267.346 312.094V312.528H264.91C262.978 312.528 262.292 313.718 262.292 314.824C262.292 316 263.174 317.078 264.826 317.078C265.848 317.078 266.66 316.672 267.094 316.112H267.374V316.896ZM264.952 316.294C263.888 316.294 263.174 315.748 263.174 314.754C263.174 313.858 263.86 313.27 265.148 313.27H267.346V314.096C267.346 315.384 266.254 316.294 264.952 316.294ZM275.352 314.894C275.142 315.734 274.512 316.294 273.392 316.294C271.656 316.294 270.928 314.88 270.928 313.368C270.928 311.842 271.642 310.498 273.392 310.498C274.47 310.498 275.058 311.044 275.324 311.842H276.206C275.94 310.61 275.016 309.714 273.392 309.714C271.222 309.714 270.046 311.338 270.046 313.396C270.046 315.426 271.222 317.078 273.392 317.078C274.974 317.078 275.954 316.182 276.234 314.894H275.352ZM283.812 312.962C283.812 311.31 282.832 309.714 280.802 309.714C278.716 309.714 277.484 311.184 277.484 313.312C277.484 315.398 278.646 317.078 280.816 317.078C282.51 317.078 283.448 316.168 283.672 315.048H282.79C282.566 315.818 281.894 316.294 280.816 316.294C279.332 316.294 278.366 315.174 278.366 313.438V313.242H283.812V312.962ZM280.774 310.498C282.118 310.498 282.832 311.464 282.902 312.458H278.422C278.576 311.464 279.346 310.498 280.774 310.498ZM289.14 309.714C287.978 309.714 287.292 310.176 286.9 310.68H286.62V306.718H285.738V316.896H286.592V316.112H286.872C287.264 316.602 287.978 317.078 289.14 317.078C291.1 317.078 292.262 315.468 292.262 313.396C292.262 311.31 291.1 309.714 289.14 309.714ZM289.028 316.294C287.306 316.294 286.62 314.866 286.62 313.396C286.62 311.912 287.306 310.498 289.028 310.498C290.554 310.498 291.38 311.674 291.38 313.396C291.38 315.118 290.554 316.294 289.028 316.294ZM297.114 309.714C294.93 309.714 293.74 311.366 293.74 313.396C293.74 315.426 294.93 317.078 297.114 317.078C299.284 317.078 300.488 315.426 300.488 313.396C300.488 311.366 299.284 309.714 297.114 309.714ZM297.114 316.294C295.392 316.294 294.622 314.866 294.622 313.396C294.622 311.926 295.392 310.498 297.114 310.498C298.794 310.498 299.606 311.926 299.606 313.396C299.606 314.866 298.794 316.294 297.114 316.294ZM305.344 309.714C303.16 309.714 301.97 311.366 301.97 313.396C301.97 315.426 303.16 317.078 305.344 317.078C307.514 317.078 308.718 315.426 308.718 313.396C308.718 311.366 307.514 309.714 305.344 309.714ZM305.344 316.294C303.622 316.294 302.852 314.866 302.852 313.396C302.852 311.926 303.622 310.498 305.344 310.498C307.024 310.498 307.836 311.926 307.836 313.396C307.836 314.866 307.024 316.294 305.344 316.294ZM316.752 316.896L314.204 312.052L316.234 309.896H315.128L311.53 313.732V306.718H310.648V316.896H311.53V314.866L313.35 312.878H313.63L315.786 316.896H316.752Z" fill="#253640"/>
<path d="M145.444 380.46C145.168 381.456 144.388 382.068 143.188 382.068C141.196 382.068 140.32 380.436 140.32 378.612C140.32 376.8 141.208 375.156 143.2 375.156C144.388 375.156 145.024 375.66 145.348 376.572H146.488C146.14 375.096 144.94 374.172 143.2 374.172C140.656 374.172 139.228 376.068 139.228 378.612C139.228 381.156 140.632 383.052 143.188 383.052C145.072 383.052 146.236 381.984 146.584 380.46H145.444ZM152.017 382.896H152.977V378.78C152.977 377.424 152.005 376.692 150.481 376.692C149.125 376.692 148.165 377.34 148.081 378.456H149.101C149.149 377.928 149.605 377.58 150.505 377.58C151.561 377.58 151.981 378.108 151.981 378.84V379.08H150.013C148.333 379.08 147.697 380.112 147.697 381.084C147.697 382.116 148.477 383.052 149.869 383.052C150.733 383.052 151.381 382.728 151.753 382.26H152.017V382.896ZM150.121 382.164C149.221 382.164 148.717 381.732 148.717 381.048C148.717 380.328 149.173 379.896 150.169 379.896H151.981V380.448C151.981 381.408 151.129 382.164 150.121 382.164ZM161.589 376.848V382.008H159.213V376.848H158.217V382.008H155.841V376.848H154.845V382.896H162.585V376.848H161.589ZM168.4 382.896H169.36V378.78C169.36 377.424 168.388 376.692 166.864 376.692C165.508 376.692 164.548 377.34 164.464 378.456H165.484C165.532 377.928 165.988 377.58 166.888 377.58C167.944 377.58 168.364 378.108 168.364 378.84V379.08H166.396C164.716 379.08 164.08 380.112 164.08 381.084C164.08 382.116 164.86 383.052 166.252 383.052C167.116 383.052 167.764 382.728 168.136 382.26H168.4V382.896ZM166.504 382.164C165.604 382.164 165.1 381.732 165.1 381.048C165.1 380.328 165.556 379.896 166.552 379.896H168.364V380.448C168.364 381.408 167.512 382.164 166.504 382.164Z" fill="#11142D"/>
<path d="M140.238 399.052C140.318 398.282 140.818 397.932 141.498 397.932C142.218 397.932 142.708 398.322 142.708 399.092C142.708 399.832 142.118 400.392 141.598 400.802L139.088 402.782V404.032H144.078V403.012H140.838V402.772L142.458 401.462C143.258 400.822 143.878 400.032 143.878 399.082C143.878 397.652 142.888 396.892 141.528 396.892C140.138 396.892 139.158 397.612 139.078 399.052H140.238ZM146.185 399.052C146.265 398.282 146.765 397.932 147.445 397.932C148.165 397.932 148.655 398.322 148.655 399.092C148.655 399.832 148.065 400.392 147.545 400.802L145.035 402.782V404.032H150.025V403.012H146.785V402.772L148.405 401.462C149.205 400.822 149.825 400.032 149.825 399.082C149.825 397.652 148.835 396.892 147.475 396.892C146.085 396.892 145.105 397.612 145.025 399.052H146.185ZM152.482 404.032V402.692H151.192V404.032H152.482ZM156.152 396.892C154.632 396.892 153.492 397.992 153.492 400.532C153.492 403.062 154.632 404.162 156.152 404.162C157.662 404.162 158.812 403.062 158.812 400.532C158.812 397.992 157.662 396.892 156.152 396.892ZM156.152 403.122C155.032 403.122 154.662 401.952 154.662 400.532C154.662 399.102 155.032 397.932 156.152 397.932C157.272 397.932 157.642 399.102 157.642 400.532C157.642 401.952 157.272 403.122 156.152 403.122ZM159.89 404.032H164.16V403.012H162.67V397.032H161.28L159.88 397.992V399.162L161.27 398.222H161.51V403.012H159.89V404.032ZM166.525 404.032V402.692H165.235V404.032H166.525ZM168.939 399.052C169.019 398.282 169.519 397.932 170.199 397.932C170.919 397.932 171.409 398.322 171.409 399.092C171.409 399.832 170.819 400.392 170.299 400.802L167.789 402.782V404.032H172.779V403.012H169.539V402.772L171.159 401.462C171.959 400.822 172.579 400.032 172.579 399.082C172.579 397.652 171.589 396.892 170.229 396.892C168.839 396.892 167.859 397.612 167.779 399.052H168.939ZM176.396 396.892C174.876 396.892 173.736 397.992 173.736 400.532C173.736 403.062 174.876 404.162 176.396 404.162C177.906 404.162 179.056 403.062 179.056 400.532C179.056 397.992 177.906 396.892 176.396 396.892ZM176.396 403.122C175.276 403.122 174.906 401.952 174.906 400.532C174.906 399.102 175.276 397.932 176.396 397.932C177.516 397.932 177.886 399.102 177.886 400.532C177.886 401.952 177.516 403.122 176.396 403.122ZM181.244 399.052C181.324 398.282 181.824 397.932 182.504 397.932C183.224 397.932 183.714 398.322 183.714 399.092C183.714 399.832 183.124 400.392 182.604 400.802L180.094 402.782V404.032H185.084V403.012H181.844V402.772L183.464 401.462C184.264 400.822 184.884 400.032 184.884 399.082C184.884 397.652 183.894 396.892 182.534 396.892C181.144 396.892 180.164 397.612 180.084 399.052H181.244ZM186.081 404.032H190.351V403.012H188.861V397.032H187.471L186.071 397.992V399.162L187.461 398.222H187.701V403.012H186.081V404.032Z" fill="#808191"/>
<path d="M340.3 381.139H340.851L339.821 379.069L340.795 377.144H340.252L339.389 378.854H338.047V377.144H337.544V381.139H338.047V379.301H339.381L340.3 381.139ZM343.792 381.243C344.91 381.243 345.573 380.332 345.573 379.141C345.573 377.959 344.91 377.04 343.792 377.04C343.129 377.04 342.721 377.312 342.498 377.592H342.338V377.144H341.85V382.736H342.354V380.691H342.514C342.737 380.979 343.129 381.243 343.792 381.243ZM343.728 377.488C344.599 377.488 345.07 378.159 345.07 379.141C345.07 380.124 344.599 380.795 343.728 380.795C342.745 380.795 342.354 379.988 342.354 379.141C342.354 378.303 342.745 377.488 343.728 377.488Z" fill="#11142D"/>
<path d="M554.501 379.309V375.546H553.662L551.177 379.149V379.773H553.982V381.139H554.501V379.773H555.3V379.309H554.501ZM551.745 379.309V379.149L553.822 376.082H553.982V379.309H551.745ZM556.849 381.139V380.324H556.178V381.139H556.849ZM558.53 376.944C558.53 376.265 559.121 375.898 559.816 375.898C560.511 375.898 561.102 376.265 561.102 376.944C561.102 377.623 560.511 377.991 559.816 377.991C559.121 377.991 558.53 377.623 558.53 376.944ZM559.816 380.779C558.993 380.779 558.362 380.34 558.362 379.629C558.362 378.91 558.961 378.454 559.816 378.454C560.671 378.454 561.27 378.91 561.27 379.629C561.27 380.34 560.639 380.779 559.816 380.779ZM561.789 379.653C561.789 378.854 561.23 378.462 560.823 378.287V378.127C561.142 377.959 561.63 377.584 561.63 376.936C561.63 376.034 560.863 375.434 559.816 375.434C558.77 375.434 558.011 376.034 558.011 376.936C558.011 377.584 558.49 377.959 558.81 378.127V378.287C558.402 378.462 557.843 378.854 557.843 379.653C557.843 380.587 558.658 381.243 559.816 381.243C560.975 381.243 561.789 380.587 561.789 379.653Z" fill="#7FBA7A"/>
<path d="M436.623 377.983V375.914C437.287 376.002 437.638 376.353 437.758 376.896H438.269C438.149 376.13 437.574 375.546 436.623 375.45V374.763H436.216V375.442C435.193 375.506 434.57 376.193 434.57 376.936C434.57 377.695 435.074 378.151 435.904 378.335L436.216 378.398V380.763C435.545 380.691 435.018 380.332 434.882 379.637H434.363C434.498 380.539 435.153 381.139 436.216 381.227V381.922H436.623V381.235C437.75 381.171 438.437 380.452 438.437 379.629C438.437 378.766 437.91 378.247 436.983 378.063L436.623 377.983ZM436.863 378.534C437.526 378.67 437.918 378.998 437.918 379.629C437.918 380.268 437.358 380.739 436.623 380.779V378.486L436.863 378.534ZM435.09 376.936C435.09 376.369 435.553 375.946 436.216 375.906V377.895L436.016 377.847C435.337 377.695 435.09 377.424 435.09 376.936ZM441.447 377.528C440.752 377.528 440.281 377.855 440.073 378.103H439.913C439.953 376.793 440.496 375.898 441.487 375.898C442.07 375.898 442.398 376.185 442.558 376.705H443.077C442.925 375.978 442.398 375.434 441.479 375.434C440.049 375.434 439.402 376.825 439.402 378.518C439.402 380.524 440.225 381.243 441.391 381.243C442.55 381.243 443.229 380.404 443.229 379.341C443.229 378.287 442.47 377.528 441.447 377.528ZM441.383 380.779C440.632 380.779 440.033 380.26 440.033 379.365C440.033 378.494 440.624 377.991 441.367 377.991C442.126 377.991 442.709 378.462 442.709 379.373C442.709 380.284 442.142 380.779 441.383 380.779ZM444.707 376.944C444.707 376.265 445.298 375.898 445.993 375.898C446.688 375.898 447.279 376.265 447.279 376.944C447.279 377.623 446.688 377.991 445.993 377.991C445.298 377.991 444.707 377.623 444.707 376.944ZM445.993 380.779C445.17 380.779 444.539 380.34 444.539 379.629C444.539 378.91 445.138 378.454 445.993 378.454C446.848 378.454 447.447 378.91 447.447 379.629C447.447 380.34 446.816 380.779 445.993 380.779ZM447.967 379.653C447.967 378.854 447.407 378.462 447 378.287V378.127C447.319 377.959 447.807 377.584 447.807 376.936C447.807 376.034 447.04 375.434 445.993 375.434C444.947 375.434 444.188 376.034 444.188 376.936C444.188 377.584 444.667 377.959 444.987 378.127V378.287C444.579 378.462 444.02 378.854 444.02 379.653C444.02 380.587 444.835 381.243 445.993 381.243C447.152 381.243 447.967 380.587 447.967 379.653ZM449.572 381.139V380.324H448.901V381.139H449.572ZM452.431 375.434C451.281 375.434 450.426 376.337 450.426 378.342C450.426 380.348 451.281 381.243 452.431 381.243C453.582 381.243 454.436 380.348 454.436 378.342C454.436 376.337 453.582 375.434 452.431 375.434ZM452.431 380.779C451.464 380.779 450.945 379.932 450.945 378.342C450.945 376.753 451.464 375.898 452.431 375.898C453.398 375.898 453.917 376.753 453.917 378.342C453.917 379.932 453.398 380.779 452.431 380.779ZM457.354 375.434C456.204 375.434 455.349 376.337 455.349 378.342C455.349 380.348 456.204 381.243 457.354 381.243C458.504 381.243 459.359 380.348 459.359 378.342C459.359 376.337 458.504 375.434 457.354 375.434ZM457.354 380.779C456.387 380.779 455.868 379.932 455.868 378.342C455.868 376.753 456.387 375.898 457.354 375.898C458.321 375.898 458.84 376.753 458.84 378.342C458.84 379.932 458.321 380.779 457.354 380.779Z" fill="#5F75EE"/>
<path d="M257.152 390.896H259.126L262.416 380.9H261.45L258.51 389.916H257.782L254.842 380.9H253.862L257.152 390.896ZM267.956 388.894C267.746 389.734 267.116 390.294 265.996 390.294C264.26 390.294 263.532 388.88 263.532 387.368C263.532 385.842 264.246 384.498 265.996 384.498C267.074 384.498 267.662 385.044 267.928 385.842H268.81C268.544 384.61 267.62 383.714 265.996 383.714C263.826 383.714 262.65 385.338 262.65 387.396C262.65 389.426 263.826 391.078 265.996 391.078C267.578 391.078 268.558 390.182 268.838 388.894H267.956ZM271.778 390.896V389.468H270.602V390.896H271.778ZM277.786 383.896H277.31C276.358 383.896 275.63 384.26 275.224 384.75H274.944V383.896H274.09V390.896H274.972V387.2C274.972 385.59 275.91 384.708 277.254 384.708H277.786V383.896ZM279.283 383.896V388.404C279.283 390.042 280.291 391.078 281.985 391.078C282.951 391.078 283.791 390.658 284.169 390.112H284.449V390.896H285.303V383.896H284.421V387.732C284.421 389.09 283.483 390.294 282.111 390.294C280.809 390.294 280.165 389.594 280.165 388.194V383.896H279.283Z" fill="#253640"/>
<rect x="49.9211" y="126.9" width="568.38" height="0.570648" fill="#E4E4E4"/>
<path d="M69.7079 110.972V111.896H69.9459C72.0039 111.896 72.8299 110.608 72.8299 105.652V102.74H77.2819V111.896H78.2059V101.9H71.9339V105.652C71.9339 110.104 71.2759 110.972 69.9459 110.972H69.7079ZM82.265 111.896L85.583 105.764H85.863V111.896H86.745V104.896H85.121L81.873 111.028H81.593V104.896H80.711V111.896H82.265ZM95.1532 111.112V104.896H90.1272V106.772C90.1272 108.676 89.6512 110.16 89.1612 111.112H88.2792V113.898H89.1612V111.896H95.5732V113.898H96.4552V111.112H95.1532ZM94.2712 111.112H90.1132C90.6032 110.16 90.9672 108.676 90.9672 106.772V105.68H94.2712V111.112Z" fill="#B2B3BD"/>
<path d="M142.884 101.9V111.896H144.508L149.632 102.88H149.912V111.896H150.836V101.9H149.212L144.102 110.916H143.808V101.9H142.884ZM153.34 111.896H154.222V105.764H154.474L156.308 109.096H157.484L159.304 105.764H159.556V111.896H160.438V104.896H158.87L157.05 108.284H156.77L154.908 104.896H153.34V111.896ZM164.957 104.896C163.459 104.896 162.661 105.652 162.661 106.926C162.661 107.808 163.025 108.41 163.753 108.732L162.535 111.896H163.459L164.593 108.928C164.705 108.942 164.831 108.942 164.957 108.942H167.519V111.896H168.401V104.896H164.957ZM167.519 105.68V108.158H165.041C163.921 108.158 163.543 107.668 163.543 106.926C163.543 106.184 163.935 105.68 165.041 105.68H167.519Z" fill="#B2B3BD"/>
<path d="M219.884 101.9V111.896H221.508L226.632 102.88H226.912V111.896H227.836V101.9H226.212L221.102 110.916H220.808V101.9H219.884ZM235.198 109.894C234.988 110.734 234.358 111.294 233.238 111.294C231.502 111.294 230.774 109.88 230.774 108.368C230.774 106.842 231.488 105.498 233.238 105.498C234.316 105.498 234.904 106.044 235.17 106.842H236.052C235.786 105.61 234.862 104.714 233.238 104.714C231.068 104.714 229.892 106.338 229.892 108.396C229.892 110.426 231.068 112.078 233.238 112.078C234.82 112.078 235.8 111.182 236.08 109.894H235.198ZM237.144 105.68H239.622V111.896H240.504V105.68H242.968V104.896H237.144V105.68ZM247.362 104.714C245.178 104.714 243.988 106.366 243.988 108.396C243.988 110.426 245.178 112.078 247.362 112.078C249.532 112.078 250.736 110.426 250.736 108.396C250.736 106.366 249.532 104.714 247.362 104.714ZM247.362 111.294C245.64 111.294 244.87 109.866 244.87 108.396C244.87 106.926 245.64 105.498 247.362 105.498C249.042 105.498 249.854 106.926 249.854 108.396C249.854 109.866 249.042 111.294 247.362 111.294ZM252.26 104.896V106.828C252.26 108.004 252.358 109.194 254.99 109.194C255.592 109.194 256.418 109.11 257.02 108.984V111.896H257.902V104.896H257.02V108.2C256.446 108.326 255.802 108.41 255.088 108.41C253.128 108.41 253.142 107.612 253.142 106.856V104.896H252.26ZM266.315 111.896V104.896H265.433V107.892H261.163V104.896H260.281V111.896H261.163V108.676H265.433V111.896H266.315ZM270.244 111.896L273.562 105.764H273.842V111.896H274.724V104.896H273.1L269.852 111.028H269.572V104.896H268.69V111.896H270.244ZM281.928 111.896H282.894L281.088 108.27L282.796 104.896H281.844L280.332 107.892H277.98V104.896H277.098V111.896H277.98V108.676H280.318L281.928 111.896Z" fill="#B2B3BD"/>
<path d="M401.582 104.448C401.582 105.386 401.064 106.24 399.496 106.24H397.83V107.08H399.482C401.33 107.08 401.988 107.92 401.988 109.11C401.988 110.426 400.896 111.238 399.286 111.238C397.704 111.238 396.584 110.608 396.234 109.278H395.268C395.604 110.944 396.906 112.078 399.272 112.078C401.68 112.078 402.912 110.622 402.912 109.11C402.912 107.682 402.17 107.038 401.358 106.66V106.38C401.988 106.044 402.506 105.442 402.506 104.322C402.506 102.964 401.414 101.718 399.174 101.718C397.2 101.718 395.926 102.74 395.702 104.322H396.64C396.906 103.258 397.634 102.558 399.202 102.558C400.56 102.558 401.582 103.258 401.582 104.448ZM409.303 111.896H410.157V107.038C410.157 105.582 409.079 104.714 407.385 104.714C405.859 104.714 404.795 105.428 404.683 106.702H405.565C405.621 105.96 406.223 105.498 407.385 105.498C408.743 105.498 409.275 106.198 409.275 107.094V107.528H406.839C404.907 107.528 404.221 108.718 404.221 109.824C404.221 111 405.103 112.078 406.755 112.078C407.777 112.078 408.589 111.672 409.023 111.112H409.303V111.896ZM406.881 111.294C405.817 111.294 405.103 110.748 405.103 109.754C405.103 108.858 405.789 108.27 407.077 108.27H409.275V109.096C409.275 110.384 408.183 111.294 406.881 111.294ZM418.402 111.896V104.896H412.424V111.896H413.306V105.68H417.52V111.896H418.402ZM424.179 112.078C426.139 112.078 427.301 110.482 427.301 108.396C427.301 106.324 426.139 104.714 424.179 104.714C423.017 104.714 422.303 105.19 421.911 105.68H421.631V104.896H420.777V114.696H421.659V111.112H421.939C422.331 111.616 423.017 112.078 424.179 112.078ZM424.067 105.498C425.593 105.498 426.419 106.674 426.419 108.396C426.419 110.118 425.593 111.294 424.067 111.294C422.345 111.294 421.659 109.88 421.659 108.396C421.659 106.926 422.345 105.498 424.067 105.498ZM432.153 104.714C429.969 104.714 428.779 106.366 428.779 108.396C428.779 110.426 429.969 112.078 432.153 112.078C434.323 112.078 435.527 110.426 435.527 108.396C435.527 106.366 434.323 104.714 432.153 104.714ZM432.153 111.294C430.431 111.294 429.661 109.866 429.661 108.396C429.661 106.926 430.431 105.498 432.153 105.498C433.833 105.498 434.645 106.926 434.645 108.396C434.645 109.866 433.833 111.294 432.153 111.294ZM442.315 109.894C442.105 110.734 441.475 111.294 440.355 111.294C438.619 111.294 437.891 109.88 437.891 108.368C437.891 106.842 438.605 105.498 440.355 105.498C441.433 105.498 442.021 106.044 442.287 106.842H443.169C442.903 105.61 441.979 104.714 440.355 104.714C438.185 104.714 437.009 106.338 437.009 108.396C437.009 110.426 438.185 112.078 440.355 112.078C441.937 112.078 442.917 111.182 443.197 109.894H442.315Z" fill="#B2B3BD"/>
<path d="M529.884 101.9V111.896H530.808V102.74H536.772V111.896H537.696V101.9H529.884ZM543.605 112.078C545.565 112.078 546.727 110.482 546.727 108.396C546.727 106.324 545.565 104.714 543.605 104.714C542.443 104.714 541.729 105.19 541.337 105.68H541.057V104.896H540.203V114.696H541.085V111.112H541.365C541.757 111.616 542.443 112.078 543.605 112.078ZM543.493 105.498C545.019 105.498 545.845 106.674 545.845 108.396C545.845 110.118 545.019 111.294 543.493 111.294C541.771 111.294 541.085 109.88 541.085 108.396C541.085 106.926 541.771 105.498 543.493 105.498ZM550.206 111.896L553.524 105.764H553.804V111.896H554.686V104.896H553.062L549.814 111.028H549.534V104.896H548.652V111.896H550.206ZM560.113 104.896C559.147 104.896 558.405 105.148 557.789 105.932H557.523C557.677 104.77 558.013 103.664 559.399 103.44L561.485 103.104C562.507 102.936 562.801 102.488 562.857 101.718H561.975C561.933 102.124 561.807 102.208 561.303 102.278L559.385 102.586C556.907 102.992 556.613 105.47 556.613 107.878C556.613 110.552 557.845 112.078 560.029 112.078C562.199 112.078 563.417 110.468 563.417 108.494C563.417 106.506 562.283 104.896 560.113 104.896ZM560.001 111.294C558.293 111.294 557.495 109.908 557.495 108.494C557.495 107.066 558.293 105.68 560.001 105.68C561.695 105.68 562.507 107.066 562.507 108.494C562.507 109.908 561.695 111.294 560.001 111.294ZM566.228 104.896H565.346V111.896H568.3C569.966 111.896 570.876 111.028 570.876 109.614C570.876 108.2 569.966 107.346 568.3 107.346H566.228V104.896ZM566.228 111.112V108.13H568.188C569.532 108.13 569.994 108.718 569.994 109.628C569.994 110.524 569.532 111.112 568.188 111.112H566.228ZM572.906 104.896H572.024V111.896H572.906V104.896ZM574.459 111.896H574.697C576.279 111.896 576.937 110.832 576.937 107.514V105.68H580.325V111.896H581.207V104.896H576.111V107.514C576.111 110.3 575.691 111.084 574.697 111.084H574.459V111.896ZM584.466 104.896H583.584V111.896H586.678C588.344 111.896 589.254 111.028 589.254 109.614C589.254 108.2 588.344 107.346 586.678 107.346H584.466V104.896ZM584.466 111.112V108.13H586.566C587.91 108.13 588.372 108.718 588.372 109.628C588.372 110.524 587.91 111.112 586.566 111.112H584.466Z" fill="#B2B3BD"/>
<path d="M83.6079 57.1355C84.6479 56.5755 85.1679 55.5155 85.1679 54.2355C85.1679 52.2755 83.6279 50.6155 80.6079 50.6155H74.3879V64.8955H80.7679C84.0279 64.8955 85.6079 63.1555 85.6079 60.8755C85.6079 59.4155 84.8079 58.1355 83.6079 57.5755V57.1355ZM76.1879 52.2155H80.5279C81.9679 52.2155 83.3479 52.7755 83.3479 54.3955C83.3479 56.1555 82.1479 56.6755 80.5679 56.6755H76.1879V52.2155ZM76.1879 63.2955V58.2555H80.6679C82.3479 58.2555 83.7879 58.8955 83.7879 60.7355C83.7879 62.7155 82.2679 63.2955 80.6479 63.2955H76.1879ZM95.0513 61.8555C94.7913 62.9755 93.9513 63.6755 92.5113 63.6755C90.2513 63.6755 89.3113 61.8355 89.3113 59.8155C89.3113 57.8155 90.2313 56.0355 92.5113 56.0355C93.8913 56.0355 94.6713 56.7155 94.9913 57.7355H96.6913C96.3513 55.8755 94.9113 54.5555 92.5113 54.5555C89.3713 54.5555 87.6113 56.8155 87.6113 59.8555C87.6113 62.8355 89.3713 65.1555 92.5113 65.1555C94.8513 65.1555 96.3713 63.8355 96.7513 61.8555H95.0513ZM108.026 59.2555C107.966 56.7755 106.526 54.5555 103.526 54.5555C100.466 54.5555 98.666 56.6555 98.666 59.7555C98.666 62.8555 100.426 65.1555 103.566 65.1555C106.066 65.1555 107.526 63.8355 107.846 62.1155H106.126C105.826 63.0755 104.986 63.6755 103.566 63.6755C101.486 63.6755 100.406 62.2355 100.346 59.8355H108.026V59.2555ZM103.486 56.0355C105.186 56.0355 106.166 57.1355 106.266 58.4155H100.446C100.666 57.1355 101.666 56.0355 103.486 56.0355ZM115.099 64.8955H115.439C117.919 64.8955 118.999 63.3955 118.999 58.7555V56.2955H123.419V64.8955H125.139V54.8155H117.419V58.7155C117.419 62.2955 116.799 63.2955 115.439 63.2955H115.099V64.8955ZM130.807 64.8955L135.307 57.0955H135.747V64.8955H137.407V54.8155H134.927L130.507 62.6155H130.067V54.8155H128.407V64.8955H130.807ZM149.672 63.4155V54.8155H142.072V57.5755C142.072 60.0755 141.472 62.0555 140.832 63.4155H139.492V67.7555H141.152V64.8955H149.872V67.7555H151.532V63.4155H149.672ZM147.972 63.4155H142.552C143.172 62.0555 143.652 60.1155 143.652 57.5755V56.2955H147.972V63.4155ZM153.739 54.8155V64.8955H158.219C160.679 64.8955 162.019 63.6155 162.019 61.5155C162.019 59.4355 160.679 58.1755 158.219 58.1755H155.439V54.8155H153.739ZM155.439 59.6155H157.979C159.739 59.6155 160.319 60.3155 160.319 61.5155C160.319 62.6955 159.739 63.4155 157.979 63.4155H155.439V59.6155ZM163.639 54.8155V64.8955H165.339V54.8155H163.639ZM179.968 57.5755C179.968 58.3555 179.448 59.0155 178.008 59.0155H176.308V60.4955H178.088C179.748 60.4955 180.308 61.0755 180.308 62.0555C180.308 63.1555 179.268 63.6755 177.828 63.6755C176.448 63.6755 175.308 63.2955 174.928 62.0355H173.288C173.588 63.9355 175.048 65.1555 177.828 65.1555C180.548 65.1555 182.008 63.7755 182.008 62.1155C182.008 60.7355 181.308 60.0555 180.568 59.8355V59.3955C181.148 59.1755 181.648 58.4755 181.648 57.3555C181.648 55.8355 180.288 54.5555 177.788 54.5555C175.448 54.5555 173.868 55.6755 173.688 57.5955H175.308C175.548 56.4955 176.308 56.0355 177.748 56.0355C179.048 56.0355 179.968 56.5555 179.968 57.5755ZM191.155 64.8955H192.755V58.0355C192.755 55.7755 191.135 54.5555 188.595 54.5555C186.335 54.5555 184.735 55.6355 184.595 57.4955H186.295C186.375 56.6155 187.135 56.0355 188.635 56.0355C190.395 56.0355 191.095 56.9155 191.095 58.1355V58.5355H187.815C185.015 58.5355 183.955 60.2555 183.955 61.8755C183.955 63.5955 185.255 65.1555 187.575 65.1555C189.015 65.1555 190.095 64.6155 190.715 63.8355H191.155V64.8955ZM187.995 63.6755C186.495 63.6755 185.655 62.9555 185.655 61.8155C185.655 60.6155 186.415 59.8955 188.075 59.8955H191.095V60.8155C191.095 62.4155 189.675 63.6755 187.995 63.6755ZM210.414 64.8955V54.8155H208.714V58.9755H203.134V54.8155H201.434V64.8955H203.134V60.4555H208.714V64.8955H210.414ZM222.44 59.2555C222.38 56.7755 220.94 54.5555 217.94 54.5555C214.88 54.5555 213.08 56.6555 213.08 59.7555C213.08 62.8555 214.84 65.1555 217.98 65.1555C220.48 65.1555 221.94 63.8355 222.26 62.1155H220.54C220.24 63.0755 219.4 63.6755 217.98 63.6755C215.9 63.6755 214.82 62.2355 214.76 59.8355H222.44V59.2555ZM217.9 56.0355C219.6 56.0355 220.58 57.1355 220.68 58.4155H214.86C215.08 57.1355 216.08 56.0355 217.9 56.0355ZM234.067 63.4155V54.8155H226.467V57.5755C226.467 60.0755 225.867 62.0555 225.227 63.4155H223.887V67.7555H225.547V64.8955H234.267V67.7555H235.927V63.4155H234.067ZM232.367 63.4155H226.947C227.567 62.0555 228.047 60.1155 228.047 57.5755V56.2955H232.367V63.4155ZM246.874 59.2555C246.814 56.7755 245.374 54.5555 242.374 54.5555C239.314 54.5555 237.514 56.6555 237.514 59.7555C237.514 62.8555 239.274 65.1555 242.414 65.1555C244.914 65.1555 246.374 63.8355 246.694 62.1155H244.974C244.674 63.0755 243.834 63.6755 242.414 63.6755C240.334 63.6755 239.254 62.2355 239.194 59.8355H246.874V59.2555ZM242.334 56.0355C244.034 56.0355 245.014 57.1355 245.114 58.4155H239.294C239.514 57.1355 240.514 56.0355 242.334 56.0355ZM248.38 64.8955H248.72C251.2 64.8955 252.28 63.3955 252.28 58.7555V56.2955H256.7V64.8955H258.42V54.8155H250.7V58.7155C250.7 62.2955 250.08 63.2955 248.72 63.2955H248.38V64.8955ZM270.508 54.5555C267.788 54.5555 266.048 56.4155 265.728 58.9755H263.368V54.8155H261.688V64.8955H263.368V60.4555H265.668C265.888 63.1155 267.668 65.1555 270.508 65.1555C273.568 65.1555 275.388 62.8155 275.388 59.8555C275.388 56.8955 273.568 54.5555 270.508 54.5555ZM270.508 63.6755C268.328 63.6755 267.328 61.8355 267.328 59.8555C267.328 57.8755 268.328 56.0355 270.508 56.0355C272.668 56.0355 273.688 57.8755 273.688 59.8555C273.688 61.8355 272.668 63.6755 270.508 63.6755Z" fill="#253640"/>
<rect opacity="0.5" x="259.568" y="308.896" width="365" height="214" rx="17.3396" fill="white"/>
<g filter="url(#filter4_d)">
<rect x="253.568" y="256.896" width="377" height="254" rx="17.6248" fill="white"/>
</g>
<path d="M301.486 289.637C302.326 289.184 302.746 288.328 302.746 287.294C302.746 285.711 301.502 284.37 299.063 284.37H294.038V295.905H299.192C301.825 295.905 303.102 294.5 303.102 292.658C303.102 291.479 302.455 290.445 301.486 289.992V289.637ZM295.492 285.662H298.998C300.161 285.662 301.276 286.115 301.276 287.423C301.276 288.845 300.307 289.265 299.03 289.265H295.492V285.662ZM295.492 294.613V290.541H299.111C300.468 290.541 301.631 291.058 301.631 292.545C301.631 294.144 300.404 294.613 299.095 294.613H295.492ZM310.73 293.45C310.52 294.354 309.841 294.92 308.678 294.92C306.853 294.92 306.093 293.433 306.093 291.802C306.093 290.186 306.836 288.748 308.678 288.748C309.793 288.748 310.423 289.297 310.682 290.121H312.055C311.78 288.619 310.617 287.553 308.678 287.553C306.142 287.553 304.72 289.378 304.72 291.834C304.72 294.241 306.142 296.115 308.678 296.115C310.568 296.115 311.796 295.049 312.103 293.45H310.73ZM321.211 291.349C321.163 289.346 319.999 287.553 317.576 287.553C315.104 287.553 313.65 289.249 313.65 291.753C313.65 294.257 315.072 296.115 317.608 296.115C319.628 296.115 320.807 295.049 321.066 293.66H319.676C319.434 294.435 318.755 294.92 317.608 294.92C315.928 294.92 315.056 293.757 315.007 291.818H321.211V291.349ZM317.544 288.748C318.917 288.748 319.708 289.637 319.789 290.671H315.088C315.266 289.637 316.073 288.748 317.544 288.748ZM326.925 295.905H327.199C329.203 295.905 330.075 294.694 330.075 290.945V288.958H333.646V295.905H335.035V287.763H328.799V290.913C328.799 293.805 328.298 294.613 327.199 294.613H326.925V295.905ZM339.614 295.905L343.249 289.604H343.604V295.905H344.945V287.763H342.942L339.371 294.063H339.016V287.763H337.675V295.905H339.614ZM354.853 294.71V287.763H348.714V289.992C348.714 292.012 348.229 293.611 347.712 294.71H346.629V298.216H347.97V295.905H355.014V298.216H356.355V294.71H354.853ZM353.48 294.71H349.101C349.602 293.611 349.99 292.044 349.99 289.992V288.958H353.48V294.71ZM358.138 287.763V295.905H361.757C363.744 295.905 364.827 294.871 364.827 293.175C364.827 291.495 363.744 290.477 361.757 290.477H359.511V287.763H358.138ZM359.511 291.64H361.563C362.985 291.64 363.453 292.206 363.453 293.175C363.453 294.128 362.985 294.71 361.563 294.71H359.511V291.64ZM366.135 287.763V295.905H367.509V287.763H366.135ZM380.166 293.45C379.956 294.354 379.278 294.92 378.114 294.92C376.289 294.92 375.529 293.433 375.529 291.802C375.529 290.186 376.273 288.748 378.114 288.748C379.229 288.748 379.859 289.297 380.118 290.121H381.491C381.216 288.619 380.053 287.553 378.114 287.553C375.578 287.553 374.156 289.378 374.156 291.834C374.156 294.241 375.578 296.115 378.114 296.115C380.005 296.115 381.233 295.049 381.539 293.45H380.166ZM391.993 288.748C393.625 288.748 394.498 290.024 394.498 291.834C394.498 293.643 393.625 294.92 391.993 294.92C390.184 294.92 389.441 293.433 389.441 291.834C389.441 290.235 390.184 288.748 391.993 288.748ZM388.084 287.763V299.136H389.457V295.033H389.812C390.248 295.614 391.008 296.115 392.3 296.115C394.546 296.115 395.871 294.29 395.871 291.834C395.871 289.427 394.546 287.553 392.3 287.553C391.008 287.553 390.216 288.07 389.764 288.635H389.408V287.763H388.084ZM405.083 291.349C405.035 289.346 403.872 287.553 401.448 287.553C398.977 287.553 397.522 289.249 397.522 291.753C397.522 294.257 398.944 296.115 401.481 296.115C403.5 296.115 404.68 295.049 404.938 293.66H403.549C403.306 294.435 402.628 294.92 401.481 294.92C399.8 294.92 398.928 293.757 398.88 291.818H405.083V291.349ZM401.416 288.748C402.789 288.748 403.581 289.637 403.662 290.671H398.96C399.138 289.637 399.946 288.748 401.416 288.748ZM412.844 295.905H414.314L412.214 291.689L414.201 287.763H412.763L411.067 291.123H408.595V287.763H407.222V295.905H408.595V292.319H411.034L412.844 295.905ZM415.341 295.905H415.616C417.619 295.905 418.491 294.694 418.491 290.945V288.958H422.062V295.905H423.451V287.763H417.215V290.913C417.215 293.805 416.714 294.613 415.616 294.613H415.341V295.905ZM431.277 295.905H432.57V290.364C432.57 288.538 431.261 287.553 429.209 287.553C427.384 287.553 426.091 288.425 425.978 289.928H427.351C427.416 289.217 428.03 288.748 429.242 288.748C430.663 288.748 431.229 289.459 431.229 290.445V290.768H428.579C426.317 290.768 425.461 292.157 425.461 293.466C425.461 294.855 426.511 296.115 428.385 296.115C429.549 296.115 430.421 295.679 430.922 295.049H431.277V295.905ZM428.725 294.92C427.513 294.92 426.834 294.338 426.834 293.417C426.834 292.448 427.448 291.866 428.789 291.866H431.229V292.609C431.229 293.902 430.082 294.92 428.725 294.92ZM435.084 295.905H436.425V289.362H436.781L438.671 292.852H440.19L442.08 289.362H442.435V295.905H443.776V287.763H441.628L439.624 291.479H439.269L437.265 287.763H435.084V295.905ZM446.428 287.763V295.905H450.047C452.034 295.905 453.117 294.871 453.117 293.175C453.117 291.495 452.034 290.477 450.047 290.477H447.802V287.763H446.428ZM447.802 291.64H449.853C451.275 291.64 451.744 292.206 451.744 293.175C451.744 294.128 451.275 294.71 449.853 294.71H447.802V291.64ZM454.426 287.763V295.905H455.799V287.763H454.426Z" fill="#253640"/>
<circle opacity="0.5" cx="509.871" cy="393.953" r="71.9678" stroke="#E4E4E4" stroke-width="23.4997"/>
<path d="M536.061 314.437C553.083 320.043 567.857 330.965 578.209 345.594C588.562 360.223 593.946 377.789 593.571 395.707L570.255 395.218C570.526 382.292 566.642 369.619 559.173 359.065C551.704 348.511 541.046 340.632 528.765 336.587L536.061 314.437Z" fill="#A0D7E7"/>
<path d="M590.855 372.733C595.397 390.07 594.256 408.407 587.6 425.046C580.943 441.686 569.123 455.751 553.877 465.172L541.618 445.333C552.617 438.536 561.145 428.39 565.948 416.385C570.75 404.38 571.573 391.151 568.296 378.644L590.855 372.733Z" fill="#006B8F"/>
<path d="M586.856 426.845C581.858 438.544 574.258 448.951 564.635 457.273C555.013 465.596 543.62 471.616 531.322 474.876C519.024 478.136 506.145 478.55 493.663 476.087C481.182 473.624 469.425 468.348 459.288 460.661L473.378 442.079C480.692 447.624 489.173 451.43 498.178 453.207C507.183 454.984 516.474 454.685 525.346 452.334C534.219 449.982 542.438 445.639 549.38 439.635C556.322 433.63 561.805 426.123 565.411 417.682L586.856 426.845Z" fill="#FFB7F5"/>
<path d="M586.856 426.845C581.858 438.544 574.258 448.951 564.635 457.273C555.013 465.596 543.62 471.616 531.322 474.876C519.024 478.136 506.145 478.55 493.663 476.087C481.182 473.624 469.425 468.348 459.288 460.661L473.378 442.079C480.692 447.624 489.173 451.43 498.178 453.207C507.183 454.984 516.474 454.685 525.346 452.334C534.219 449.982 542.438 445.639 549.38 439.635C556.322 433.63 561.805 426.123 565.411 417.682L586.856 426.845Z" fill="url(#paint0_linear)"/>
<rect x="530.368" y="454.696" width="13.7143" height="9.6" fill="#FFCC00"/>
<rect width="2.74286" height="4.11429" transform="matrix(1 0 0 -1 530.368 468.41)" fill="#FFCC00"/>
<rect width="2.74286" height="4.11429" transform="matrix(1 0 0 -1 533.796 468.41)" fill="#FFCC00"/>
<rect width="2.74286" height="1.37143" transform="matrix(1 0 0 -1 537.226 465.667)" fill="#FFCC00"/>
<path d="M542.026 467.724H544.769L544.083 464.296H541.34L542.026 467.724Z" fill="#EFB30D"/>
<rect x="533.111" y="458.125" width="8.22857" height="0.685714" fill="#030003"/>
<rect x="533.111" y="459.496" width="8.22857" height="0.685714" fill="#030003"/>
<rect x="533.111" y="460.867" width="4.8" height="0.685714" fill="#030003"/>
<path d="M474.429 387.847C475.024 387.53 475.394 386.829 475.394 385.983C475.394 384.635 474.363 383.485 472.288 383.485H467.86V392.923H472.407C474.641 392.923 475.659 391.76 475.659 390.187C475.659 389.248 475.104 388.495 474.429 388.191V387.847ZM469.829 387.226V385.124H472.037C472.923 385.124 473.372 385.468 473.372 386.168C473.372 386.869 472.936 387.226 472.05 387.226H469.829ZM469.829 391.244V388.878H472.143C473.134 388.878 473.636 389.275 473.636 390.081C473.636 390.874 473.108 391.244 472.116 391.244H469.829ZM481.629 390.636C481.523 391.218 481.1 391.561 480.36 391.561C479.223 391.561 478.773 390.623 478.773 389.512C478.773 388.415 479.21 387.503 480.36 387.503C481.034 387.503 481.417 387.781 481.563 388.296H483.4C483.228 386.908 482.052 385.957 480.347 385.957C478.245 385.957 476.923 387.384 476.923 389.526C476.923 391.68 478.245 393.095 480.347 393.095C482.052 393.095 483.281 392.103 483.453 390.636H481.629ZM491.331 389.182C491.292 387.331 490.115 385.957 488.053 385.957C485.951 385.957 484.629 387.331 484.629 389.499C484.629 391.667 485.938 393.095 488.093 393.095C489.943 393.095 490.988 392.209 491.265 390.848H489.388C489.216 391.31 488.82 391.561 488.119 391.561C487.062 391.561 486.52 390.9 486.467 389.737H491.331V389.182ZM488.04 387.345C488.886 387.345 489.335 387.82 489.441 388.508H486.533C486.705 387.82 487.154 387.345 488.04 387.345ZM492.9 392.923H494.751V387.675H498.399V386.129H492.9V392.923ZM502.72 385.957C500.578 385.957 499.203 387.397 499.203 389.526C499.203 391.654 500.578 393.095 502.72 393.095C504.887 393.095 506.236 391.654 506.236 389.526C506.236 387.397 504.887 385.957 502.72 385.957ZM502.72 391.561C501.57 391.561 501.054 390.623 501.054 389.526C501.054 388.442 501.57 387.503 502.72 387.503C503.883 387.503 504.385 388.442 504.385 389.526C504.385 390.623 503.883 391.561 502.72 391.561ZM510.801 392.923H511.039C513.048 392.923 513.987 391.945 513.987 389.05V387.675H516.234V392.923H518.085V386.129H512.282V388.984C512.282 390.676 511.898 391.152 511.039 391.152H510.801V392.923ZM521.845 392.923L524.502 389.103H524.819V392.923H526.617V386.129H524.793L522.162 389.962H521.845V386.129H520.047V392.923H521.845ZM535.163 391.389V386.129H529.439V388.085C529.439 389.42 529.175 390.544 528.844 391.389H527.84V394.813H529.585V392.923H534.621V394.813H536.366V391.389H535.163ZM533.312 391.389H530.603C530.907 390.544 531.105 389.46 531.105 388.098V387.675H533.312V391.389ZM540.865 385.957C538.724 385.957 537.349 387.397 537.349 389.526C537.349 391.654 538.724 393.095 540.865 393.095C543.033 393.095 544.381 391.654 544.381 389.526C544.381 387.397 543.033 385.957 540.865 385.957ZM540.865 391.561C539.715 391.561 539.199 390.623 539.199 389.526C539.199 388.442 539.715 387.503 540.865 387.503C542.028 387.503 542.53 388.442 542.53 389.526C542.53 390.623 542.028 391.561 540.865 391.561ZM551.203 389.156C551.613 388.957 551.983 388.521 551.983 387.847C551.983 386.789 551.216 386.129 549.841 386.129H545.955V392.923H549.947C551.494 392.923 552.353 392.302 552.353 391.046C552.353 390.187 551.85 389.671 551.203 389.499V389.156ZM547.766 391.588V390.068H549.524C550.264 390.068 550.489 390.398 550.489 390.834C550.489 391.271 550.264 391.588 549.524 391.588H547.766ZM547.766 387.464H549.339C549.934 387.464 550.132 387.754 550.132 388.125C550.132 388.481 549.934 388.772 549.339 388.772H547.766V387.464ZM501.868 406.618C500.982 406.618 500.572 406.882 500.202 407.16H499.858L500.004 405.269H504.234V403.67H498.523L498.114 408.799H499.885C500.242 408.323 500.731 408.111 501.352 408.111C502.264 408.111 502.925 408.666 502.925 409.764C502.925 410.755 502.33 411.403 501.339 411.403C500.44 411.403 499.898 410.953 499.792 410.107H497.889C497.995 411.812 499.237 413.095 501.405 413.095C503.375 413.095 504.829 411.746 504.829 409.737C504.829 407.873 503.56 406.618 501.868 406.618ZM509.72 403.485C507.671 403.485 506.098 404.926 506.098 408.296C506.098 411.654 507.671 413.095 509.72 413.095C511.769 413.095 513.342 411.654 513.342 408.296C513.342 404.926 511.769 403.485 509.72 403.485ZM509.72 411.403C508.332 411.403 508.015 409.777 508.015 408.296C508.015 406.803 508.332 405.177 509.72 405.177C511.121 405.177 511.438 406.803 511.438 408.296C511.438 409.777 511.121 411.403 509.72 411.403ZM518.265 403.485C516.217 403.485 514.644 404.926 514.644 408.296C514.644 411.654 516.217 413.095 518.265 413.095C520.314 413.095 521.887 411.654 521.887 408.296C521.887 404.926 520.314 403.485 518.265 403.485ZM518.265 411.403C516.877 411.403 516.56 409.777 516.56 408.296C516.56 406.803 516.877 405.177 518.265 405.177C519.667 405.177 519.984 406.803 519.984 408.296C519.984 409.777 519.667 411.403 518.265 411.403Z" fill="#808191"/>
<rect x="445.737" y="356.731" width="16.3777" height="4.94667" rx="2.47675" transform="matrix(-0.464282 0.883817 -0.885688 -0.467833 968.636 129.672)" fill="#FCBC03"/>
<rect x="440.448" y="366.771" width="4.98538" height="4.94667" rx="2.47675" transform="matrix(-0.464282 0.883817 -0.885688 -0.467833 969.784 149.085)" fill="#2DA951"/>
<rect x="443.558" y="354.212" width="16.3153" height="4.96553" rx="2.4828" transform="rotate(60 443.558 354.212)" fill="#4284F4"/>
<rect x="557.568" y="339.896" width="13" height="13" fill="#475A95"/>
<g clip-path="url(#clip4)">
<path fill-rule="evenodd" clip-rule="evenodd" d="M561.155 342.896H566.98C567.303 342.896 567.568 343.159 567.568 343.478V349.252C567.568 349.572 567.303 349.834 566.98 349.834H561.155C560.832 349.834 560.568 349.572 560.568 349.252V343.478C560.568 343.159 560.832 342.896 561.155 342.896Z" fill="white"/>
<path fill-rule="evenodd" clip-rule="evenodd" d="M565.254 345.707V345.228C565.254 344.995 565.411 344.941 565.521 344.941C565.631 344.941 566.199 344.941 566.199 344.941V343.915L565.266 343.911C564.23 343.911 563.995 344.677 563.995 345.166V345.707H563.396V346.904H564C564 348.26 564 349.896 564 349.896H565.207C565.207 349.896 565.207 348.244 565.207 346.904H566.215L566.214 345.707H565.254Z" fill="#475A95"/>
</g>
<path d="M354.398 424.538C353.411 424.538 352.753 424.996 352.471 425.337H352.213C352.272 423.539 353.024 422.423 354.34 422.423C355.139 422.423 355.585 422.776 355.785 423.469H356.807C356.619 422.341 355.738 421.507 354.34 421.507C352.189 421.507 351.214 423.504 351.214 426.007C351.214 428.968 352.483 430.049 354.234 430.049C355.985 430.049 357.03 428.78 357.03 427.217C357.03 425.654 355.902 424.538 354.398 424.538ZM354.222 429.132C353.223 429.132 352.413 428.451 352.413 427.252C352.413 426.077 353.212 425.443 354.199 425.443C355.197 425.443 355.996 426.042 355.996 427.264C355.996 428.486 355.221 429.132 354.222 429.132ZM361.199 421.507C359.46 421.507 358.179 422.823 358.179 425.784C358.179 428.745 359.46 430.049 361.199 430.049C362.938 430.049 364.23 428.745 364.23 425.784C364.23 422.823 362.938 421.507 361.199 421.507ZM361.199 429.132C359.836 429.132 359.213 427.816 359.213 425.784C359.213 423.739 359.836 422.423 361.199 422.423C362.574 422.423 363.196 423.739 363.196 425.784C363.196 427.816 362.574 429.132 361.199 429.132Z" fill="#253640"/>
<rect x="292.568" y="418.896" width="14" height="14" rx="5.87492" fill="#A0D7E7"/>
<path d="M352.225 338.939C352.33 337.905 352.977 337.423 353.905 337.423C354.904 337.423 355.562 337.975 355.562 339.009C355.562 339.985 354.845 340.654 354.281 341.16C353.846 341.559 353.071 342.217 352.413 342.746L351.202 343.733V344.896H356.854V343.98H352.706V343.721L354.774 341.982C355.75 341.171 356.596 340.126 356.596 339.009C356.596 337.364 355.468 336.507 353.928 336.507C352.471 336.507 351.285 337.294 351.191 338.939H352.225ZM361.131 339.362C360.368 339.362 359.921 339.597 359.545 339.938H359.287L359.475 337.564H363.34V336.671H358.64L358.276 341.007H359.31C359.663 340.49 360.203 340.231 360.943 340.231C362.048 340.231 362.741 341.03 362.741 342.158C362.741 343.38 362.001 344.132 360.908 344.132C359.909 344.132 359.24 343.615 359.11 342.593H358.088C358.182 343.98 359.146 345.049 360.955 345.049C362.624 345.049 363.775 343.897 363.775 342.111C363.775 340.584 362.776 339.362 361.131 339.362ZM368.119 339.362C367.356 339.362 366.909 339.597 366.533 339.938H366.275L366.463 337.564H370.328V336.671H365.628L365.264 341.007H366.298C366.651 340.49 367.191 340.231 367.931 340.231C369.036 340.231 369.729 341.03 369.729 342.158C369.729 343.38 368.989 344.132 367.896 344.132C366.897 344.132 366.228 343.615 366.098 342.593H365.076C365.17 343.98 366.134 345.049 367.943 345.049C369.612 345.049 370.763 343.897 370.763 342.111C370.763 340.584 369.764 339.362 368.119 339.362Z" fill="#253640"/>
<rect x="292.568" y="333.896" width="14" height="14" rx="5.87492" fill="#EAEAEA"/>
<path d="M351.261 387.896H356.043V386.98H354.246V379.671H352.965L351.249 380.834V381.915L352.977 380.752H353.212V386.98H351.261V387.896ZM360.213 382.362C359.45 382.362 359.003 382.597 358.627 382.938H358.369L358.557 380.564H362.422V379.671H357.722L357.358 384.007H358.392C358.745 383.49 359.285 383.231 360.025 383.231C361.13 383.231 361.823 384.03 361.823 385.158C361.823 386.38 361.083 387.132 359.99 387.132C358.991 387.132 358.322 386.615 358.192 385.593H357.17C357.264 386.98 358.228 388.049 360.037 388.049C361.706 388.049 362.857 386.897 362.857 385.111C362.857 383.584 361.858 382.362 360.213 382.362ZM367.143 379.507C365.404 379.507 364.123 380.823 364.123 383.784C364.123 386.745 365.404 388.049 367.143 388.049C368.882 388.049 370.174 386.745 370.174 383.784C370.174 380.823 368.882 379.507 367.143 379.507ZM367.143 387.132C365.78 387.132 365.157 385.816 365.157 383.784C365.157 381.739 365.78 380.423 367.143 380.423C368.517 380.423 369.14 381.739 369.14 383.784C369.14 385.816 368.517 387.132 367.143 387.132Z" fill="#253640"/>
<rect x="292.568" y="375.896" width="14" height="14" rx="5.87492" fill="#CEEDE7"/>
<path d="M351.496 462.671V463.564H355.092V463.823L353.082 465.562V466.654C353.27 466.607 353.505 466.584 353.799 466.584C355.009 466.584 355.656 467.254 355.656 468.335C355.656 469.463 354.915 470.132 353.787 470.132C352.8 470.132 352.037 469.533 351.943 468.593H350.909C351.003 469.991 352.119 471.049 353.787 471.049C355.468 471.049 356.69 470.038 356.69 468.335C356.69 466.748 355.656 465.867 354.246 465.832V465.585L356.302 463.823V462.671H351.496ZM360.982 465.362C360.218 465.362 359.772 465.597 359.396 465.938H359.137L359.325 463.564H363.191V462.671H358.491L358.127 467.007H359.161C359.513 466.49 360.054 466.231 360.794 466.231C361.899 466.231 362.592 467.03 362.592 468.158C362.592 469.38 361.852 470.132 360.759 470.132C359.76 470.132 359.09 469.615 358.961 468.593H357.939C358.033 469.98 358.996 471.049 360.806 471.049C362.474 471.049 363.626 469.897 363.626 468.111C363.626 466.584 362.627 465.362 360.982 465.362Z" fill="#253640"/>
<rect x="292.568" y="459.896" width="14" height="14" rx="5.87492" fill="#006B8F"/>
<rect x="322.785" y="455.4" width="19.8917" height="20.0198" fill="#FEEBEF"/>
<path d="M326.948 459.062H328.681L330.132 463.277L331.609 459.062H333.255V460.057H332.288L330.558 464.82H329.64L327.902 460.057H326.948V459.062Z" fill="black"/>
<rect x="325.401" y="470.632" width="0.967574" height="0.979414" fill="black"/>
<path d="M337.617 460.156C337.1 459.904 336.821 459.835 336.304 459.882C335.053 460.246 334.645 460.726 334.506 461.995C334.616 463.179 335.073 463.545 336.304 463.884C336.988 463.931 337.371 463.789 338.03 463.178L338.762 463.658C337.945 464.563 337.412 464.916 336.17 464.896C334.739 464.793 333.533 463.557 333.423 461.995C333.513 460.344 334.426 459.187 336.304 458.921C337.321 458.981 337.835 459.133 338.585 459.766V461.139H337.617V460.156Z" fill="black"/>
<path d="M337.429 470.632C337.155 471.337 336.854 471.626 335.85 471.791C334.846 471.713 334.351 471.508 333.926 470.632C333.751 470.217 333.689 469.969 333.715 469.465V466.959H332.865V466.013H334.699V469.465C334.777 470.109 334.741 470.708 335.952 470.877C336.685 470.7 337.333 470.078 337.333 469.465C337.333 468.851 337.333 466.959 337.333 466.959H336.336V466.013H338.381V470.632H339.174V471.612H337.595L337.429 470.632Z" fill="black"/>
<path d="M327.332 470.633H328.284V466.897H327.332V466.001H329.111L329.145 467.095C329.763 466.108 330.375 465.903 331.792 466.001V467.73H330.834V466.897C329.928 467.036 329.595 467.369 329.281 468.302V470.633H331.695V471.612H327.332V470.633Z" fill="black"/>
<rect x="333.017" y="333.896" width="17.1318" height="5.17444" rx="2.5908" transform="matrix(-0.464282 0.883817 -0.885688 -0.467833 783.359 195.777)" fill="#FCBC03"/>
<rect x="327.484" y="344.399" width="5.21494" height="5.17444" rx="2.5908" transform="matrix(-0.464282 0.883817 -0.885688 -0.467833 784.559 216.084)" fill="#2DA951"/>
<rect x="330.738" y="331.262" width="17.0666" height="5.19418" rx="2.59713" transform="rotate(60 330.738 331.262)" fill="#4284F4"/>
<rect x="576.367" y="393.965" width="11.7172" height="11.7927" fill="#FEEBEF"/>
<path d="M578.819 396.122H579.84L580.695 398.604L581.565 396.122H582.535V396.707H581.965L580.946 399.513H580.405L579.381 396.707H578.819V396.122Z" fill="black"/>
<rect x="577.908" y="402.938" width="0.56995" height="0.576925" fill="black"/>
<path d="M585.104 396.766C584.799 396.618 584.635 396.577 584.331 396.605C583.593 396.819 583.353 397.102 583.272 397.849C583.336 398.547 583.605 398.763 584.331 398.962C584.734 398.99 584.959 398.906 585.347 398.546L585.778 398.829C585.297 399.362 584.983 399.57 584.251 399.559C583.408 399.498 582.698 398.769 582.633 397.849C582.687 396.877 583.224 396.196 584.331 396.039C584.93 396.074 585.232 396.164 585.674 396.536V397.345H585.104V396.766Z" fill="black"/>
<path d="M584.993 402.937C584.832 403.353 584.655 403.523 584.063 403.62C583.472 403.574 583.18 403.453 582.93 402.937C582.827 402.693 582.79 402.547 582.806 402.25V400.774H582.305V400.216H583.386V402.25C583.432 402.629 583.41 402.982 584.124 403.082C584.555 402.978 584.937 402.611 584.937 402.25C584.937 401.888 584.937 400.774 584.937 400.774H584.349V400.216H585.554V402.937H586.022V403.514H585.091L584.993 402.937Z" fill="black"/>
<path d="M579.045 402.938H579.606V400.737H579.045V400.209H580.093L580.113 400.854C580.477 400.272 580.838 400.151 581.673 400.209V401.228H581.108V400.737C580.575 400.819 580.379 401.015 580.194 401.565V402.938H581.616V403.514H579.045V402.938Z" fill="black"/>
<rect x="320.568" y="415.896" width="20" height="20" fill="#475A95"/>
<g clip-path="url(#clip5)">
<path fill-rule="evenodd" clip-rule="evenodd" d="M327.241 420.696H335.895C336.375 420.696 336.768 421.086 336.768 421.561V430.138C336.768 430.614 336.375 431.004 335.895 431.004H327.241C326.761 431.004 326.368 430.614 326.368 430.138V421.561C326.368 421.086 326.761 420.696 327.241 420.696Z" fill="white"/>
<path fill-rule="evenodd" clip-rule="evenodd" d="M333.33 424.872V424.161C333.33 423.814 333.563 423.734 333.727 423.734C333.89 423.734 334.733 423.734 334.733 423.734V422.21L333.348 422.204C331.809 422.204 331.459 423.341 331.459 424.068V424.872H330.569V426.65H331.466C331.466 428.665 331.466 431.096 331.466 431.096H333.261C333.261 431.096 333.261 428.641 333.261 426.65H334.758L334.756 424.872H333.33Z" fill="#475A95"/>
</g>
<rect x="321.068" y="374.396" width="17.1429" height="12" fill="#FFCC00"/>
<rect width="3.42857" height="5.14286" transform="matrix(1 0 0 -1 321.068 391.54)" fill="#FFCC00"/>
<rect width="3.42857" height="5.14286" transform="matrix(1 0 0 -1 325.353 391.54)" fill="#FFCC00"/>
<rect width="3.42857" height="1.71429" transform="matrix(1 0 0 -1 329.639 388.111)" fill="#FFCC00"/>
<path d="M335.64 390.682H339.068L338.211 386.396H334.782L335.64 390.682Z" fill="#EFB30D"/>
<rect x="324.497" y="378.682" width="10.2857" height="0.857143" fill="#030003"/>
<rect x="324.497" y="380.396" width="10.2857" height="0.857143" fill="#030003"/>
<rect x="324.497" y="382.111" width="6" height="0.857143" fill="#030003"/>
<rect x="219.581" y="230.896" width="17.1429" height="12" fill="#FFCC00"/>
<rect width="3.42857" height="5.14286" transform="matrix(1 0 0 -1 219.581 248.04)" fill="#FFCC00"/>
<rect width="3.42857" height="5.14286" transform="matrix(1 0 0 -1 223.866 248.04)" fill="#FFCC00"/>
<rect width="3.42857" height="1.71429" transform="matrix(1 0 0 -1 228.153 244.611)" fill="#FFCC00"/>
<path d="M234.153 247.182H237.581L236.724 242.896H233.296L234.153 247.182Z" fill="#EFB30D"/>
<rect x="223.01" y="235.182" width="10.2857" height="0.857143" fill="#030003"/>
<rect x="223.01" y="236.896" width="10.2857" height="0.857143" fill="#030003"/>
<rect x="223.01" y="238.611" width="6" height="0.857143" fill="#030003"/>
<mask id="mask4" mask-type="alpha" maskUnits="userSpaceOnUse" x="218" y="154" width="21" height="21">
<rect x="218.581" y="154.896" width="20" height="20" fill="#C4C4C4"/>
</mask>
<g mask="url(#mask4)">
<rect x="232.267" y="157.777" width="19.1688" height="5.78968" rx="2.89884" transform="matrix(-0.464282 0.883817 -0.885688 -0.467833 479.845 26.3088)" fill="#FCBC03"/>
<rect x="226.076" y="169.529" width="5.83499" height="5.78968" rx="2.89884" transform="matrix(-0.464282 0.883817 -0.885688 -0.467833 481.189 49.0301)" fill="#2DA951"/>
<rect x="229.716" y="154.83" width="19.0958" height="5.81176" rx="2.90588" transform="rotate(60 229.716 154.83)" fill="#4284F4"/>
</g>
<rect x="218.581" y="302.896" width="20" height="20" fill="#475A95"/>
<g clip-path="url(#clip6)">
<path fill-rule="evenodd" clip-rule="evenodd" d="M224.254 307.696H232.908C233.388 307.696 233.781 308.086 233.781 308.561V317.138C233.781 317.614 233.388 318.004 232.908 318.004H224.254C223.774 318.004 223.381 317.614 223.381 317.138V308.561C223.381 308.086 223.774 307.696 224.254 307.696Z" fill="white"/>
<path fill-rule="evenodd" clip-rule="evenodd" d="M230.343 311.872V311.161C230.343 310.814 230.576 310.734 230.74 310.734C230.903 310.734 231.747 310.734 231.747 310.734V309.21L230.361 309.204C228.823 309.204 228.472 310.341 228.472 311.068V311.872H227.583V313.65H228.48C228.48 315.665 228.48 318.096 228.48 318.096H230.274C230.274 318.096 230.274 315.641 230.274 313.65H231.772L231.769 311.872H230.343Z" fill="#475A95"/>
</g>
<rect x="217.581" y="377.876" width="19.8917" height="20.0198" fill="#FEEBEF"/>
<path d="M221.744 381.538H223.477L224.928 385.753L226.405 381.538H228.051V382.533H227.084L225.354 387.296H224.436L222.698 382.533H221.744V381.538Z" fill="black"/>
<rect x="220.197" y="393.108" width="0.967574" height="0.979414" fill="black"/>
<path d="M232.413 382.632C231.896 382.38 231.616 382.311 231.1 382.358C229.849 382.722 229.441 383.202 229.302 384.471C229.412 385.655 229.869 386.021 231.1 386.36C231.784 386.407 232.167 386.265 232.825 385.654L233.558 386.134C232.741 387.039 232.208 387.392 230.966 387.372C229.534 387.269 228.329 386.033 228.219 384.471C228.309 382.82 229.222 381.663 231.1 381.397C232.117 381.457 232.631 381.61 233.381 382.242V383.615H232.413V382.632Z" fill="black"/>
<path d="M232.225 393.108C231.951 393.813 231.649 394.102 230.646 394.268C229.641 394.189 229.147 393.984 228.722 393.108C228.547 392.693 228.485 392.445 228.511 391.941V389.435H227.661V388.489H229.495V391.941C229.573 392.585 229.536 393.184 230.748 393.353C231.481 393.177 232.129 392.554 232.129 391.941C232.129 391.327 232.129 389.435 232.129 389.435H231.132V388.489H233.177V393.108H233.97V394.088H232.391L232.225 393.108Z" fill="black"/>
<path d="M222.127 393.109H223.08V389.373H222.127V388.477H223.907L223.941 389.571C224.559 388.584 225.171 388.379 226.588 388.477V390.206H225.63V389.373C224.724 389.512 224.391 389.845 224.077 390.778V393.109H226.491V394.088H222.127V393.109Z" fill="black"/>
<defs>
<filter id="filter0_f" x="0.283249" y="0.796188" width="667.656" height="530.115" filterUnits="userSpaceOnUse" color-interpolation-filters="sRGB">
<feFlood flood-opacity="0" result="BackgroundImageFix"/>
<feBlend mode="normal" in="SourceGraphic" in2="BackgroundImageFix" result="shape"/>
<feGaussianBlur stdDeviation="24.8189" result="effect1_foregroundBlur"/>
</filter>
<filter id="filter1_i" x="49.8286" y="204.509" width="565.513" height="1" filterUnits="userSpaceOnUse" color-interpolation-filters="sRGB">
<feFlood flood-opacity="0" result="BackgroundImageFix"/>
<feBlend mode="normal" in="SourceGraphic" in2="BackgroundImageFix" result="shape"/>
<feColorMatrix in="SourceAlpha" type="matrix" values="0 0 0 0 0 0 0 0 0 0 0 0 0 0 0 0 0 0 127 0" result="hardAlpha"/>
<feOffset dy="-0.570649"/>
<feComposite in2="hardAlpha" operator="arithmetic" k2="-1" k3="1"/>
<feColorMatrix type="matrix" values="0 0 0 0 0.894118 0 0 0 0 0.894118 0 0 0 0 0.894118 0 0 0 1 0"/>
<feBlend mode="normal" in2="shape" result="effect1_innerShadow"/>
</filter>
<filter id="filter2_i" x="49.5679" y="274.896" width="566" height="3" filterUnits="userSpaceOnUse" color-interpolation-filters="sRGB">
<feFlood flood-opacity="0" result="BackgroundImageFix"/>
<feBlend mode="normal" in="SourceGraphic" in2="BackgroundImageFix" result="shape"/>
<feColorMatrix in="SourceAlpha" type="matrix" values="0 0 0 0 0 0 0 0 0 0 0 0 0 0 0 0 0 0 127 0" result="hardAlpha"/>
<feOffset dy="-0.570649"/>
<feComposite in2="hardAlpha" operator="arithmetic" k2="-1" k3="1"/>
<feColorMatrix type="matrix" values="0 0 0 0 0.894118 0 0 0 0 0.894118 0 0 0 0 0.894118 0 0 0 1 0"/>
<feBlend mode="normal" in2="shape" result="effect1_innerShadow"/>
</filter>
<filter id="filter3_i" x="49.5679" y="348.896" width="566" height="3" filterUnits="userSpaceOnUse" color-interpolation-filters="sRGB">
<feFlood flood-opacity="0" result="BackgroundImageFix"/>
<feBlend mode="normal" in="SourceGraphic" in2="BackgroundImageFix" result="shape"/>
<feColorMatrix in="SourceAlpha" type="matrix" values="0 0 0 0 0 0 0 0 0 0 0 0 0 0 0 0 0 0 127 0" result="hardAlpha"/>
<feOffset dy="-0.570649"/>
<feComposite in2="hardAlpha" operator="arithmetic" k2="-1" k3="1"/>
<feColorMatrix type="matrix" values="0 0 0 0 0.894118 0 0 0 0 0.894118 0 0 0 0 0.894118 0 0 0 1 0"/>
<feBlend mode="normal" in2="shape" result="effect1_innerShadow"/>
</filter>
<filter id="filter4_d" x="197.568" y="200.896" width="489" height="366" filterUnits="userSpaceOnUse" color-interpolation-filters="sRGB">
<feFlood flood-opacity="0" result="BackgroundImageFix"/>
<feColorMatrix in="SourceAlpha" type="matrix" values="0 0 0 0 0 0 0 0 0 0 0 0 0 0 0 0 0 0 127 0"/>
<feOffset/>
<feGaussianBlur stdDeviation="28"/>
<feColorMatrix type="matrix" values="0 0 0 0 0 0 0 0 0 0.00911134 0 0 0 0 0.0911133 0 0 0 0.12 0"/>
<feBlend mode="normal" in2="BackgroundImageFix" result="effect1_dropShadow"/>
<feBlend mode="normal" in="SourceGraphic" in2="effect1_dropShadow" result="shape"/>
</filter>
<linearGradient id="paint0_linear" x1="382.091" y1="285.755" x2="401.673" y2="521.733" gradientUnits="userSpaceOnUse">
<stop stop-color="#84A3E9"/>
<stop offset="1" stop-color="#DFFEE6"/>
</linearGradient>
<clipPath id="clip0">
<rect width="42.8326" height="45.0869" fill="white" transform="translate(67.6375 145.376)"/>
</clipPath>
<clipPath id="clip1">
<rect width="42.8326" height="45.0869" fill="white" transform="translate(67.6375 218.642)"/>
</clipPath>
<clipPath id="clip2">
<rect width="42.8326" height="46.2141" fill="white" transform="translate(67.6375 291.908)"/>
</clipPath>
<clipPath id="clip3">
<rect width="42.8326" height="46.2141" fill="white" transform="translate(67.6375 366.302)"/>
</clipPath>
<clipPath id="clip4">
<rect width="7" height="7" fill="white" transform="translate(560.568 342.896)"/>
</clipPath>
<clipPath id="clip5">
<rect width="10.4" height="10.4" fill="white" transform="translate(326.368 420.696)"/>
</clipPath>
<clipPath id="clip6">
<rect width="10.4" height="10.4" fill="white" transform="translate(223.381 307.696)"/>
</clipPath>
</defs>
</svg>
