<svg width="40" height="34" viewBox="0 0 40 34" fill="none" xmlns="http://www.w3.org/2000/svg">
<path fill-rule="evenodd" clip-rule="evenodd" d="M28.1442 33.0561L26.8742 32.2533L26.3235 31.747C24.3393 29.9956 22.1699 26.6384 22.7477 20.2548C23.0858 15.2629 25.6095 7.78964 35.7101 0.510849C36.1951 0.170231 36.7621 0 37.3289 0C38.1139 0 38.8934 0.321175 39.4167 0.94883C40.3108 2.01446 40.0981 3.55191 38.948 4.37903C30.7172 10.3003 28.4713 16.1048 28.0734 20.0848C29.2343 19.4815 30.5481 19.1117 31.9707 19.1117C36.4025 19.1117 40 22.4446 40 26.5559C40 30.6672 36.4078 34 31.9707 34C30.9677 34 30.0466 33.7714 29.169 33.4503L29.1962 33.5086L28.2696 33.1145L28.1878 33.0853L28.1442 33.0561ZM4.23763 32.2533L3.6816 31.7473C1.68645 29.9957 -0.482941 26.6385 0.0948639 20.2548C0.438396 15.2629 2.95664 7.78964 13.0627 0.510849C13.5477 0.170231 14.1147 0 14.6816 0C15.4666 0 16.2461 0.321175 16.7693 0.94883C17.6634 2.01446 17.4562 3.55191 16.3006 4.37903C8.06979 10.3003 5.8239 16.1048 5.43149 20.0848C6.59242 19.4815 7.90617 19.1117 9.32882 19.1117C13.7714 19.1117 17.3581 22.4446 17.3581 26.5559C17.3581 30.6672 13.7714 34 9.3398 34C8.33682 34 7.41017 33.7714 6.53257 33.4503L6.55984 33.5086L5.63318 33.1145L5.54588 33.0853L5.50232 33.0561L4.23763 32.2533Z" fill="#F7F7F7"/>
</svg>
