<svg xmlns="http://www.w3.org/2000/svg" xmlns:xlink="http://www.w3.org/1999/xlink" width="286.2" height="49.142" viewBox="0 0 286.2 49.142"><defs><style>.a,.d,.g{fill:none;}.b{fill:#fff;}.c{fill:#b4d936;}.e{clip-path:url(#a);}.f{clip-path:url(#b);}.g{stroke:#348d10;stroke-width:2.5px;}.h{clip-path:url(#c);}.i{clip-path:url(#d);}.j,.l{fill:#348d10;}.k,.l{stroke:none;}</style><clipPath id="a"><path class="a" d="M16.634,44V39.853H0V0H41V44Z"/></clipPath><clipPath id="b"><path class="b" d="M31,0H60.776L48.456,14.2l-4.173,5.285L26,11.829Z" transform="translate(-24 3)"/></clipPath><clipPath id="c"><path class="b" d="M63,0H76.236V13.917l-8.143-.7L58,12.989Z" transform="translate(-60)"/></clipPath><clipPath id="d"><path class="b" d="M111,73h16.236V86.236l-8.143,6.16L111,82.046Z" transform="translate(-111 -73)"/></clipPath></defs><g transform="translate(-782 -938)"><path class="c" d="M0,16.5A16.5,16.5,0,0,1,16.5,0H33V16.5a16.5,16.5,0,1,1-33,0Z" transform="translate(815 948)"/><g class="d" transform="translate(808 944)"><path class="k" d="M0,20A20,20,0,0,1,20,0H40V20A20,20,0,1,1,0,20Z"/><path class="l" d="M 19.99990081787109 2.5 C 15.32550048828125 2.5 10.93088912963867 4.320308685302734 7.625598907470703 7.625598907470703 C 4.320308685302734 10.93088912963867 2.5 15.32550048828125 2.5 19.99990081787109 C 2.5 24.67438888549805 4.320308685302734 29.06906127929688 7.625598907470703 32.37438201904297 C 10.93088912963867 35.67969131469727 15.32550048828125 37.5 19.99990081787109 37.5 C 24.67438888549805 37.5 29.06906890869141 35.67969131469727 32.37438201904297 32.37438201904297 C 35.67969131469727 29.06906890869141 37.5 24.67438888549805 37.5 19.99990081787109 L 37.5 2.5 L 19.99990081787109 2.5 M 19.99990081787109 0 L 40 0 L 40 19.99990081787109 C 40 31.04574966430664 31.04574966430664 40 19.99990081787109 40 C 8.954250335693359 40 0 31.04574966430664 0 19.99990081787109 C 0 8.954250335693359 8.954250335693359 0 19.99990081787109 0 Z"/></g><g class="e" transform="translate(782 941)"><g class="d" transform="translate(5 3)"><path class="k" d="M14.733,40H0V0H14.733a18.541,18.541,0,0,1,7.5,1.572,19.058,19.058,0,0,1,3.273,1.844,19.574,19.574,0,0,1,2.852,2.442,20.005,20.005,0,0,1,2.353,2.96,20.256,20.256,0,0,1,1.776,3.4,20.771,20.771,0,0,1,0,15.57,20.248,20.248,0,0,1-1.776,3.4,20.02,20.02,0,0,1-2.353,2.96,19.574,19.574,0,0,1-2.852,2.442,19.058,19.058,0,0,1-3.273,1.844A18.542,18.542,0,0,1,14.733,40Z"/><path class="l" d="M 14.73346042633057 37.5 C 16.98628997802734 37.5 19.17131042480469 37.04216003417969 21.22783088684082 36.13920974731445 C 22.21829032897949 35.70431900024414 23.1745491027832 35.16540145874023 24.0701904296875 34.53728866577148 C 24.9592399597168 33.91390991210938 25.79574966430664 33.19741821289063 26.55629920959473 32.40792083740234 C 27.31854057312012 31.61650085449219 28.01092910766602 30.74522972106934 28.61414909362793 29.81846046447754 C 29.22400093078613 28.88138961791992 29.74769973754883 27.87981033325195 30.1707592010498 26.84136962890625 C 31.05278015136719 24.67686080932617 31.5 22.37505912780762 31.5 19.99990081787109 C 31.5 17.62491989135742 31.05277061462402 15.32308959960938 30.17074012756348 13.15837955474854 C 29.74751091003418 12.11970043182373 29.22380065917969 11.11806964874268 28.61404037475586 10.18115997314453 C 28.01172065734863 9.255499839782715 27.31940078735352 8.38440990447998 26.55648994445801 7.59227991104126 C 25.79574966430664 6.802579879760742 24.9592399597168 6.086090087890625 24.07003021240234 5.462600231170654 C 23.1745491027832 4.83459997177124 22.21829032897949 4.295680046081543 21.22784996032715 3.86080002784729 C 19.17130088806152 2.957839965820313 16.98627090454102 2.5 14.73326015472412 2.5 L 2.5 2.5 L 2.5 37.5 L 14.73326015472412 37.5 L 14.73346042633057 37.5 M 14.73346042633057 40 C 14.73332977294922 40 14.73338985443115 40 14.73326015472412 40 L 0 40 L 0 0 L 14.73326015472412 0 C 14.73338985443115 0 14.73332977294922 0 14.73346042633057 0 C 17.33445930480957 0 19.85753059387207 0.5287799835205078 22.23290061950684 1.571720004081726 C 23.37447929382324 2.072959899902344 24.47546005249023 2.693429946899414 25.50546073913574 3.415760040283203 C 26.52565956115723 4.131100177764893 27.48506927490234 4.952750205993652 28.35696029663086 5.857830047607422 C 29.22866058349609 6.762919902801514 30.0203800201416 7.75862979888916 30.7094898223877 8.817669868469238 C 31.40533065795898 9.886859893798828 32.0030517578125 11.02997016906738 32.48591995239258 12.21500968933105 C 33.49061965942383 14.68078994750977 34 17.29990005493164 34 19.99990081787109 C 34 22.69989013671875 33.49061965942383 25.31921005249023 32.48591995239258 27.78478050231934 C 32.0030517578125 28.97002983093262 31.40533065795898 30.1129207611084 30.7094898223877 31.18211936950684 C 30.02017021179199 32.24116134643555 29.22866058349609 33.23709106445313 28.35696029663086 34.14216995239258 C 27.48506927490234 35.04724884033203 26.52565956115723 35.86890029907227 25.50546073913574 36.5842399597168 C 24.47546005249023 37.30656814575195 23.37447929382324 37.92704010009766 22.23290061950684 38.42827987670898 C 19.85753059387207 39.47122955322266 17.33424949645996 40 14.73346042633057 40 Z"/></g></g><g class="f" transform="translate(813.544 964.658)"><g class="g" transform="translate(-6.544 5.342)"><ellipse class="k" cx="20" cy="19.5" rx="20" ry="19.5"/><ellipse class="a" cx="20" cy="19.5" rx="18.75" ry="18.25"/></g></g><g class="h" transform="translate(830.476 953.989)"><g class="g" transform="translate(-16.476 5.011)"><ellipse class="k" cx="19.5" cy="20" rx="19.5" ry="20"/><ellipse class="a" cx="19.5" cy="20" rx="18.25" ry="18.75"/></g></g><g class="i" transform="translate(819.343 944.711)"><g class="g" transform="translate(-26.343 -7.711)"><circle class="k" cx="20" cy="20" r="20"/><circle class="a" cx="20" cy="20" r="18.75"/></g></g><path class="g" d="M0,32.849,31.428,2" transform="translate(815.052 943.755)"/><path class="j" d="M3.24,28v5.55H.48V25.51H2.67a12.9,12.9,0,0,0,2.355-3.855,21.616,21.616,0,0,0,1.2-4.47,38.21,38.21,0,0,0,.45-4.875q.075-2.52.105-5.1H18.54v18.3h2.61v8.04H18.39V28ZM9.63,9.7q-.09,1.98-.195,4.035a34.864,34.864,0,0,1-.45,4.08A26,26,0,0,1,7.98,21.79a15.418,15.418,0,0,1-1.86,3.72h9.51V9.7Zm12.21,7.89a12.914,12.914,0,0,1,.8-4.71,9.74,9.74,0,0,1,2.16-3.4,8.938,8.938,0,0,1,3.18-2.055,10.756,10.756,0,0,1,3.855-.69,10.433,10.433,0,0,1,3.795.69A8.85,8.85,0,0,1,38.76,9.475a9.856,9.856,0,0,1,2.145,3.4,12.914,12.914,0,0,1,.8,4.71,12.914,12.914,0,0,1-.8,4.71A9.856,9.856,0,0,1,38.76,25.7a8.85,8.85,0,0,1-3.135,2.055,10.433,10.433,0,0,1-3.795.69,10.756,10.756,0,0,1-3.855-.69A8.938,8.938,0,0,1,24.8,25.7a9.74,9.74,0,0,1-2.16-3.405A12.914,12.914,0,0,1,21.84,17.59Zm3.06,0a11.545,11.545,0,0,0,.48,3.435,7.688,7.688,0,0,0,1.365,2.625,5.98,5.98,0,0,0,2.16,1.665,6.793,6.793,0,0,0,2.865.585,6.691,6.691,0,0,0,2.85-.585,6.015,6.015,0,0,0,2.145-1.665,7.688,7.688,0,0,0,1.365-2.625,11.545,11.545,0,0,0,.48-3.435,11.545,11.545,0,0,0-.48-3.435,7.688,7.688,0,0,0-1.365-2.625A6.015,6.015,0,0,0,34.62,9.865a6.691,6.691,0,0,0-2.85-.585,6.793,6.793,0,0,0-2.865.585,5.98,5.98,0,0,0-2.16,1.665,7.688,7.688,0,0,0-1.365,2.625A11.545,11.545,0,0,0,24.9,17.59ZM47.88,9.7v5.28h2.58a19.263,19.263,0,0,1,3.915.36A8.329,8.329,0,0,1,57.3,16.495a5.271,5.271,0,0,1,1.83,2.04,6.691,6.691,0,0,1,.63,3.045,5.646,5.646,0,0,1-2.4,4.965,11.793,11.793,0,0,1-6.78,1.665q-.63,0-1.365-.03t-1.47-.09q-.735-.06-1.455-.15a11.172,11.172,0,0,1-1.32-.24V7.21H57.81V9.7Zm2.94,15.96a13.4,13.4,0,0,0,2.235-.18,5.614,5.614,0,0,0,1.875-.645,3.583,3.583,0,0,0,1.29-1.245,3.723,3.723,0,0,0,.48-1.98,4.353,4.353,0,0,0-.435-2.07,3.283,3.283,0,0,0-1.245-1.29,5.711,5.711,0,0,0-1.995-.675,16.651,16.651,0,0,0-2.685-.195H47.88v8.19q.33.03.78.06.39.03.93.03ZM68.01,7a11.571,11.571,0,0,1,6.735,1.665A5.683,5.683,0,0,1,77.1,13.63a6.747,6.747,0,0,1-.645,3.075,5.292,5.292,0,0,1-1.86,2.07A8.493,8.493,0,0,1,71.64,19.93a19.486,19.486,0,0,1-3.93.36H65.4V28H62.49V7.51a16.411,16.411,0,0,1,2.745-.4Q66.75,7,68.01,7Zm.24,2.55q-1.86,0-2.85.09V17.8h2.19a16.935,16.935,0,0,0,2.7-.195,6.1,6.1,0,0,0,2.025-.66A3.257,3.257,0,0,0,73.59,15.67a4.231,4.231,0,0,0,.45-2.07,3.818,3.818,0,0,0-.465-1.98,3.5,3.5,0,0,0-1.26-1.245A5.445,5.445,0,0,0,70.47,9.73,13.133,13.133,0,0,0,68.25,9.55ZM91.08,21.49a4.411,4.411,0,0,0-.45-2.1,3.277,3.277,0,0,0-1.29-1.32,6.011,6.011,0,0,0-1.995-.675A15.27,15.27,0,0,0,84.81,17.2h-1.1a10.189,10.189,0,0,0-1.125.06v8.31q1.02.09,1.53.09h1.2a12.763,12.763,0,0,0,2.16-.18,5.251,5.251,0,0,0,1.845-.66A3.7,3.7,0,0,0,90.6,23.545,3.932,3.932,0,0,0,91.08,21.49Zm3.06,0a6.5,6.5,0,0,1-.63,2.94,5.683,5.683,0,0,1-1.8,2.1,8.279,8.279,0,0,1-2.85,1.26,15.615,15.615,0,0,1-3.78.42q-1.26,0-2.7-.1a16.991,16.991,0,0,1-2.7-.4V7.21h2.91v7.56q.54-.06,1.155-.075T84.9,14.68Q94.14,14.68,94.14,21.49ZM97.29,7.21h2.91V28H97.29ZM104.31,28V7.21h2.85V22.6q.96-1.59,2.355-3.63t2.97-4.155q1.575-2.115,3.18-4.11t3.015-3.5h2.31V28h-2.85V11.77q-.84.96-1.83,2.22t-2.04,2.685q-1.05,1.425-2.115,2.955T110.1,22.645q-.99,1.485-1.845,2.865T106.74,28Zm8.37-22.8a4.731,4.731,0,0,1-3.075-.96,4,4,0,0,1-1.425-2.67L110.31,1a3.417,3.417,0,0,0,.81,1.56,2.328,2.328,0,0,0,3.12,0A3.417,3.417,0,0,0,115.05,1l2.1.57a4.029,4.029,0,0,1-1.41,2.67A4.67,4.67,0,0,1,112.68,5.2Zm17.46,12.39a12.914,12.914,0,0,1,.795-4.71,9.74,9.74,0,0,1,2.16-3.4,8.938,8.938,0,0,1,3.18-2.055,10.756,10.756,0,0,1,3.855-.69,10.433,10.433,0,0,1,3.795.69,8.85,8.85,0,0,1,3.135,2.055,9.856,9.856,0,0,1,2.145,3.4,12.914,12.914,0,0,1,.8,4.71,12.914,12.914,0,0,1-.8,4.71A9.856,9.856,0,0,1,147.06,25.7a8.85,8.85,0,0,1-3.135,2.055,10.433,10.433,0,0,1-3.795.69,10.756,10.756,0,0,1-3.855-.69A8.938,8.938,0,0,1,133.1,25.7a9.74,9.74,0,0,1-2.16-3.405A12.914,12.914,0,0,1,130.14,17.59Zm3.06,0a11.546,11.546,0,0,0,.48,3.435,7.688,7.688,0,0,0,1.365,2.625,5.98,5.98,0,0,0,2.16,1.665,6.793,6.793,0,0,0,2.865.585,6.691,6.691,0,0,0,2.85-.585,6.015,6.015,0,0,0,2.145-1.665,7.688,7.688,0,0,0,1.365-2.625,11.546,11.546,0,0,0,.48-3.435,11.545,11.545,0,0,0-.48-3.435,7.688,7.688,0,0,0-1.365-2.625,6.015,6.015,0,0,0-2.145-1.665,6.691,6.691,0,0,0-2.85-.585,6.793,6.793,0,0,0-2.865.585,5.98,5.98,0,0,0-2.16,1.665,7.688,7.688,0,0,0-1.365,2.625A11.546,11.546,0,0,0,133.2,17.59Zm31.86,5.49a8.631,8.631,0,0,0,2.685-.405,6.151,6.151,0,0,0,2.16-1.2,5.8,5.8,0,0,0,1.455-1.95,6.2,6.2,0,0,0,.54-2.655,6.2,6.2,0,0,0-.54-2.655,5.8,5.8,0,0,0-1.455-1.95,6.151,6.151,0,0,0-2.16-1.2,8.631,8.631,0,0,0-2.685-.4Zm-2.82,2.4a12.105,12.105,0,0,1-3.705-.57,9.69,9.69,0,0,1-3.15-1.665,8.251,8.251,0,0,1-2.19-2.7,7.925,7.925,0,0,1-.825-3.675,7.834,7.834,0,0,1,.825-3.66,8.3,8.3,0,0,1,2.19-2.685,9.691,9.691,0,0,1,3.15-1.665,12.768,12.768,0,0,1,3.705-.6V5.86h2.82v2.4a12.613,12.613,0,0,1,3.69.6,9.9,9.9,0,0,1,3.15,1.665,8.215,8.215,0,0,1,2.205,2.685,7.834,7.834,0,0,1,.825,3.66,7.925,7.925,0,0,1-.825,3.675,8.169,8.169,0,0,1-2.205,2.7,9.9,9.9,0,0,1-3.15,1.665,11.963,11.963,0,0,1-3.69.57V28h-2.82Zm0-14.82a8.631,8.631,0,0,0-2.685.4,6.151,6.151,0,0,0-2.16,1.2,5.8,5.8,0,0,0-1.455,1.95,6.2,6.2,0,0,0-.54,2.655,6.2,6.2,0,0,0,.54,2.655,5.8,5.8,0,0,0,1.455,1.95,6.151,6.151,0,0,0,2.16,1.2,8.631,8.631,0,0,0,2.685.405ZM178.14,28V7.21h2.85V22.6q.96-1.59,2.355-3.63t2.97-4.155q1.575-2.115,3.18-4.11t3.015-3.5h2.31V28h-2.85V11.77q-.84.96-1.83,2.22t-2.04,2.685q-1.05,1.425-2.115,2.955t-2.055,3.015q-.99,1.485-1.845,2.865T180.57,28Zm29.73.45a10.654,10.654,0,0,1-3.99-.72,8.487,8.487,0,0,1-3.09-2.1,9.466,9.466,0,0,1-1.995-3.4,14.064,14.064,0,0,1-.705-4.635,12.614,12.614,0,0,1,.795-4.635A10.048,10.048,0,0,1,201.03,9.55a9.072,9.072,0,0,1,3.15-2.1,10.243,10.243,0,0,1,3.84-.72,13.642,13.642,0,0,1,2.325.18,14.211,14.211,0,0,1,1.8.42,8.61,8.61,0,0,1,1.245.48,7.047,7.047,0,0,1,.66.36l-.84,2.4a4.654,4.654,0,0,0-.78-.39q-.51-.21-1.155-.42a10.394,10.394,0,0,0-1.41-.345,8.873,8.873,0,0,0-1.545-.135,7.421,7.421,0,0,0-2.97.57,6.144,6.144,0,0,0-2.25,1.65,7.451,7.451,0,0,0-1.425,2.625,11.327,11.327,0,0,0-.495,3.465,12.376,12.376,0,0,0,.435,3.39A7.433,7.433,0,0,0,202.92,23.6,5.861,5.861,0,0,0,205.1,25.3a7.225,7.225,0,0,0,3.045.6,11.162,11.162,0,0,0,3.33-.42,14.648,14.648,0,0,0,1.98-.75l.75,2.4a4.21,4.21,0,0,1-.75.375,10.292,10.292,0,0,1-1.35.435,16.849,16.849,0,0,1-1.89.36A17.051,17.051,0,0,1,207.87,28.45Z" transform="translate(854 937)"/><path class="j" d="M.667,9.964A4.681,4.681,0,0,1,1.124,7.87,3.415,3.415,0,0,1,2.4,6.434a3.469,3.469,0,0,1,1.864-.505A3.342,3.342,0,0,1,6.881,7.049a4.311,4.311,0,0,1,1,2.981v.1A4.722,4.722,0,0,1,7.438,12.2a3.365,3.365,0,0,1-1.267,1.432,3.509,3.509,0,0,1-1.893.513,3.334,3.334,0,0,1-2.611-1.121,4.29,4.29,0,0,1-1-2.966Zm1.362.161a3.39,3.39,0,0,0,.612,2.117,1.957,1.957,0,0,0,1.637.8,1.945,1.945,0,0,0,1.641-.809,3.707,3.707,0,0,0,.608-2.267,3.384,3.384,0,0,0-.619-2.113,1.968,1.968,0,0,0-1.644-.809,1.946,1.946,0,0,0-1.619.8A3.68,3.68,0,0,0,2.029,10.125Zm10.73,2.915a1.952,1.952,0,0,0,1.267-.439,1.546,1.546,0,0,0,.6-1.1h1.282a2.457,2.457,0,0,1-.469,1.3,3.087,3.087,0,0,1-1.154.981,3.329,3.329,0,0,1-1.527.366,3.265,3.265,0,0,1-2.574-1.08,4.3,4.3,0,0,1-.956-2.955V9.884a4.771,4.771,0,0,1,.425-2.058,3.236,3.236,0,0,1,1.219-1.4,3.464,3.464,0,0,1,1.879-.5,3.178,3.178,0,0,1,2.216.8A2.853,2.853,0,0,1,15.908,8.8H14.626a1.867,1.867,0,0,0-.582-1.263,1.811,1.811,0,0,0-1.293-.494,1.9,1.9,0,0,0-1.6.743,3.491,3.491,0,0,0-.568,2.15v.256a3.422,3.422,0,0,0,.564,2.109A1.906,1.906,0,0,0,12.759,13.041ZM23.906,14H22.551V10.616h-3.64V14H17.549V6.075h1.362V9.51h3.64V6.075h1.355Zm7.068,0a2.846,2.846,0,0,1-.19-.835,3.023,3.023,0,0,1-2.256.981,2.8,2.8,0,0,1-1.923-.663,2.145,2.145,0,0,1-.751-1.681A2.24,2.24,0,0,1,26.8,9.88,4.437,4.437,0,0,1,29.443,9.2h1.318V8.573a1.522,1.522,0,0,0-.425-1.132,1.707,1.707,0,0,0-1.252-.421,1.976,1.976,0,0,0-1.216.366,1.079,1.079,0,0,0-.491.886H26.016a1.87,1.87,0,0,1,.421-1.146,2.874,2.874,0,0,1,1.143-.875,3.844,3.844,0,0,1,1.586-.322,3.133,3.133,0,0,1,2.146.685A2.47,2.47,0,0,1,32.117,8.5v3.647a4.459,4.459,0,0,0,.278,1.736V14Zm-2.249-1.033a2.381,2.381,0,0,0,1.208-.33,1.994,1.994,0,0,0,.828-.857V10.155H29.7q-2.49,0-2.49,1.458a1.234,1.234,0,0,0,.425,1A1.633,1.633,0,0,0,28.726,12.967ZM35.64,6.075v6.819h2.9V6.075H39.9v6.819h2.893V6.075H44.15v6.819h1.113l-.132,3.457H43.916V14H34.277V6.075ZM51.541,14a2.846,2.846,0,0,1-.19-.835,3.023,3.023,0,0,1-2.256.981,2.8,2.8,0,0,1-1.923-.663,2.145,2.145,0,0,1-.751-1.681,2.24,2.24,0,0,1,.941-1.923A4.437,4.437,0,0,1,50.01,9.2h1.318V8.573A1.522,1.522,0,0,0,50.9,7.441a1.707,1.707,0,0,0-1.252-.421,1.976,1.976,0,0,0-1.216.366,1.079,1.079,0,0,0-.491.886H46.582A1.87,1.87,0,0,1,47,7.126a2.874,2.874,0,0,1,1.143-.875,3.844,3.844,0,0,1,1.586-.322,3.133,3.133,0,0,1,2.146.685A2.47,2.47,0,0,1,52.683,8.5v3.647a4.459,4.459,0,0,0,.278,1.736V14Zm-2.249-1.033a2.381,2.381,0,0,0,1.208-.33,1.994,1.994,0,0,0,.828-.857V10.155H50.266q-2.49,0-2.49,1.458a1.234,1.234,0,0,0,.425,1A1.633,1.633,0,0,0,49.292,12.967Zm8.8,1.179a3.463,3.463,0,0,1-2.622-1.058,3.928,3.928,0,0,1-1.011-2.831v-.249a4.756,4.756,0,0,1,.45-2.106,3.514,3.514,0,0,1,1.26-1.45,3.167,3.167,0,0,1,1.754-.524,2.968,2.968,0,0,1,2.4,1.018,4.408,4.408,0,0,1,.857,2.915v.564H55.818a2.817,2.817,0,0,0,.685,1.893,2.153,2.153,0,0,0,1.666.721,2.36,2.36,0,0,0,1.216-.293,3.055,3.055,0,0,0,.872-.776l.828.645A3.328,3.328,0,0,1,58.1,14.146Zm-.168-7.1a1.807,1.807,0,0,0-1.377.6,2.9,2.9,0,0,0-.688,1.674h3.97v-.1a2.581,2.581,0,0,0-.557-1.6A1.7,1.7,0,0,0,57.927,7.042Zm9.39,5.164,2.7-6.13H71.7V14H70.349V8.236L67.786,14h-.937L64.233,8.111V14H62.878V6.075h1.758Zm14.839,0,2.7-6.13h1.692V14H85.188V8.236L82.625,14h-.937L79.072,8.111V14H77.717V6.075h1.758Zm6.2-2.241a4.681,4.681,0,0,1,.458-2.095,3.415,3.415,0,0,1,1.274-1.436,3.469,3.469,0,0,1,1.864-.505,3.342,3.342,0,0,1,2.618,1.121,4.311,4.311,0,0,1,1,2.981v.1a4.722,4.722,0,0,1-.443,2.076,3.365,3.365,0,0,1-1.267,1.432,3.509,3.509,0,0,1-1.893.513,3.334,3.334,0,0,1-2.611-1.121,4.29,4.29,0,0,1-1-2.966Zm1.362.161a3.39,3.39,0,0,0,.612,2.117,2.072,2.072,0,0,0,3.278-.011,3.707,3.707,0,0,0,.608-2.267A3.384,3.384,0,0,0,93.6,7.851a1.968,1.968,0,0,0-1.644-.809,1.946,1.946,0,0,0-1.619.8A3.68,3.68,0,0,0,89.722,10.125Zm10.73,2.915a1.952,1.952,0,0,0,1.267-.439,1.546,1.546,0,0,0,.6-1.1H103.6a2.457,2.457,0,0,1-.469,1.3,3.087,3.087,0,0,1-1.154.981,3.329,3.329,0,0,1-1.527.366,3.265,3.265,0,0,1-2.574-1.08,4.3,4.3,0,0,1-.956-2.955V9.884a4.771,4.771,0,0,1,.425-2.058,3.236,3.236,0,0,1,1.219-1.4,3.464,3.464,0,0,1,1.879-.5,3.178,3.178,0,0,1,2.216.8A2.853,2.853,0,0,1,103.6,8.8h-1.282a1.867,1.867,0,0,0-.582-1.263,1.811,1.811,0,0,0-1.293-.494,1.9,1.9,0,0,0-1.6.743,3.491,3.491,0,0,0-.568,2.15v.256A3.422,3.422,0,0,0,98.84,12.3,1.906,1.906,0,0,0,100.452,13.041Zm7.141-2.417H106.6V14h-1.362V6.075H106.6V9.43h.886l2.666-3.354H111.8l-3.135,3.809,3.4,4.116h-1.721Zm5.12-.659a4.681,4.681,0,0,1,.458-2.095,3.415,3.415,0,0,1,1.274-1.436,3.469,3.469,0,0,1,1.864-.505,3.342,3.342,0,0,1,2.618,1.121,4.311,4.311,0,0,1,1,2.981v.1a4.722,4.722,0,0,1-.443,2.076,3.365,3.365,0,0,1-1.267,1.432,3.509,3.509,0,0,1-1.893.513,3.334,3.334,0,0,1-2.611-1.121,4.29,4.29,0,0,1-1-2.966Zm1.362.161a3.39,3.39,0,0,0,.612,2.117,2.072,2.072,0,0,0,3.278-.011,3.707,3.707,0,0,0,.608-2.267,3.384,3.384,0,0,0-.619-2.113,1.968,1.968,0,0,0-1.644-.809,1.946,1.946,0,0,0-1.619.8A3.68,3.68,0,0,0,114.075,10.125ZM121.75,14V6.075h3.091a4.44,4.44,0,0,1,2.428.553,1.816,1.816,0,0,1,.846,1.622,1.622,1.622,0,0,1-.33.992,2.042,2.042,0,0,1-.974.677,2.153,2.153,0,0,1,1.154.659,1.705,1.705,0,0,1,.436,1.172,1.933,1.933,0,0,1-.8,1.67,3.827,3.827,0,0,1-2.267.579Zm1.355-3.479v2.388h2.241a2.114,2.114,0,0,0,1.271-.315,1.042,1.042,0,0,0,.421-.886q0-1.187-1.743-1.187Zm0-1.084h1.75q1.9,0,1.9-1.113t-1.8-1.15h-1.853Zm10.269,3.6a1.952,1.952,0,0,0,1.267-.439,1.546,1.546,0,0,0,.6-1.1h1.282a2.457,2.457,0,0,1-.469,1.3,3.087,3.087,0,0,1-1.154.981,3.329,3.329,0,0,1-1.527.366,3.265,3.265,0,0,1-2.574-1.08,4.3,4.3,0,0,1-.956-2.955V9.884a4.771,4.771,0,0,1,.425-2.058,3.236,3.236,0,0,1,1.219-1.4,3.464,3.464,0,0,1,1.879-.5,3.178,3.178,0,0,1,2.216.8,2.853,2.853,0,0,1,.941,2.073h-1.282a1.867,1.867,0,0,0-.582-1.263,1.811,1.811,0,0,0-1.293-.494,1.9,1.9,0,0,0-1.6.743,3.491,3.491,0,0,0-.568,2.15v.256a3.422,3.422,0,0,0,.564,2.109A1.906,1.906,0,0,0,133.374,13.041Zm7.141-2.417h-.989V14h-1.362V6.075h1.362V9.43h.886l2.666-3.354h1.641l-3.135,3.809,3.4,4.116h-1.721Zm10.759-4.548h1.355V14h-1.355V8.221L147.62,14h-1.355V6.075h1.355v5.786Zm6.819,8.071a3.463,3.463,0,0,1-2.622-1.058,3.928,3.928,0,0,1-1.011-2.831v-.249a4.756,4.756,0,0,1,.45-2.106,3.514,3.514,0,0,1,1.26-1.45,3.167,3.167,0,0,1,1.754-.524,2.968,2.968,0,0,1,2.4,1.018,4.408,4.408,0,0,1,.857,2.915v.564h-5.369a2.817,2.817,0,0,0,.685,1.893,2.153,2.153,0,0,0,1.666.721,2.36,2.36,0,0,0,1.216-.293,3.055,3.055,0,0,0,.872-.776l.828.645A3.328,3.328,0,0,1,158.093,14.146Zm-.168-7.1a1.807,1.807,0,0,0-1.377.6,2.9,2.9,0,0,0-.688,1.674h3.97v-.1a2.581,2.581,0,0,0-.557-1.6A1.7,1.7,0,0,0,157.925,7.042Zm8.181,2.922a4.681,4.681,0,0,1,.458-2.095,3.415,3.415,0,0,1,1.274-1.436,3.469,3.469,0,0,1,1.864-.505,3.342,3.342,0,0,1,2.618,1.121,4.311,4.311,0,0,1,1,2.981v.1a4.722,4.722,0,0,1-.443,2.076,3.365,3.365,0,0,1-1.267,1.432,3.509,3.509,0,0,1-1.893.513,3.334,3.334,0,0,1-2.611-1.121,4.29,4.29,0,0,1-1-2.966Zm1.362.161a3.39,3.39,0,0,0,.612,2.117,2.072,2.072,0,0,0,3.278-.011,3.707,3.707,0,0,0,.608-2.267,3.384,3.384,0,0,0-.619-2.113,1.968,1.968,0,0,0-1.644-.809,1.946,1.946,0,0,0-1.619.8A3.68,3.68,0,0,0,167.468,10.125Zm7.258.059a5.5,5.5,0,0,1,.769-3.12A2.417,2.417,0,0,1,177.6,5.929a2.622,2.622,0,0,1,1.091.212V2.75h1.355V6.185a2.655,2.655,0,0,1,1.2-.256,2.424,2.424,0,0,1,2.117,1.135,5.825,5.825,0,0,1,.769,3.274,4.573,4.573,0,0,1-.765,2.783,2.477,2.477,0,0,1-2.106,1.033,2.873,2.873,0,0,1-1.216-.234v3.127H178.7V13.941a2.725,2.725,0,0,1-1.106.212,2.47,2.47,0,0,1-2.1-1.033,4.655,4.655,0,0,1-.765-2.827Zm8.057,0a4.393,4.393,0,0,0-.513-2.318,1.588,1.588,0,0,0-1.414-.824,2.046,2.046,0,0,0-.806.146v5.735a2.339,2.339,0,0,0,.82.125,1.632,1.632,0,0,0,1.41-.7A3.744,3.744,0,0,0,182.783,10.184Zm-6.7.154a3.552,3.552,0,0,0,.476,2.021,1.564,1.564,0,0,0,1.37.688,2.136,2.136,0,0,0,.769-.132V7.167a2.015,2.015,0,0,0-.754-.125,1.525,1.525,0,0,0-1.377.8A4.974,4.974,0,0,0,176.082,10.338Zm14.941-4.263h1.355V14h-1.355V8.221L187.368,14h-1.355V6.075h1.355v5.786Zm6.709,6.965A1.952,1.952,0,0,0,199,12.6a1.546,1.546,0,0,0,.6-1.1h1.282a2.457,2.457,0,0,1-.469,1.3,3.087,3.087,0,0,1-1.154.981,3.329,3.329,0,0,1-1.527.366,3.265,3.265,0,0,1-2.574-1.08,4.3,4.3,0,0,1-.956-2.955V9.884a4.771,4.771,0,0,1,.425-2.058,3.236,3.236,0,0,1,1.219-1.4,3.464,3.464,0,0,1,1.879-.5,3.178,3.178,0,0,1,2.216.8,2.853,2.853,0,0,1,.941,2.073H199.6a1.867,1.867,0,0,0-.582-1.263,1.811,1.811,0,0,0-1.293-.494,1.9,1.9,0,0,0-1.6.743,3.491,3.491,0,0,0-.568,2.15v.256a3.422,3.422,0,0,0,.564,2.109A1.906,1.906,0,0,0,197.732,13.041Zm6.152-4.233h2.058a3.171,3.171,0,0,1,2.131.7,2.359,2.359,0,0,1,.784,1.868,2.426,2.426,0,0,1-.806,1.9,3.14,3.14,0,0,1-2.168.718h-3.354V6.075h1.355Zm7.8,5.193h-1.362V6.075h1.362Zm-7.8-4.087v2.981H205.9a1.657,1.657,0,0,0,1.179-.392,1.4,1.4,0,0,0,.417-1.073,1.491,1.491,0,0,0-.406-1.08,1.555,1.555,0,0,0-1.139-.436Z" transform="translate(854 970)"/></g></svg>