<?xml version="1.0" encoding="UTF-8"?>
<svg width="183" height="80px" viewBox="0 0 110 47" version="1.1" xmlns="http://www.w3.org/2000/svg" xmlns:xlink="http://www.w3.org/1999/xlink">
    <!-- Generator: sketchtool 52.4 (67378) - http://www.bohemiancoding.com/sketch -->
    <title>5D9A6743-04D7-41C8-B3A4-F6A3645E3ECD-500-00000BBA4E0D0C8C@2x</title>
    <desc>Created with sketchtool.</desc>
    <g id="Mobile" stroke="none" stroke-width="1" fill="none" fill-rule="evenodd">
        <g id="1.-Главная_01" transform="translate(-150.000000, -75.000000)">
            <g id="Element-/-Header">
                <g id="Main-Bar">
                    <g transform="translate(150.000000, 75.000000)">
                        <g id="Logo-/-Main">
                            <g>
                                <polygon id="Fill-1" fill="#00C1DE" points="16.3395 0.276277059 5.55555556e-05 23.5017418 1.91033333 23.5017418 18.2486667 0.277935882"></polygon>
                                <polygon id="Fill-2" fill="#00C1DE" points="18.24875 46.7249118 20.1590278 46.7249118 36.4973611 23.5013824 34.5881944 23.4994471"></polygon>
                                <path d="M10.66525,23.5017971 L6.60163889,23.5017971 L9.57525,19.2751147 L10.66525,19.2751147 L10.66525,23.5017971 Z M8.75469444,17.7257735 L4.69136111,23.5017971 L4.68997222,23.5017971 L4.68997222,23.5034559 L1.71941667,27.7259912 L3.62997222,27.7259912 L5.51163889,25.0511382 L10.66525,25.0511382 L10.66525,35.8954206 L12.3633056,35.8954206 L12.3633056,19.2751147 L12.3633056,17.7257735 L10.66525,17.7257735 L8.75469444,17.7257735 Z" id="Fill-3" fill="#3D4543"></path>
                                <g id="Group-62" transform="translate(14.166667, 6.913147)">
                                    <path d="M6.34641667,28.9821629 C6.34641667,30.2268335 5.33252778,31.2356747 4.08225,31.2356747 C2.83169444,31.2356747 1.81780556,30.2268335 1.81780556,28.9821629 L1.81780556,4.19270412 C1.81780556,2.94803353 2.83169444,1.93919235 4.08225,1.93919235 C5.33252778,1.93919235 6.34641667,2.94803353 6.34641667,4.19270412 L6.34641667,7.43238647 L8.04447222,7.43238647 L8.04447222,4.19270412 C8.04447222,2.01466882 6.27058333,0.248851176 4.08225,0.248851176 C1.89363889,0.248851176 0.11975,2.01466882 0.11975,4.19270412 L0.11975,28.9821629 C0.11975,31.1601982 1.89363889,32.9260159 4.08225,32.9260159 C6.27058333,32.9260159 8.04447222,31.1601982 8.04447222,28.9821629 L8.04447222,25.7427571 L6.34641667,25.7427571 L6.34641667,28.9821629 Z" id="Fill-4" fill="#3D4543"></path>
                                    <polygon id="Fill-6" fill="#3D4543" points="14.2004167 20.8129271 14.2004167 5.81135647 12.5023611 5.81135647 12.5023611 20.8129271 8.04458333 20.8129271 8.04458333 10.8127094 6.34652778 10.8127094 6.34652778 20.8129271 6.34652778 22.3622682 8.04458333 22.3622682 12.5023611 22.3622682 12.5373611 22.3622682 11.3479167 24.0526094 13.2584722 24.0526094 15.5376389 20.8129271"></polygon>
                                    <path d="M25.4745556,23.3400341 L25.4431667,23.3400341 L24.4923333,26.2003988 L26.4151111,26.2003988 L25.4745556,23.3400341 Z M24.1370556,27.2404812 L23.5306667,29.0709929 L22.2559444,29.0709929 L24.7326111,22.3621576 L26.2687222,22.3621576 L28.6198333,29.0709929 L27.3448333,29.0709929 L26.7495556,27.2404812 L24.1370556,27.2404812 Z" id="Fill-8" fill="#3D4543"></path>
                                    <path d="M30.0931389,28.2078518 L31.2948056,28.2078518 C31.5178611,28.2078518 31.7006389,28.1506224 31.8434167,28.0361635 C31.9861944,27.9217047 32.0575833,27.7605224 32.0575833,27.5526165 C32.0575833,27.3444341 31.9861944,27.1815929 31.8434167,27.0638165 C31.7006389,26.9457635 31.5109167,26.8868753 31.2739722,26.8868753 L30.0931389,26.8868753 L30.0931389,28.2078518 Z M30.0931389,26.0339635 L31.1903611,26.0339635 C31.4134167,26.0339635 31.58925,25.9803282 31.7181389,25.8727812 C31.8470278,25.7655106 31.9114722,25.6109635 31.9114722,25.4096929 C31.9114722,25.2227988 31.8434167,25.0787576 31.7075833,24.9783988 C31.57175,24.8777635 31.4028611,24.8274459 31.2009167,24.8274459 L30.0931389,24.8274459 L30.0931389,26.0339635 Z M31.3889722,23.9745341 C31.8348056,23.9745341 32.20925,24.0994988 32.5123056,24.3488753 C32.8153611,24.5988047 32.9670278,24.9106635 32.9670278,25.2850047 C32.9670278,25.5556694 32.8973056,25.7895635 32.7578611,25.98724 C32.6186944,26.1849165 32.4481389,26.3253635 32.2459167,26.4085812 C32.49675,26.4638753 32.7178611,26.6043224 32.9095278,26.8296459 C33.1009167,27.0549694 33.19675,27.3306106 33.19675,27.6565694 C33.19675,28.0519224 33.0539722,28.3864518 32.7684167,28.6601576 C32.4828611,28.93414 32.1134167,29.0712694 31.6606389,29.0712694 L28.9750833,29.0712694 L28.9750833,23.9745341 L31.3889722,23.9745341 Z" id="Fill-10" fill="#3D4543"></path>
                                    <polygon id="Fill-12" fill="#3D4543" points="36.1641111 24.9626953 36.1641111 29.0710482 35.0146667 29.0710482 35.0146667 24.9626953 33.5096667 24.9626953 33.5096667 23.9745894 37.6691111 23.9745894 37.6691111 24.9626953"></polygon>
                                    <path d="M39.2468056,25.3318941 C38.9681944,25.6473471 38.82875,26.0443588 38.82875,26.5229294 C38.82875,27.0012235 38.9681944,27.3985118 39.2468056,27.7136882 C39.5254167,28.0291412 39.8806944,28.1870059 40.3129167,28.1870059 C40.7448611,28.1870059 41.1018056,28.0291412 41.38375,27.7136882 C41.6659722,27.3985118 41.8073611,27.0012235 41.8073611,26.5229294 C41.8073611,26.0443588 41.6659722,25.6473471 41.38375,25.3318941 C41.1018056,25.0164412 40.7448611,24.8585765 40.3129167,24.8585765 C39.8806944,24.8585765 39.5254167,25.0164412 39.2468056,25.3318941 M42.2198611,24.6194294 C42.71125,25.1394706 42.9565278,25.7739706 42.9565278,26.5229294 C42.9565278,27.2577882 42.7093056,27.8889706 42.2148611,28.4159235 C41.7198611,28.9428765 41.0859722,29.2063529 40.3129167,29.2063529 C39.5395833,29.2063529 38.9054167,28.9428765 38.4106944,28.4159235 C37.91625,27.8889706 37.66875,27.2577882 37.66875,26.5229294 C37.66875,25.7739706 37.9143056,25.1394706 38.4056944,24.6194294 C38.8968056,24.0993882 39.5323611,23.8395059 40.3129167,23.8395059 C41.0929167,23.8395059 41.72875,24.0993882 42.2198611,24.6194294" id="Fill-14" fill="#3D4543"></path>
                                    <path d="M48.4007222,22.5133318 C48.7840556,22.6761729 49.0835,22.8685965 49.2993333,23.0906024 L48.6515556,23.9225024 C48.2404444,23.5133259 47.7215556,23.3087376 47.0946111,23.3087376 C46.4118333,23.3087376 45.8612778,23.5288082 45.4435,23.9695024 C45.0254444,24.4096435 44.8162778,24.9941024 44.8162778,25.7217729 C44.8162778,26.4430847 45.0254444,27.0289259 45.4435,27.4795729 C45.8612778,27.9304965 46.4012778,28.15582 47.0632222,28.15582 C47.7112778,28.15582 48.2546111,27.9130788 48.6935,27.4275965 L49.3621111,28.2390376 C48.7840556,28.8768553 47.976,29.1959024 46.9376667,29.1959024 C45.9901667,29.1959024 45.1943333,28.8718788 44.5498889,28.2235553 C43.9054444,27.5752318 43.5832222,26.74112 43.5832222,25.7217729 C43.5832222,24.6957906 43.9123889,23.8636141 44.5707222,23.22552 C45.2290556,22.5877024 46.0701667,22.2686553 47.0946111,22.2686553 C47.5821111,22.2686553 48.0176667,22.3502141 48.4007222,22.5133318" id="Fill-16" fill="#3D4543"></path>
                                    <polygon id="Fill-18" fill="#3D4543" points="53.4164444 29.0711312 53.4164444 24.9627782 51.2322778 24.9627782 51.2322778 29.0711312 50.0828333 29.0711312 50.0828333 23.9743959 54.5658889 23.9743959 54.5658889 29.0711312"></polygon>
                                    <path d="M57.2668056,25.20704 C57.0126389,25.4392753 56.8748611,25.7010929 56.8540278,25.9922165 L59.5081944,25.9922165 C59.5015278,25.6734459 59.3706944,25.4047165 59.1165278,25.1863047 C58.8620833,24.9678929 58.5643056,24.8586871 58.2229167,24.8586871 C57.8398611,24.8586871 57.5209722,24.9748047 57.2668056,25.20704 M59.9523611,24.5675635 C60.4226389,25.0527694 60.6579167,25.6734459 60.6579167,26.42904 C60.6579167,26.6303106 60.65125,26.8138871 60.6370833,26.9805988 L56.8540278,26.9805988 C56.8890278,27.3062812 57.0404167,27.5871753 57.3084722,27.8230047 C57.5768056,28.0588341 57.9059722,28.1766106 58.2959722,28.1766106 C58.7559722,28.1766106 59.1773611,27.9684282 59.5606944,27.5526165 L60.2818056,28.2493224 C59.7868056,28.8805047 59.11125,29.1959576 58.2543056,29.1959576 C57.4740278,29.1959576 56.8401389,28.9377341 56.3523611,28.4210106 C55.8645833,27.9045635 55.6206944,27.2717224 55.6206944,26.5227635 C55.6206944,25.7740812 55.8645833,25.1395812 56.3523611,24.61954 C56.8401389,24.0994988 57.4601389,23.83934 58.2123611,23.83934 C58.9023611,23.83934 59.4823611,24.0820812 59.9523611,24.5675635" id="Fill-20" fill="#3D4543"></path>
                                    <polygon id="Fill-22" fill="#3D4543" points="66.5617778 28.08297 66.5617778 29.7782876 65.4120556 29.7782876 65.4120556 29.0710759 61.7128889 29.0710759 61.7128889 23.9746171 62.8626111 23.9746171 62.8626111 28.08297 64.8895556 28.08297 64.8895556 23.9746171 66.0392778 23.9746171 66.0392778 28.08297"></polygon>
                                    <polygon id="Fill-24" fill="#3D4543" points="73.5002778 28.0309935 73.5002778 30.0177112 72.3088889 30.0177112 72.3088889 29.0710759 67.7630556 29.0710759 67.7630556 22.3934818 68.9544444 22.3934818 68.9544444 28.0309935 71.7341667 28.0309935 71.7341667 22.3934818 72.9255556 22.3934818 72.9255556 28.0309935"></polygon>
                                    <path d="M75.7726667,25.20704 C75.5182222,25.4392753 75.3807222,25.7010929 75.3601667,25.9922165 L78.0140556,25.9922165 C78.0073889,25.6734459 77.8765556,25.4047165 77.6223889,25.1863047 C77.3679444,24.9678929 77.0701667,24.8586871 76.7287778,24.8586871 C76.3457222,24.8586871 76.0268333,24.9748047 75.7726667,25.20704 M78.4582222,24.5675635 C78.9285,25.0527694 79.1637778,25.6734459 79.1637778,26.42904 C79.1637778,26.6303106 79.1571111,26.8138871 79.1429444,26.9805988 L75.3601667,26.9805988 C75.3948889,27.3062812 75.5462778,27.5871753 75.8143333,27.8230047 C76.0823889,28.0588341 76.4118333,28.1766106 76.8021111,28.1766106 C77.2618333,28.1766106 77.6832222,27.9684282 78.0665556,27.5526165 L78.7876667,28.2493224 C78.2926667,28.8805047 77.6171111,29.1959576 76.7601667,29.1959576 C75.9798889,29.1959576 75.346,28.9377341 74.8582222,28.4210106 C74.3707222,27.9045635 74.1268333,27.2717224 74.1268333,26.5227635 C74.1268333,25.7740812 74.3707222,25.1395812 74.8582222,24.61954 C75.346,24.0994988 75.9657222,23.83934 76.7182222,23.83934 C77.4082222,23.83934 77.9882222,24.0820812 78.4582222,24.5675635" id="Fill-26" fill="#3D4543"></path>
                                    <polygon id="Fill-28" fill="#3D4543" points="83.6046944 29.0711312 83.6046944 26.9492194 81.3683056 26.9492194 81.3683056 29.0711312 80.2188611 29.0711312 80.2188611 23.9743959 81.3683056 23.9743959 81.3683056 25.9611135 83.6046944 25.9611135 83.6046944 23.9743959 84.7544167 23.9743959 84.7544167 29.0711312"></polygon>
                                    <polygon id="Fill-30" fill="#3D4543" points="88.1497778 24.9626953 88.1497778 29.0710482 87.0003333 29.0710482 87.0003333 24.9626953 85.4956111 24.9626953 85.4956111 23.9745894 89.6547778 23.9745894 89.6547778 24.9626953"></polygon>
                                    <path d="M91.9380278,25.34757 C91.6419167,25.6597053 91.4938611,26.0511876 91.4938611,26.5228465 C91.4938611,26.9942288 91.6419167,27.3879229 91.9380278,27.7033759 C92.2341389,28.0188288 92.6121944,28.1764171 93.0719167,28.1764171 C93.5108056,28.1764171 93.8835833,28.01717 94.1896944,27.6981229 C94.4966389,27.3790759 94.6499722,26.9873171 94.6499722,26.5228465 C94.6499722,26.0580994 94.4966389,25.6682759 94.1896944,25.3528229 C93.8835833,25.0370935 93.5108056,24.8795053 93.0719167,24.8795053 C92.6121944,24.8795053 92.2341389,25.0354347 91.9380278,25.34757 M95.0783056,24.6245994 C95.5588611,25.1344112 95.7994167,25.7669759 95.7994167,26.5228465 C95.7994167,27.2787171 95.5588611,27.9129406 95.0783056,28.4263465 C94.5974722,28.9394759 93.9566389,29.1957641 93.1555278,29.1957641 C92.4655278,29.1957641 91.9221944,29.0052759 91.52525,28.6240229 C91.5391389,28.7628112 91.5460833,28.86317 91.5460833,28.9253759 L91.5460833,31.0472876 L90.3963611,31.0472876 L90.3963611,23.9746171 L91.5146944,23.9746171 L91.5146944,24.1203171 C91.5146944,24.1966229 91.50775,24.3038935 91.4938611,24.4426818 C91.9116389,24.0542406 92.4655278,23.8601582 93.1555278,23.8601582 C93.9566389,23.8601582 94.5974722,24.1150641 95.0783056,24.6245994" id="Fill-32" fill="#3D4543"></path>
                                    <polygon id="Fill-34" fill="#00C1DE" points="23.1373056 33.4664606 23.1373056 35.7799665 22.3309167 35.7799665 22.3309167 32.8761959 24.0859167 32.8761959 24.0859167 33.4664606"></polygon>
                                    <path d="M25.5746389,33.7261771 C25.4246389,33.8834888 25.3493611,34.0842065 25.3493611,34.3280535 C25.3493611,34.5641594 25.4246389,34.7629418 25.5746389,34.9244006 C25.7249167,35.0855829 25.9146389,35.1660359 26.1440833,35.1660359 C26.3613056,35.1660359 26.54825,35.0855829 26.7040833,34.9244006 C26.8604722,34.7629418 26.9385278,34.5641594 26.9385278,34.3280535 C26.9385278,34.0883535 26.8615833,33.8884653 26.7071389,33.7292182 C26.5529722,33.5699712 26.3654722,33.4900712 26.1440833,33.4900712 C25.9146389,33.4900712 25.7249167,33.5688653 25.5746389,33.7261771 M27.3626944,33.2423535 C27.6213056,33.5334771 27.75075,33.8953771 27.75075,34.3280535 C27.75075,34.7571359 27.6204722,35.1182065 27.3596389,35.4112653 C27.0985278,35.7043241 26.7624167,35.8508535 26.3515833,35.8508535 C26.1421389,35.8508535 25.9513056,35.8085535 25.7790833,35.7239535 C25.6074167,35.6393535 25.4760278,35.5359535 25.3849167,35.41403 C25.3888056,35.4809359 25.3910278,35.5713418 25.3910278,35.6855241 L25.3910278,36.9011653 L24.5846389,36.9011653 L24.5846389,32.8763065 L25.3671389,32.8763065 L25.3671389,32.9708594 C25.3671389,33.0338947 25.3629722,33.1478006 25.3551944,33.3128535 C25.4460278,33.1713006 25.5804722,33.0515888 25.7585278,32.9531653 C25.9365833,32.8547418 26.1340833,32.80553 26.3515833,32.80553 C26.7665833,32.80553 27.1035278,32.9509535 27.3626944,33.2423535" id="Fill-36" fill="#00C1DE"></path>
                                    <path d="M28.5341667,36.9012759 L29.0680556,35.6917171 L27.9591667,32.8761406 L28.8305556,32.8761406 L29.4236111,34.58777 C29.4433333,34.6469347 29.4669444,34.7356818 29.495,34.8534582 L29.5008333,34.8534582 C29.5205556,34.7630524 29.5463889,34.6743053 29.5780556,34.58777 L30.1947222,32.8761406 L31.0661111,32.8761406 L29.3941667,36.9012759 L28.5341667,36.9012759 Z" id="Fill-38" fill="#00C1DE"></path>
                                    <polygon id="Fill-40" fill="#00C1DE" points="33.2783611 35.7799941 33.2783611 33.4783765 32.1814167 33.4783765 32.1814167 35.7799941 31.3750278 35.7799941 31.3750278 32.8762235 34.0908611 32.8762235 34.0908611 35.7799941"></polygon>
                                    <polygon id="Fill-42" fill="#00C1DE" points="36.8726667 35.7799941 36.8726667 33.4783765 35.7757222 33.4783765 35.7757222 35.7799941 34.9690556 35.7799941 34.9690556 32.8762235 37.6848889 32.8762235 37.6848889 35.7799941"></polygon>
                                    <path d="M39.3843333,33.7321212 C39.2282222,33.8933035 39.1501667,34.0920859 39.1501667,34.3281918 C39.1501667,34.5642976 39.2282222,34.76308 39.3843333,34.9242624 C39.5404444,35.0857212 39.7271111,35.1661741 39.9448889,35.1661741 C40.1740556,35.1661741 40.3637778,35.0865506 40.5137778,34.9273035 C40.6640556,34.7680565 40.7393333,34.5681682 40.7393333,34.3281918 C40.7393333,34.0882153 40.6640556,33.8886035 40.5137778,33.72908 C40.3637778,33.5698329 40.1740556,33.4902094 39.9448889,33.4902094 C39.7271111,33.4902094 39.5404444,33.5709388 39.3843333,33.7321212 M40.3332222,32.94418 C40.5090556,33.0365212 40.6423889,33.1537447 40.7332222,33.2952976 C40.7254444,33.1379859 40.7212778,33.0296094 40.7212778,32.9707212 L40.7212778,32.8761682 L41.5043333,32.8761682 L41.5043333,35.7799388 L40.7212778,35.7799388 L40.7212778,35.6853859 C40.7212778,35.6148859 40.7254444,35.5007035 40.7332222,35.3431153 C40.6385,35.4888153 40.5029444,35.6099094 40.3271111,35.7063976 C40.1512778,35.8026094 39.9546111,35.8507153 39.7373889,35.8507153 C39.326,35.8507153 38.9898889,35.7041859 38.7293333,35.4111271 C38.4682222,35.1180682 38.3376667,34.7569976 38.3376667,34.3281918 C38.3376667,33.8993859 38.4682222,33.5383153 38.7293333,33.2452565 C38.9898889,32.9521976 39.326,32.8053918 39.7373889,32.8053918 C39.9585,32.8053918 40.1571111,32.8518388 40.3332222,32.94418" id="Fill-44" fill="#00C1DE"></path>
                                    <path d="M47.1265833,35.7799941 L46.1421389,35.7799941 L45.0096389,34.2751647 L46.0651944,32.8762235 L47.0551944,32.8762235 L45.9288056,34.2809706 L47.1265833,35.7799941 Z M44.1615833,35.7799941 L44.9679722,35.7799941 L44.9679722,32.8762235 L44.1615833,32.8762235 L44.1615833,35.7799941 Z" id="Fill-46" fill="#00C1DE"></path>
                                    <path d="M48.2477222,33.7291629 C48.1055,33.8886865 48.0341111,34.0882982 48.0341111,34.3282747 C48.0341111,34.5682512 48.1055,34.7678629 48.2477222,34.92711 C48.3902222,35.0866335 48.5699444,35.1662571 48.7874444,35.1662571 C49.0049444,35.1662571 49.1857778,35.0866335 49.3299444,34.92711 C49.4741111,34.7678629 49.5466111,34.5682512 49.5466111,34.3282747 C49.5466111,34.0882982 49.4741111,33.8886865 49.3299444,33.7291629 C49.1857778,33.5699159 49.0049444,33.4900159 48.7874444,33.4900159 C48.5699444,33.4900159 48.3902222,33.5699159 48.2477222,33.7291629 M49.9082778,33.2364924 C50.1927222,33.5314865 50.3352222,33.8953218 50.3352222,34.3282747 C50.3352222,34.7490629 50.1916111,35.1101335 49.9052222,35.41121 C49.6185556,35.7122865 49.2460556,35.8626865 48.7874444,35.8626865 C48.3288333,35.8626865 47.9574444,35.7122865 47.6727222,35.41121 C47.388,35.1101335 47.2460556,34.7490629 47.2460556,34.3282747 C47.2460556,33.8953218 47.388,33.5314865 47.6727222,33.2364924 C47.9574444,32.9412218 48.3288333,32.7935865 48.7874444,32.7935865 C49.2496667,32.7935865 49.6235556,32.9412218 49.9082778,33.2364924" id="Fill-48" fill="#00C1DE"></path>
                                    <polygon id="Fill-50" fill="#00C1DE" points="54.0476944 35.7799941 53.9229722 33.6907059 53.1818611 35.7681059 52.45825 35.7681059 51.7643611 33.6849 51.6343611 35.7799941 50.9049167 35.7799941 51.1421389 32.8762235 52.2213056 32.8762235 52.8318611 34.8297647 52.8379722 34.8297647 53.50825 32.8762235 54.5754722 32.8762235 54.8065833 35.7799941"></polygon>
                                    <polygon id="Fill-52" fill="#00C1DE" points="57.5055278 35.7799941 57.5055278 33.4783765 56.4085833 33.4783765 56.4085833 35.7799941 55.6019167 35.7799941 55.6019167 32.8762235 58.31775 32.8762235 58.31775 35.7799941"></polygon>
                                    <path d="M60.0171944,33.7321212 C59.8610833,33.8933035 59.7830278,34.0920859 59.7830278,34.3281918 C59.7830278,34.5642976 59.8610833,34.76308 60.0171944,34.9242624 C60.1733056,35.0857212 60.3599722,35.1661741 60.5774722,35.1661741 C60.8069167,35.1661741 60.9966389,35.0865506 61.1466389,34.9273035 C61.2969167,34.7680565 61.3721944,34.5681682 61.3721944,34.3281918 C61.3721944,34.0882153 61.2969167,33.8886035 61.1466389,33.72908 C60.9966389,33.5698329 60.8069167,33.4902094 60.5774722,33.4902094 C60.3599722,33.4902094 60.1733056,33.5709388 60.0171944,33.7321212 M60.9660833,32.94418 C61.1419167,33.0365212 61.2749722,33.1537447 61.3660833,33.2952976 C61.3580278,33.1379859 61.3541389,33.0296094 61.3541389,32.9707212 L61.3541389,32.8761682 L62.1371944,32.8761682 L62.1371944,35.7799388 L61.3541389,35.7799388 L61.3541389,35.6853859 C61.3541389,35.6148859 61.3580278,35.5007035 61.3660833,35.3431153 C61.2713611,35.4888153 61.1358056,35.6099094 60.9599722,35.7063976 C60.7841389,35.8026094 60.5874722,35.8507153 60.37025,35.8507153 C59.9588611,35.8507153 59.62275,35.7041859 59.3619167,35.4111271 C59.1010833,35.1180682 58.9705278,34.7569976 58.9705278,34.3281918 C58.9705278,33.8993859 59.1010833,33.5383153 59.3619167,33.2452565 C59.62275,32.9521976 59.9588611,32.8053918 60.37025,32.8053918 C60.5913611,32.8053918 60.7899722,32.8518388 60.9660833,32.94418" id="Fill-54" fill="#00C1DE"></path>
                                    <polygon id="Fill-56" fill="#00C1DE" points="64.9428611 35.7799941 64.9428611 34.6055471 63.8220278 34.6055471 63.8220278 35.7799941 63.0156389 35.7799941 63.0156389 32.8762235 63.8220278 32.8762235 63.8220278 33.9857 64.9428611 33.9857 64.9428611 32.8762235 65.7489722 32.8762235 65.7489722 35.7799941"></polygon>
                                    <path d="M68.5960278,35.7799941 L68.5960278,34.1333353 C68.5960278,34.0586882 68.6079722,33.9702176 68.6315833,33.8676471 L68.62575,33.8676471 L67.4515833,35.7860765 L66.6274167,35.7860765 L66.6274167,32.8762235 L67.3688056,32.8762235 L67.3688056,34.5112706 C67.3688056,34.6174353 67.3588056,34.7139235 67.3390833,34.8001824 L67.3449167,34.8001824 L68.5129722,32.8706941 L69.3374167,32.8706941 L69.3374167,35.7799941 L68.5960278,35.7799941 Z" id="Fill-58" fill="#00C1DE"></path>
                                    <path d="M72.5459444,31.6429435 C72.5381667,31.9025494 72.4431667,32.1082435 72.2615,32.2594729 C72.0792778,32.4109788 71.8501111,32.4867318 71.5734444,32.4867318 C71.2965,32.4867318 71.0665,32.4109788 70.8826111,32.2594729 C70.6987222,32.1082435 70.6028889,31.9025494 70.5951111,31.6429435 L71.2056667,31.6429435 C71.1820556,31.7491082 71.2067778,31.8356435 71.2795556,31.9025494 C71.3528889,31.9694553 71.4509444,32.0029082 71.5734444,32.0029082 C71.6959444,32.0029082 71.7928889,31.9694553 71.864,31.9025494 C71.9351111,31.8356435 71.959,31.7491082 71.9351111,31.6429435 L72.5459444,31.6429435 Z M72.184,35.7800494 L72.184,34.1333906 C72.184,34.0587435 72.1959444,33.9702729 72.2195556,33.8677024 L72.214,33.8677024 L71.0395556,35.7861318 L70.2153889,35.7861318 L70.2153889,32.8762788 L70.9567778,32.8762788 L70.9567778,34.5113259 C70.9567778,34.6174906 70.9467778,34.7137024 70.9270556,34.8002376 L70.9328889,34.8002376 L72.1009444,32.8704729 L72.9253889,32.8704729 L72.9253889,35.7800494 L72.184,35.7800494 Z" id="Fill-60" fill="#00C1DE"></path>
                                </g>
                            </g>
                        </g>
                    </g>
                </g>
            </g>
        </g>
    </g>
</svg>