<svg xmlns="http://www.w3.org/2000/svg" width="70" height="75" viewBox="0 0 70 75">
    <g fill="none" fill-rule="evenodd">
        <circle cx="35" cy="27" r="22" fill="#FFF"/>
        <path fill="#CEEAF2" d="M66.615 25.29c1.002.601 1.645 1.657 1.718 2.824v25.997C68.31 57.896 67.15 61.587 65 64.702c-1.228 1.595-5.008 9.457-5.008 9.457H51.8c0-7.358 3.496-9.248 5.682-12.318 3.394-4.765 7.276-8.955 7.276-14.111V28.676c0-1.84.1-3.013 1.857-3.386zM3.385 25.29c-1.002.601-1.644 1.657-1.717 2.824v25.997C1.689 57.896 2.85 61.586 5 64.702c1.228 1.595 5.009 9.457 5.009 9.457H18.2c0-7.736-4.328-10.135-5.683-12.318-3.448-5.556-7.276-7.916-7.276-14.111V28.676c0-1.84-.099-3.013-1.857-3.386zM51.37 13.664c5.602 8.247 4.195 19.373-3.284 25.965-7.478 6.592-18.693 6.592-26.171 0-7.479-6.592-8.886-17.718-3.285-25.965-7.352 8.689-6.635 21.608 1.633 29.43 8.268 7.822 21.207 7.822 29.475 0s8.985-20.741 1.632-29.43z"/>
        <circle cx="35.065" cy="27.501" r="2.36" fill="#3DAFCC"/>
        <path fill="#3DAFCC" fill-rule="nonzero" d="M35.065.89C26.152.893 17.832 5.358 12.9 12.782c-4.931 7.425-5.82 16.825-2.368 25.043 1.172-.434 2.49-.163 3.395.699 1.25 1.385 1.06 6.44 1.06 6.44 5.034 5.787 12.32 9.12 19.99 9.145 7.67.026 14.978-3.26 20.05-9.013 0 0-.58-4.567.79-6.28.93-1.074 2.433-1.45 3.76-.94 0 0 .722-1.848 1.007-2.806 2.38-8.052.823-16.754-4.2-23.482C51.362 4.862 43.461.896 35.065.89zM35 48.944c-11.843 0-21.445-9.6-21.445-21.444s9.6-21.445 21.444-21.446c11.844 0 21.445 9.6 21.446 21.444 0 5.688-2.26 11.143-6.28 15.164-4.023 4.022-9.477 6.282-15.165 6.282z"/>
        <path fill="#1F282C" d="M35 55.034c-5.747.015-11.352-1.784-16.017-5.14-.245-.175-.378-.467-.35-.766.03-.3.217-.56.49-.684.275-.124.594-.092.838.084 8.734 6.249 20.422 6.446 29.363.496.214-.136.412-.294.59-.473.206-.22.512-.312.805-.244.292.068.526.287.614.574.087.287.014.6-.19.819-.269.272-.566.514-.887.722C45.74 53.438 40.43 55.043 35 55.034zM9.07 22.064c-.067 0-.133-.008-.197-.023-.451-.109-.729-.563-.62-1.014 1.257-5.194 4.004-9.908 7.904-13.562.219-.206.53-.28.818-.193.287.086.507.32.576.612.069.292-.024.6-.242.805-3.662 3.43-6.242 7.855-7.422 12.732-.092.377-.43.643-.817.643zM60.93 22.064c-.388 0-.725-.266-.817-.643-1.878-7.718-7.2-14.145-14.433-17.429C38.447.71 30.105.932 23.059 4.6c-.266.139-.586.125-.84-.036-.253-.161-.402-.445-.389-.745.013-.3.185-.57.45-.71 7.506-3.905 16.39-4.144 24.095-.646C54.08 5.96 59.748 12.806 61.748 21.027c.107.451-.17.905-.62 1.014-.065.015-.131.023-.198.023z"/>
        <path fill="#1F282C" d="M35 49.846c-6.053.02-11.85-2.437-16.045-6.8-.211-.216-.29-.528-.209-.818.083-.29.314-.513.607-.586.292-.073.601.017.81.235 3.89 4.02 9.244 6.288 14.837 6.288s10.947-2.269 14.838-6.288c.323-.33.852-.337 1.184-.015.332.32.342.85.023 1.184-4.194 4.364-9.992 6.82-16.045 6.8zM55.894 33.397c-.066 0-.132-.008-.197-.023-.45-.109-.729-.563-.62-1.014 1.996-8.313-1.337-16.996-8.382-21.838-7.046-4.842-16.346-4.841-23.391.001-7.046 4.843-10.378 13.526-8.381 21.838.07.293-.021.6-.24.807-.217.206-.529.28-.817.195-.288-.086-.508-.319-.578-.611-2.157-8.989 1.448-18.378 9.066-23.613 7.619-5.236 17.676-5.235 25.294 0 7.618 5.237 11.222 14.626 9.063 23.615-.091.377-.429.642-.817.643z"/>
        <path fill="#1F282C" d="M35 11.181c-.223 0-.437-.088-.594-.245-.158-.158-.246-.372-.246-.595V6.03c0-.464.376-.84.84-.84.464 0 .84.376.84.84v4.312c0 .223-.088.437-.246.595-.157.157-.371.246-.594.245zM56.488 28.357h-4.312c-.464 0-.84-.376-.84-.84 0-.464.376-.84.84-.84h4.312c.464 0 .84.376.84.84 0 .464-.376.84-.84.84zM35 49.846c-.223 0-.437-.089-.594-.246-.158-.158-.246-.372-.246-.594v-4.313c0-.464.376-.84.84-.84.464 0 .84.376.84.84v4.313c0 .222-.088.436-.246.594-.157.157-.371.246-.594.246zM17.824 28.357h-4.312c-.464 0-.84-.376-.84-.84 0-.464.376-.84.84-.84h4.312c.464 0 .84.376.84.84 0 .464-.376.84-.84.84zM25.453 11.821c-.3 0-.577-.16-.727-.42L23.53 9.33c-.152-.26-.153-.581-.003-.842.15-.26.428-.421.729-.421.3 0 .578.162.728.423l1.196 2.072c.15.26.15.58 0 .84s-.427.42-.727.42zM18.464 18.81c-.148 0-.293-.039-.42-.113l-2.073-1.196c-.26-.15-.422-.427-.422-.728 0-.3.16-.579.42-.729.262-.15.583-.149.843.003l2.072 1.196c.329.19.49.578.39.945-.097.367-.43.622-.81.622zM17.939 38.036c-.38 0-.713-.256-.81-.623-.1-.367.06-.754.39-.944l1.707-.985c.26-.152.58-.153.841-.003s.422.428.421.73c0 .3-.161.578-.422.727l-1.707.985c-.128.074-.272.113-.42.113zM24.257 46.968c-.3 0-.579-.16-.73-.42-.15-.26-.15-.58.001-.84l1.196-2.075c.233-.4.746-.538 1.148-.306.401.231.54.744.31 1.146l-1.197 2.074c-.15.26-.428.42-.728.42zM45.745 46.968c-.3 0-.577-.16-.727-.42l-1.198-2.075c-.152-.26-.153-.58-.003-.842.15-.26.428-.421.73-.42.3 0 .578.16.727.422l1.198 2.074c.15.26.15.58 0 .84s-.427.42-.727.42zM51.879 38.103c-.148 0-.293-.039-.42-.113l-1.613-.932c-.4-.233-.538-.746-.306-1.147.232-.4.745-.538 1.146-.307l1.613.932c.329.19.49.578.39.945-.098.367-.43.622-.81.622zM51.536 18.81c-.38 0-.714-.255-.813-.623-.098-.367.063-.756.393-.945l2.074-1.197c.402-.232.917-.094 1.149.309.232.402.094.916-.309 1.148L51.956 18.7c-.128.073-.273.111-.42.111zM44.547 11.821c-.148 0-.293-.038-.42-.113-.193-.11-.334-.294-.392-.51-.057-.215-.027-.444.085-.637l1.198-2.072c.234-.399.745-.535 1.147-.307.193.11.334.294.392.51.057.215.027.444-.085.637L45.274 11.4c-.15.26-.427.42-.727.42zM42.402 32.565c-.146 0-.29-.039-.416-.112l-5.33-3.049c-.4-.23-.54-.742-.31-1.144.23-.401.741-.541 1.143-.313l5.33 3.05c.33.188.492.576.394.944-.097.367-.43.623-.81.624zM35 25.985c-.223 0-.437-.089-.594-.246-.158-.158-.246-.372-.246-.595V15.43c0-.464.376-.84.84-.84.464 0 .84.376.84.84v9.714c0 .223-.088.437-.246.595-.157.157-.371.246-.594.246z"/>
        <path fill="#1F282C" d="M35.39 30.576c-.435-.001-.797-.335-.834-.768-.037-.434.263-.824.692-.9.677-.119 1.17-.709 1.166-1.397-.003-.687-.502-1.272-1.18-1.384-.68-.113-1.34.28-1.565.93-.15.44-.628.673-1.066.523-.44-.15-.673-.628-.522-1.067.49-1.426 1.937-2.29 3.425-2.045 1.487.245 2.581 1.527 2.589 3.034.007 1.508-1.073 2.801-2.558 3.06-.048.01-.097.015-.146.014zM1.677 53.928c-.223 0-.437-.088-.594-.245-.158-.158-.246-.372-.246-.595V28.11c0-2.302 1.866-4.168 4.168-4.168s4.168 1.866 4.168 4.168v22.518c0 .464-.376.84-.84.84-.464 0-.84-.376-.84-.84V28.11c.002-.89-.472-1.714-1.242-2.16-.771-.446-1.721-.446-2.492 0-.77.446-1.244 1.27-1.242 2.16v24.978c0 .223-.088.437-.246.595-.157.157-.371.246-.594.245z"/>
        <path fill="#1F282C" d="M26.58 75c-.223 0-.436-.088-.594-.246-.158-.158-.246-.371-.246-.594v-7.38c0-5.34-4.63-9.109-8.352-12.138l-.77-.627c-1.604-1.41-2.508-3.454-2.47-5.59l-.001-7.47c.002-.89-.472-1.713-1.242-2.16-.77-.445-1.72-.445-2.49 0-.77.447-1.244 1.27-1.242 2.16v9.673c0 1.453 0 4.472.919 5.775l3.139 4.992c.247.393.128.912-.266 1.158-.393.247-.912.128-1.158-.266l-3.113-4.954c-1.201-1.698-1.201-4.955-1.201-6.705v-9.673c0-2.301 1.865-4.167 4.167-4.167 2.301 0 4.167 1.866 4.167 4.167v7.509c-.016 1.617.66 3.165 1.858 4.252l.763.623c3.997 3.253 8.972 7.301 8.972 13.441v7.38c0 .223-.088.436-.246.594-.157.158-.37.246-.594.246zM10.008 75c-.385 0-.72-.262-.815-.635-.927-2.756-2.261-5.358-3.958-7.72-1.723-2.355-3.045-4.98-3.912-7.766-.38-1.917-.542-3.87-.486-5.823-.002-.227.091-.444.258-.597.166-.154.39-.23.615-.21.464.018.825.408.807.872-.048 1.81.101 3.619.447 5.396.835 2.59 2.08 5.029 3.688 7.225 1.801 2.509 3.208 5.278 4.172 8.213.112.45-.16.907-.61 1.02-.068.017-.137.025-.206.025zM68.323 53.928c-.223 0-.437-.088-.594-.245-.158-.158-.246-.372-.246-.595V28.11c.002-.89-.471-1.714-1.242-2.16-.77-.445-1.72-.445-2.49 0-.77.446-1.244 1.27-1.242 2.16v22.518c0 .464-.376.84-.84.84-.464 0-.84-.376-.84-.84V28.11c0-2.302 1.865-4.168 4.167-4.168 2.301 0 4.167 1.866 4.167 4.168v24.978c0 .223-.088.437-.246.595-.157.157-.371.246-.594.245z"/>
        <path fill="#1F282C" d="M43.421 75c-.222 0-.436-.088-.594-.246-.157-.158-.246-.371-.246-.594v-7.38c0-6.142 4.976-10.19 8.973-13.442l.761-.622c1.19-1.078 1.866-2.61 1.858-4.216v-7.545c0-2.302 1.866-4.168 4.168-4.168s4.168 1.866 4.168 4.168v9.673c0 1.75 0 5.007-1.227 6.743-.173.245-.464.38-.763.352-.298-.027-.56-.212-.686-.484-.125-.272-.096-.591.077-.836.919-1.303.919-4.322.919-5.775v-9.673c-.004-1.371-1.117-2.481-2.488-2.481s-2.484 1.11-2.488 2.481v7.509c.027 2.123-.876 4.15-2.471 5.551l-.768.626c-3.722 3.029-8.352 6.796-8.352 12.14v7.379c0 .223-.089.436-.246.594-.158.158-.372.246-.595.246z"/>
        <path fill="#1F282C" d="M57.355 62.883c-.159 0-.314-.044-.448-.13-.189-.118-.322-.307-.372-.524-.049-.218-.01-.446.11-.634l.754-1.2c.25-.387.765-.502 1.155-.256s.509.76.266 1.152l-.755 1.2c-.153.244-.422.392-.71.392zM59.992 75c-.07 0-.138-.008-.205-.025-.45-.113-.723-.57-.61-1.02.963-2.935 2.37-5.705 4.172-8.215 1.607-2.195 2.852-4.633 3.69-7.222.343-1.777.492-3.587.444-5.397-.018-.464.343-.854.807-.873h.033c.451 0 .822.356.84.807.056 1.954-.106 3.907-.484 5.824-.868 2.786-2.19 5.41-3.912 7.765-1.698 2.361-3.033 4.964-3.96 7.721-.095.373-.43.634-.815.635z"/>
    </g>
</svg>
