<svg width="691" height="312" viewBox="0 0 691 312" fill="none" xmlns="http://www.w3.org/2000/svg">
<path d="M64.6693 138.223H68.3988V138.608C68.3988 140.658 67.3046 142.276 64.9159 142.276C62.0648 142.276 60.909 139.933 60.909 137.498C60.909 135.032 62.1111 132.721 64.9467 132.721C66.719 132.721 67.6437 133.522 68.0289 134.755H69.0923C68.6608 132.906 67.1505 131.796 64.9467 131.796C61.6796 131.796 59.8919 134.293 59.8919 137.498C59.8919 140.642 61.6333 143.2 64.9159 143.2C68.1985 143.2 69.4468 140.827 69.4468 138.3V137.298H64.6693V138.223ZM74.907 135.094C72.5029 135.094 71.1929 136.913 71.1929 139.147C71.1929 141.382 72.5029 143.2 74.907 143.2C77.2957 143.2 78.6211 141.382 78.6211 139.147C78.6211 136.913 77.2957 135.094 74.907 135.094ZM74.907 142.337C73.0114 142.337 72.1638 140.765 72.1638 139.147C72.1638 137.529 73.0114 135.957 74.907 135.957C76.7563 135.957 77.6502 137.529 77.6502 139.147C77.6502 140.765 76.7563 142.337 74.907 142.337ZM83.967 135.094C81.5629 135.094 80.253 136.913 80.253 139.147C80.253 141.382 81.5629 143.2 83.967 143.2C86.3558 143.2 87.6811 141.382 87.6811 139.147C87.6811 136.913 86.3558 135.094 83.967 135.094ZM83.967 142.337C82.0715 142.337 81.2239 140.765 81.2239 139.147C81.2239 137.529 82.0715 135.957 83.967 135.957C85.8164 135.957 86.7102 137.529 86.7102 139.147C86.7102 140.765 85.8164 142.337 83.967 142.337ZM95.5545 135.294V136.157H95.2463C94.7994 135.618 94.0134 135.094 92.7651 135.094C90.623 135.094 89.313 136.789 89.313 139.055C89.313 141.305 90.623 143 92.7651 143C93.9826 143 94.7686 142.491 95.2155 141.937H95.5237V142.615C95.5237 144.325 94.7223 145.312 92.9963 145.312C91.748 145.312 90.8233 144.957 90.5767 143.909H89.6212C89.8832 145.342 91.0853 146.175 93.0117 146.175C95.2309 146.175 96.4946 144.772 96.4946 142.615V135.294H95.5545ZM92.873 142.137C91.2394 142.137 90.2839 140.904 90.2839 139.055C90.2839 137.19 91.224 135.957 92.873 135.957C94.7223 135.957 95.5237 137.452 95.5237 139.055C95.5237 140.658 94.7223 142.137 92.873 142.137ZM100.078 131.796H99.107V143H100.078V131.796ZM109.177 138.669C109.177 136.851 108.098 135.094 105.863 135.094C103.567 135.094 102.211 136.712 102.211 139.055C102.211 141.351 103.49 143.2 105.879 143.2C107.743 143.2 108.776 142.199 109.023 140.966H108.052C107.805 141.813 107.065 142.337 105.879 142.337C104.245 142.337 103.182 141.104 103.182 139.193V138.978H109.177V138.669ZM105.832 135.957C107.312 135.957 108.098 137.02 108.175 138.115H103.243C103.413 137.02 104.26 135.957 105.832 135.957ZM115.725 131.996V143H116.743V138.407H120.241C122.583 138.407 123.862 137.19 123.862 135.202C123.862 133.214 122.583 131.996 120.241 131.996H115.725ZM116.743 137.483V132.921H120.071C122.121 132.921 122.845 133.815 122.845 135.202C122.845 136.589 122.121 137.483 120.071 137.483H116.743ZM132.007 138.669C132.007 136.851 130.929 135.094 128.694 135.094C126.398 135.094 125.042 136.712 125.042 139.055C125.042 141.351 126.321 143.2 128.709 143.2C130.574 143.2 131.607 142.199 131.853 140.966H130.882C130.636 141.813 129.896 142.337 128.709 142.337C127.076 142.337 126.012 141.104 126.012 139.193V138.978H132.007V138.669ZM128.663 135.957C130.143 135.957 130.929 137.02 131.006 138.115H126.074C126.244 137.02 127.091 135.957 128.663 135.957ZM139.445 143H140.508L138.52 139.009L140.401 135.294H139.353L137.688 138.592H135.099V135.294H134.128V143H135.099V139.455H137.673L139.445 143ZM141.526 143H141.788C143.53 143 144.254 141.829 144.254 138.176V136.157H147.984V143H148.955V135.294H143.345V138.176C143.345 141.243 142.883 142.106 141.788 142.106H141.526V143ZM156.549 143H157.489V137.652C157.489 136.05 156.302 135.094 154.438 135.094C152.758 135.094 151.586 135.88 151.463 137.282H152.434C152.496 136.466 153.158 135.957 154.438 135.957C155.932 135.957 156.518 136.728 156.518 137.714V138.192H153.836C151.71 138.192 150.955 139.502 150.955 140.719C150.955 142.014 151.926 143.2 153.744 143.2C154.869 143.2 155.763 142.753 156.241 142.137H156.549V143ZM153.883 142.337C152.711 142.337 151.926 141.736 151.926 140.642C151.926 139.656 152.681 139.009 154.098 139.009H156.518V139.918C156.518 141.336 155.316 142.337 153.883 142.337ZM159.984 143H160.955V136.25H161.232L163.251 139.918H164.546L166.549 136.25H166.827V143H167.797V135.294H166.071L164.068 139.024H163.76L161.71 135.294H159.984V143ZM175.391 143H176.331V137.652C176.331 136.05 175.145 135.094 173.28 135.094C171.6 135.094 170.429 135.88 170.306 137.282H171.277C171.338 136.466 172.001 135.957 173.28 135.957C174.775 135.957 175.361 136.728 175.361 137.714V138.192H172.679C170.552 138.192 169.797 139.502 169.797 140.719C169.797 142.014 170.768 143.2 172.587 143.2C173.712 143.2 174.605 142.753 175.083 142.137H175.391V143ZM172.725 142.337C171.554 142.337 170.768 141.736 170.768 140.642C170.768 139.656 171.523 139.009 172.941 139.009H175.361V139.918C175.361 141.336 174.158 142.337 172.725 142.337Z" fill="#253640"/>
<path d="M64.6693 251.223H68.3988V251.608C68.3988 253.658 67.3046 255.276 64.9159 255.276C62.0648 255.276 60.909 252.933 60.909 250.498C60.909 248.032 62.1111 245.721 64.9467 245.721C66.719 245.721 67.6437 246.522 68.0289 247.755H69.0923C68.6608 245.906 67.1505 244.796 64.9467 244.796C61.6796 244.796 59.8919 247.293 59.8919 250.498C59.8919 253.642 61.6333 256.2 64.9159 256.2C68.1985 256.2 69.4468 253.827 69.4468 251.3V250.298H64.6693V251.223ZM74.907 248.094C72.5029 248.094 71.1929 249.913 71.1929 252.147C71.1929 254.382 72.5029 256.2 74.907 256.2C77.2957 256.2 78.6211 254.382 78.6211 252.147C78.6211 249.913 77.2957 248.094 74.907 248.094ZM74.907 255.337C73.0114 255.337 72.1638 253.765 72.1638 252.147C72.1638 250.529 73.0114 248.957 74.907 248.957C76.7563 248.957 77.6502 250.529 77.6502 252.147C77.6502 253.765 76.7563 255.337 74.907 255.337ZM83.967 248.094C81.5629 248.094 80.253 249.913 80.253 252.147C80.253 254.382 81.5629 256.2 83.967 256.2C86.3558 256.2 87.6811 254.382 87.6811 252.147C87.6811 249.913 86.3558 248.094 83.967 248.094ZM83.967 255.337C82.0715 255.337 81.2239 253.765 81.2239 252.147C81.2239 250.529 82.0715 248.957 83.967 248.957C85.8164 248.957 86.7102 250.529 86.7102 252.147C86.7102 253.765 85.8164 255.337 83.967 255.337ZM95.5545 248.294V249.157H95.2463C94.7994 248.618 94.0134 248.094 92.7651 248.094C90.623 248.094 89.313 249.789 89.313 252.055C89.313 254.305 90.623 256 92.7651 256C93.9826 256 94.7686 255.491 95.2155 254.937H95.5237V255.615C95.5237 257.325 94.7223 258.312 92.9963 258.312C91.748 258.312 90.8233 257.957 90.5767 256.909H89.6212C89.8832 258.342 91.0853 259.175 93.0117 259.175C95.2309 259.175 96.4946 257.772 96.4946 255.615V248.294H95.5545ZM92.873 255.137C91.2394 255.137 90.2839 253.904 90.2839 252.055C90.2839 250.19 91.224 248.957 92.873 248.957C94.7223 248.957 95.5237 250.452 95.5237 252.055C95.5237 253.658 94.7223 255.137 92.873 255.137ZM100.078 244.796H99.107V256H100.078V244.796ZM109.177 251.669C109.177 249.851 108.098 248.094 105.863 248.094C103.567 248.094 102.211 249.712 102.211 252.055C102.211 254.351 103.49 256.2 105.879 256.2C107.743 256.2 108.776 255.199 109.023 253.966H108.052C107.805 254.813 107.065 255.337 105.879 255.337C104.245 255.337 103.182 254.104 103.182 252.193V251.978H109.177V251.669ZM105.832 248.957C107.312 248.957 108.098 250.02 108.175 251.115H103.243C103.413 250.02 104.26 248.957 105.832 248.957ZM115.725 244.996V256H116.743V251.407H120.241C122.583 251.407 123.862 250.19 123.862 248.202C123.862 246.214 122.583 244.996 120.241 244.996H115.725ZM116.743 250.483V245.921H120.071C122.121 245.921 122.845 246.815 122.845 248.202C122.845 249.589 122.121 250.483 120.071 250.483H116.743ZM132.007 251.669C132.007 249.851 130.929 248.094 128.694 248.094C126.398 248.094 125.042 249.712 125.042 252.055C125.042 254.351 126.321 256.2 128.709 256.2C130.574 256.2 131.607 255.199 131.853 253.966H130.882C130.636 254.813 129.896 255.337 128.709 255.337C127.076 255.337 126.012 254.104 126.012 252.193V251.978H132.007V251.669ZM128.663 248.957C130.143 248.957 130.929 250.02 131.006 251.115H126.074C126.244 250.02 127.091 248.957 128.663 248.957ZM139.445 256H140.508L138.52 252.009L140.401 248.294H139.353L137.688 251.592H135.099V248.294H134.128V256H135.099V252.455H137.673L139.445 256ZM141.526 256H141.788C143.53 256 144.254 254.829 144.254 251.176V249.157H147.984V256H148.955V248.294H143.345V251.176C143.345 254.243 142.883 255.106 141.788 255.106H141.526V256ZM156.549 256H157.489V250.652C157.489 249.05 156.302 248.094 154.438 248.094C152.758 248.094 151.586 248.88 151.463 250.282H152.434C152.496 249.466 153.158 248.957 154.438 248.957C155.932 248.957 156.518 249.728 156.518 250.714V251.192H153.836C151.71 251.192 150.955 252.502 150.955 253.719C150.955 255.014 151.926 256.2 153.744 256.2C154.869 256.2 155.763 255.753 156.241 255.137H156.549V256ZM153.883 255.337C152.711 255.337 151.926 254.736 151.926 253.642C151.926 252.656 152.681 252.009 154.098 252.009H156.518V252.918C156.518 254.336 155.316 255.337 153.883 255.337ZM159.984 256H160.955V249.25H161.232L163.251 252.918H164.546L166.549 249.25H166.827V256H167.797V248.294H166.071L164.068 252.024H163.76L161.71 248.294H159.984V256ZM175.391 256H176.331V250.652C176.331 249.05 175.145 248.094 173.28 248.094C171.6 248.094 170.429 248.88 170.306 250.282H171.277C171.338 249.466 172.001 248.957 173.28 248.957C174.775 248.957 175.361 249.728 175.361 250.714V251.192H172.679C170.552 251.192 169.797 252.502 169.797 253.719C169.797 255.014 170.768 256.2 172.587 256.2C173.712 256.2 174.605 255.753 175.083 255.137H175.391V256ZM172.725 255.337C171.554 255.337 170.768 254.736 170.768 253.642C170.768 252.656 171.523 252.009 172.941 252.009H175.361V252.918C175.361 254.336 174.158 255.337 172.725 255.337Z" fill="#253640"/>
<mask id="mask0" mask-type="alpha" maskUnits="userSpaceOnUse" x="20" y="240" width="21" height="20">
<rect x="20.7878" y="240" width="20" height="20" fill="#C4C4C4"/>
</mask>
<g mask="url(#mask0)">
<rect x="34.4736" y="242.88" width="19.1688" height="5.78968" rx="2.89884" transform="matrix(-0.464282 0.883817 -0.885688 -0.467833 265.595 326.039)" fill="#FCBC03"/>
<rect x="28.283" y="254.632" width="5.83499" height="5.78968" rx="2.89884" transform="matrix(-0.464282 0.883817 -0.885688 -0.467833 266.939 348.76)" fill="#2DA951"/>
<rect x="31.9231" y="239.933" width="19.0958" height="5.81176" rx="2.90588" transform="rotate(60 31.9231 239.933)" fill="#4284F4"/>
</g>
<path d="M63.2747 81.0756C60.9939 81.0756 59.7456 82.2314 59.7456 84.1886C59.7456 85.5294 60.3466 86.4849 61.4562 86.9626L59.6531 92.0791H60.7165L62.4425 87.2246C62.6737 87.2708 62.9511 87.2862 63.2747 87.2862H67.0042V92.0791H68.0213V81.0756H63.2747ZM63.4288 86.3616C61.4716 86.3616 60.7627 85.5294 60.7627 84.1886C60.7627 82.8478 61.4562 82.0002 63.4288 82.0002H67.0042V86.3616H63.4288ZM77.4215 92.0791V84.3735H76.4506V87.6715H71.7502V84.3735H70.7793V92.0791H71.7502V88.5345H76.4506V92.0791H77.4215ZM86.6772 91.2161V84.3735H81.1446V86.4386C81.1446 88.5345 80.6206 90.1681 80.0813 91.2161H79.1104V94.2829H80.0813V92.0791H87.1395V94.2829H88.1104V91.2161H86.6772ZM85.7063 91.2161H81.1292C81.6686 90.1681 82.0693 88.5345 82.0693 86.4386V85.2366H85.7063V91.2161ZM96.3503 87.7486C96.3503 85.9301 95.2716 84.1732 93.0369 84.1732C90.7407 84.1732 89.3845 85.7914 89.3845 88.1339C89.3845 90.4301 90.6636 92.2794 93.0524 92.2794C94.9171 92.2794 95.9496 91.2777 96.1962 90.0448H95.2253C94.9787 90.8924 94.239 91.4164 93.0524 91.4164C91.4188 91.4164 90.3554 90.1835 90.3554 88.2726V88.0568H96.3503V87.7486ZM93.0061 85.0362C94.4856 85.0362 95.2716 86.0996 95.3486 87.1938H90.4171C90.5866 86.0996 91.4342 85.0362 93.0061 85.0362ZM103.788 92.0791H104.851L102.863 88.0876L104.744 84.3735H103.696L102.031 87.6715H99.4421V84.3735H98.4712V92.0791H99.4421V88.5345H102.016L103.788 92.0791ZM111.901 89.8753C111.669 90.8 110.976 91.4164 109.743 91.4164C107.832 91.4164 107.031 89.8599 107.031 88.1955C107.031 86.5157 107.817 85.0362 109.743 85.0362C110.93 85.0362 111.577 85.6373 111.87 86.5157H112.841C112.548 85.1595 111.531 84.1732 109.743 84.1732C107.354 84.1732 106.06 85.9609 106.06 88.2263C106.06 90.4609 107.354 92.2794 109.743 92.2794C111.485 92.2794 112.563 91.2931 112.872 89.8753H111.901ZM116.108 92.0791V90.5072H114.814V92.0791H116.108ZM127.662 91.1544V81.0756H121.02V83.2948C121.02 87.1167 120.218 89.5825 119.556 91.1544H118.415V94.776H119.432V92.0791H128.232V94.776H129.249V91.1544H127.662ZM126.645 91.1544H120.696C121.313 89.5979 122.037 86.978 122.037 83.2948V82.0002H126.645V91.1544ZM133.171 92.0791L136.824 85.329H137.132V92.0791H138.103V84.3735H136.315L132.74 91.1236H132.432V84.3735H131.461V92.0791H133.171ZM144.461 92.2794C146.619 92.2794 147.898 90.5226 147.898 88.2263C147.898 85.9455 146.619 84.1732 144.461 84.1732C143.182 84.1732 142.396 84.6972 141.965 85.2366H141.656V84.3735H140.716V95.1613H141.687V91.2161H141.995C142.427 91.7709 143.182 92.2794 144.461 92.2794ZM144.338 85.0362C146.018 85.0362 146.927 86.3308 146.927 88.2263C146.927 90.1219 146.018 91.4164 144.338 91.4164C142.442 91.4164 141.687 89.8599 141.687 88.2263C141.687 86.6082 142.442 85.0362 144.338 85.0362ZM156.49 87.7486C156.49 85.9301 155.411 84.1732 153.176 84.1732C150.88 84.1732 149.524 85.7914 149.524 88.1339C149.524 90.4301 150.803 92.2794 153.192 92.2794C155.057 92.2794 156.089 91.2777 156.336 90.0448H155.365C155.118 90.8924 154.379 91.4164 153.192 91.4164C151.558 91.4164 150.495 90.1835 150.495 88.2726V88.0568H156.49V87.7486ZM153.146 85.0362C154.625 85.0362 155.411 86.0996 155.488 87.1938H150.557C150.726 86.0996 151.574 85.0362 153.146 85.0362ZM163.928 92.0791H164.991L163.003 88.0876L164.883 84.3735H163.835L162.171 87.6715H159.582V84.3735H158.611V92.0791H159.582V88.5345H162.155L163.928 92.0791ZM166.071 85.2366H168.798V92.0791H169.769V85.2366H172.482V84.3735H166.071V85.2366Z" fill="#253640"/>
<mask id="mask1" mask-type="alpha" maskUnits="userSpaceOnUse" x="20" y="127" width="20" height="20">
<rect x="20" y="127" width="20" height="20" fill="#C4C4C4"/>
</mask>
<g mask="url(#mask1)">
<rect x="33.6858" y="129.88" width="19.1688" height="5.78968" rx="2.89884" transform="matrix(-0.464282 0.883817 -0.885688 -0.467833 164.359 160.87)" fill="#FCBC03"/>
<rect x="27.4951" y="141.632" width="5.83499" height="5.78968" rx="2.89884" transform="matrix(-0.464282 0.883817 -0.885688 -0.467833 165.702 183.592)" fill="#2DA951"/>
<rect x="31.1353" y="126.933" width="19.0958" height="5.81176" rx="2.90588" transform="rotate(60 31.1353 126.933)" fill="#4284F4"/>
</g>
<rect x="21" y="183.5" width="17.1429" height="12" fill="#FFCC00"/>
<rect width="3.42857" height="5.14286" transform="matrix(1 0 0 -1 21 200.643)" fill="#FFCC00"/>
<rect width="3.42857" height="5.14286" transform="matrix(1 0 0 -1 25.2854 200.643)" fill="#FFCC00"/>
<rect width="3.42857" height="1.71429" transform="matrix(1 0 0 -1 29.5715 197.214)" fill="#FFCC00"/>
<path d="M35.5717 199.786H39.0003L38.1432 195.5H34.7146L35.5717 199.786Z" fill="#EFB30D"/>
<rect x="24.4287" y="187.786" width="10.2857" height="0.857143" fill="#030003"/>
<rect x="24.4287" y="189.5" width="10.2857" height="0.857143" fill="#030003"/>
<rect x="24.4287" y="191.215" width="6" height="0.857143" fill="#030003"/>
<rect x="21" y="77.5901" width="17.1429" height="12" fill="#FFCC00"/>
<rect width="3.42857" height="5.14286" transform="matrix(1 0 0 -1 21 94.7329)" fill="#FFCC00"/>
<rect width="3.42857" height="5.14286" transform="matrix(1 0 0 -1 25.2854 94.7329)" fill="#FFCC00"/>
<rect width="3.42857" height="1.71429" transform="matrix(1 0 0 -1 29.5715 91.3042)" fill="#FFCC00"/>
<path d="M35.5717 93.8757H39.0003L38.1432 89.59H34.7146L35.5717 93.8757Z" fill="#EFB30D"/>
<rect x="24.4287" y="81.876" width="10.2857" height="0.857143" fill="#030003"/>
<rect x="24.4287" y="83.5903" width="10.2857" height="0.857143" fill="#030003"/>
<rect x="24.4287" y="85.3047" width="6" height="0.857143" fill="#030003"/>
<path d="M63.2747 186.609C60.9939 186.609 59.7456 187.765 59.7456 189.722C59.7456 191.063 60.3466 192.018 61.4562 192.496L59.6531 197.613H60.7165L62.4425 192.758C62.6737 192.804 62.9511 192.82 63.2747 192.82H67.0042V197.613H68.0213V186.609H63.2747ZM63.4288 191.895C61.4716 191.895 60.7627 191.063 60.7627 189.722C60.7627 188.381 61.4562 187.534 63.4288 187.534H67.0042V191.895H63.4288ZM77.4215 197.613V189.907H76.4506V193.205H71.7502V189.907H70.7793V197.613H71.7502V194.068H76.4506V197.613H77.4215ZM86.6772 196.75V189.907H81.1446V191.972C81.1446 194.068 80.6206 195.702 80.0813 196.75H79.1104V199.816H80.0813V197.613H87.1395V199.816H88.1104V196.75H86.6772ZM85.7063 196.75H81.1292C81.6686 195.702 82.0693 194.068 82.0693 191.972V190.77H85.7063V196.75ZM96.3503 193.282C96.3503 191.464 95.2716 189.707 93.0369 189.707C90.7407 189.707 89.3845 191.325 89.3845 193.667C89.3845 195.964 90.6636 197.813 93.0524 197.813C94.9171 197.813 95.9496 196.811 96.1962 195.578H95.2253C94.9787 196.426 94.239 196.95 93.0524 196.95C91.4188 196.95 90.3554 195.717 90.3554 193.806V193.59H96.3503V193.282ZM93.0061 190.57C94.4856 190.57 95.2716 191.633 95.3486 192.727H90.4171C90.5866 191.633 91.4342 190.57 93.0061 190.57ZM103.788 197.613H104.851L102.863 193.621L104.744 189.907H103.696L102.031 193.205H99.4421V189.907H98.4712V197.613H99.4421V194.068H102.016L103.788 197.613ZM111.901 195.409C111.669 196.333 110.976 196.95 109.743 196.95C107.832 196.95 107.031 195.393 107.031 193.729C107.031 192.049 107.817 190.57 109.743 190.57C110.93 190.57 111.577 191.171 111.87 192.049H112.841C112.548 190.693 111.531 189.707 109.743 189.707C107.354 189.707 106.06 191.494 106.06 193.76C106.06 195.994 107.354 197.813 109.743 197.813C111.485 197.813 112.563 196.827 112.872 195.409H111.901ZM116.108 197.613V196.041H114.814V197.613H116.108ZM127.662 196.688V186.609H121.02V188.828C121.02 192.65 120.218 195.116 119.556 196.688H118.415V200.309H119.432V197.613H128.232V200.309H129.249V196.688H127.662ZM126.645 196.688H120.696C121.313 195.131 122.037 192.511 122.037 188.828V187.534H126.645V196.688ZM133.171 197.613L136.824 190.862H137.132V197.613H138.103V189.907H136.315L132.74 196.657H132.432V189.907H131.461V197.613H133.171ZM144.461 197.813C146.619 197.813 147.898 196.056 147.898 193.76C147.898 191.479 146.619 189.707 144.461 189.707C143.182 189.707 142.396 190.231 141.965 190.77H141.656V189.907H140.716V200.695H141.687V196.75H141.995C142.427 197.304 143.182 197.813 144.461 197.813ZM144.338 190.57C146.018 190.57 146.927 191.864 146.927 193.76C146.927 195.655 146.018 196.95 144.338 196.95C142.442 196.95 141.687 195.393 141.687 193.76C141.687 192.142 142.442 190.57 144.338 190.57ZM156.49 193.282C156.49 191.464 155.411 189.707 153.176 189.707C150.88 189.707 149.524 191.325 149.524 193.667C149.524 195.964 150.803 197.813 153.192 197.813C155.057 197.813 156.089 196.811 156.336 195.578H155.365C155.118 196.426 154.379 196.95 153.192 196.95C151.558 196.95 150.495 195.717 150.495 193.806V193.59H156.49V193.282ZM153.146 190.57C154.625 190.57 155.411 191.633 155.488 192.727H150.557C150.726 191.633 151.574 190.57 153.146 190.57ZM163.928 197.613H164.991L163.003 193.621L164.883 189.907H163.835L162.171 193.205H159.582V189.907H158.611V197.613H159.582V194.068H162.155L163.928 197.613ZM166.071 190.77H168.798V197.613H169.769V190.77H172.482V189.907H166.071V190.77Z" fill="#253640"/>
<path d="M214.262 42.0688H215.51V37.5334H218.506L220.615 42.0688H221.932L219.588 36.9786L221.807 32.1657H220.49L218.506 36.396H215.51V32.1657H214.262V42.0688ZM222.733 42.0688H222.969C224.689 42.0688 225.438 41.0286 225.438 37.8108V36.1047H228.503V42.0688H229.696V35.0784H224.342V37.783C224.342 40.2657 223.912 40.9592 222.969 40.9592H222.733V42.0688ZM238.079 34.8981C236.193 34.8981 234.986 36.188 234.764 37.9633H233.128V35.0784H231.962V42.0688H233.128V38.9897H234.723C234.875 40.8344 236.11 42.2492 238.079 42.2492C240.201 42.2492 241.463 40.6264 241.463 38.5736C241.463 36.5208 240.201 34.8981 238.079 34.8981ZM238.079 41.2228C236.567 41.2228 235.874 39.9467 235.874 38.5736C235.874 37.2005 236.567 35.9244 238.079 35.9244C239.577 35.9244 240.284 37.2005 240.284 38.5736C240.284 39.9467 239.577 41.2228 238.079 41.2228ZM242.911 35.0784V37.145C242.911 38.2962 243.063 39.5029 245.602 39.5029C246.198 39.5029 247.003 39.4335 247.599 39.3087V42.0688H248.792V35.0784H247.599V38.2685C247.086 38.3794 246.503 38.4488 245.851 38.4488C244.131 38.4488 244.09 37.7275 244.09 37.0479V35.0784H242.911ZM257.014 38.1575C256.972 36.4376 255.973 34.8981 253.893 34.8981C251.771 34.8981 250.522 36.3544 250.522 38.5043C250.522 40.6541 251.743 42.2492 253.921 42.2492C255.654 42.2492 256.667 41.3337 256.889 40.1409H255.696C255.488 40.8067 254.905 41.2228 253.921 41.2228C252.478 41.2228 251.729 40.2241 251.688 38.5597H257.014V38.1575ZM253.865 35.9244C255.044 35.9244 255.724 36.6873 255.793 37.575H251.757C251.909 36.6873 252.603 35.9244 253.865 35.9244ZM263.773 38.213C264.161 38.0049 264.522 37.5195 264.522 36.8399C264.522 35.7303 263.718 35.0784 262.317 35.0784H258.849V42.0688H262.441C264.037 42.0688 264.91 41.4308 264.91 40.1548C264.91 39.2532 264.425 38.6846 263.773 38.5181V38.213ZM260.014 41.0702V38.9758H262.372C263.385 38.9758 263.731 39.4335 263.731 40.03C263.731 40.6264 263.385 41.0702 262.372 41.0702H260.014ZM260.014 36.077H262.206C263.052 36.077 263.343 36.4931 263.343 37.034C263.343 37.5334 263.052 37.9772 262.206 37.9772H260.014V36.077ZM269.756 34.8981C267.564 34.8981 266.316 36.507 266.316 38.5736C266.316 40.6402 267.564 42.2492 269.756 42.2492C271.933 42.2492 273.195 40.6402 273.195 38.5736C273.195 36.507 271.933 34.8981 269.756 34.8981ZM269.756 41.2228C268.202 41.2228 267.495 39.9467 267.495 38.5736C267.495 37.2005 268.202 35.9244 269.756 35.9244C271.295 35.9244 272.016 37.2005 272.016 38.5736C272.016 39.9467 271.295 41.2228 269.756 41.2228ZM276.7 42.0688L279.821 36.6595H280.126V42.0688H281.277V35.0784H279.557L276.492 40.4877H276.187V35.0784H275.035V42.0688H276.7ZM279.335 32.027C279.293 32.7343 278.974 33.2059 278.128 33.2059C277.31 33.2059 276.949 32.7343 276.936 32.027H275.979C276.02 33.3169 276.811 34.052 278.128 34.052C279.46 34.052 280.25 33.3169 280.292 32.027H279.335ZM291.424 36.9924C291.424 37.5334 291.063 37.9911 290.065 37.9911H288.886V39.0174H290.12C291.271 39.0174 291.66 39.4197 291.66 40.0993C291.66 40.8622 290.938 41.2228 289.94 41.2228C288.983 41.2228 288.192 40.9592 287.929 40.0854H286.791C286.999 41.4031 288.012 42.2492 289.94 42.2492C291.826 42.2492 292.839 41.2921 292.839 40.1409C292.839 39.1839 292.353 38.7123 291.84 38.5597V38.2546C292.242 38.102 292.589 37.6166 292.589 36.8399C292.589 35.7857 291.646 34.8981 289.912 34.8981C288.289 34.8981 287.193 35.6748 287.069 37.0063H288.192C288.359 36.2434 288.886 35.9244 289.884 35.9244C290.786 35.9244 291.424 36.2851 291.424 36.9924ZM299.182 42.0688H300.292V37.3114C300.292 35.7441 299.168 34.8981 297.407 34.8981C295.839 34.8981 294.73 35.647 294.633 36.9369H295.812C295.867 36.3267 296.394 35.9244 297.434 35.9244C298.655 35.9244 299.14 36.5347 299.14 37.3808V37.6582H296.866C294.924 37.6582 294.189 38.851 294.189 39.9745C294.189 41.1673 295.09 42.2492 296.699 42.2492C297.698 42.2492 298.447 41.8747 298.877 41.3337H299.182V42.0688ZM296.99 41.2228C295.95 41.2228 295.368 40.7235 295.368 39.9329C295.368 39.1007 295.895 38.6013 297.046 38.6013H299.14V39.2394C299.14 40.349 298.156 41.2228 296.99 41.2228ZM308.622 42.0688V35.0784H302.45V42.0688H303.629V36.1047H307.443V42.0688H308.622ZM314.259 35.9244C315.66 35.9244 316.409 37.0202 316.409 38.5736C316.409 40.127 315.66 41.2228 314.259 41.2228C312.705 41.2228 312.067 39.9467 312.067 38.5736C312.067 37.2005 312.705 35.9244 314.259 35.9244ZM310.902 35.0784V44.8428H312.081V41.3199H312.386C312.761 41.8192 313.413 42.2492 314.522 42.2492C316.45 42.2492 317.588 40.6818 317.588 38.5736C317.588 36.507 316.45 34.8981 314.522 34.8981C313.413 34.8981 312.733 35.3419 312.345 35.8273H312.04V35.0784H310.902ZM322.445 34.8981C320.254 34.8981 319.006 36.507 319.006 38.5736C319.006 40.6402 320.254 42.2492 322.445 42.2492C324.623 42.2492 325.885 40.6402 325.885 38.5736C325.885 36.507 324.623 34.8981 322.445 34.8981ZM322.445 41.2228C320.892 41.2228 320.185 39.9467 320.185 38.5736C320.185 37.2005 320.892 35.9244 322.445 35.9244C323.985 35.9244 324.706 37.2005 324.706 38.5736C324.706 39.9467 323.985 41.2228 322.445 41.2228ZM332.455 39.9606C332.274 40.7373 331.692 41.2228 330.693 41.2228C329.126 41.2228 328.474 39.9467 328.474 38.5459C328.474 37.1589 329.112 35.9244 330.693 35.9244C331.65 35.9244 332.191 36.396 332.413 37.1034H333.592C333.356 35.8135 332.358 34.8981 330.693 34.8981C328.516 34.8981 327.295 36.4654 327.295 38.5736C327.295 40.6402 328.516 42.2492 330.693 42.2492C332.316 42.2492 333.37 41.3337 333.634 39.9606H332.455Z" fill="#253640"/>
<rect x="209" y="117" width="462" height="40" rx="17.3396" fill="#F2F6F7"/>
<path d="M239.88 142.947H240.984L238.92 138.803L240.872 134.947H239.784L238.056 138.371H235.368V134.947H234.36V142.947H235.368V139.267H238.04L239.88 142.947ZM246.095 134.739C243.599 134.739 242.239 136.627 242.239 138.947C242.239 141.267 243.599 143.155 246.095 143.155C248.575 143.155 249.951 141.267 249.951 138.947C249.951 136.627 248.575 134.739 246.095 134.739ZM246.095 142.259C244.127 142.259 243.247 140.627 243.247 138.947C243.247 137.267 244.127 135.635 246.095 135.635C248.015 135.635 248.943 137.267 248.943 138.947C248.943 140.627 248.015 142.259 246.095 142.259ZM256.045 143.155C258.285 143.155 259.613 141.331 259.613 138.947C259.613 136.579 258.285 134.739 256.045 134.739C254.717 134.739 253.901 135.283 253.453 135.843H253.133V134.947H252.157V146.147H253.165V142.051H253.485C253.933 142.627 254.717 143.155 256.045 143.155ZM255.917 135.635C257.661 135.635 258.605 136.979 258.605 138.947C258.605 140.915 257.661 142.259 255.917 142.259C253.949 142.259 253.165 140.643 253.165 138.947C253.165 137.267 253.949 135.635 255.917 135.635ZM265.157 134.739C262.661 134.739 261.301 136.627 261.301 138.947C261.301 141.267 262.661 143.155 265.157 143.155C267.637 143.155 269.013 141.267 269.013 138.947C269.013 136.627 267.637 134.739 265.157 134.739ZM265.157 142.259C263.189 142.259 262.309 140.627 262.309 138.947C262.309 137.267 263.189 135.635 265.157 135.635C267.077 135.635 268.005 137.267 268.005 138.947C268.005 140.627 267.077 142.259 265.157 142.259ZM270.275 142.947H270.547C272.355 142.947 273.107 141.731 273.107 137.939V135.843H276.979V142.947H277.987V134.947H272.163V137.939C272.163 141.123 271.683 142.019 270.547 142.019H270.275V142.947ZM279.76 142.947H280.032C281.84 142.947 282.592 141.731 282.592 137.939V135.843H286.464V142.947H287.472V134.947H281.648V137.939C281.648 141.123 281.168 142.019 280.032 142.019H279.76V142.947ZM295.356 142.947H296.332V137.395C296.332 135.731 295.1 134.739 293.164 134.739C291.42 134.739 290.204 135.555 290.076 137.011H291.084C291.148 136.163 291.836 135.635 293.164 135.635C294.716 135.635 295.324 136.435 295.324 137.459V137.955H292.54C290.332 137.955 289.548 139.315 289.548 140.579C289.548 141.923 290.556 143.155 292.444 143.155C293.612 143.155 294.54 142.691 295.036 142.051H295.356V142.947ZM292.588 142.259C291.372 142.259 290.556 141.635 290.556 140.499C290.556 139.475 291.34 138.803 292.812 138.803H295.324V139.747C295.324 141.219 294.076 142.259 292.588 142.259Z" fill="#253640"/>
<rect x="209" y="66" width="462" height="40" rx="17.3396" fill="#F2F6F7"/>
<path d="M233.48 84.9861H236.312V92.0901H237.32V84.9861H240.136V84.0901H233.48V84.9861ZM245.157 83.8821C242.661 83.8821 241.301 85.7701 241.301 88.0901C241.301 90.4101 242.661 92.2981 245.157 92.2981C247.637 92.2981 249.013 90.4101 249.013 88.0901C249.013 85.7701 247.637 83.8821 245.157 83.8821ZM245.157 91.4021C243.189 91.4021 242.309 89.7701 242.309 88.0901C242.309 86.4101 243.189 84.7781 245.157 84.7781C247.077 84.7781 248.005 86.4101 248.005 88.0901C248.005 89.7701 247.077 91.4021 245.157 91.4021ZM252.995 92.0901L256.787 85.0821H257.107V92.0901H258.115V84.0901H256.259L252.547 91.0981H252.227V84.0901H251.219V92.0901H252.995ZM256.099 80.4581V80.6501C256.099 81.4821 255.523 81.9941 254.627 81.9941C253.747 81.9941 253.171 81.4821 253.171 80.6501V80.4581H252.323V80.6501C252.323 82.0261 253.331 82.7781 254.627 82.7781C255.907 82.7781 256.947 82.0261 256.947 80.6501V80.4581H256.099ZM264.173 83.8821C261.677 83.8821 260.317 85.7701 260.317 88.0901C260.317 90.4101 261.677 92.2981 264.173 92.2981C266.653 92.2981 268.029 90.4101 268.029 88.0901C268.029 85.7701 266.653 83.8821 264.173 83.8821ZM264.173 91.4021C262.205 91.4021 261.325 89.7701 261.325 88.0901C261.325 86.4101 262.205 84.7781 264.173 84.7781C266.093 84.7781 267.021 86.4101 267.021 88.0901C267.021 89.7701 266.093 91.4021 264.173 91.4021ZM269.199 84.9861H272.031V92.0901H273.039V84.9861H275.855V84.0901H269.199V84.9861ZM282.856 92.0901H283.832V86.5381C283.832 84.8741 282.6 83.8821 280.664 83.8821C278.92 83.8821 277.704 84.6981 277.576 86.1541H278.584C278.648 85.3061 279.336 84.7781 280.664 84.7781C282.216 84.7781 282.824 85.5781 282.824 86.6021V87.0981H280.04C277.832 87.0981 277.048 88.4581 277.048 89.7221C277.048 91.0661 278.056 92.2981 279.944 92.2981C281.112 92.2981 282.04 91.8341 282.536 91.1941H282.856V92.0901ZM280.088 91.4021C278.872 91.4021 278.056 90.7781 278.056 89.6421C278.056 88.6181 278.84 87.9461 280.312 87.9461H282.824V88.8901C282.824 90.3621 281.576 91.4021 280.088 91.4021ZM296.812 88.4261V80.8901H295.132L290.156 88.1061V89.3541H295.772V92.0901H296.812V89.3541H298.412V88.4261H296.812ZM291.292 88.4261V88.1061L295.452 81.9621H295.772V88.4261H291.292Z" fill="#253640"/>
<rect x="209" y="172" width="462" height="40" rx="17.3396" fill="#F2F6F7"/>
<path d="M235.368 186.368H234.36V198H235.368V186.368ZM243.262 198H244.238V192.448C244.238 190.784 243.006 189.792 241.07 189.792C239.326 189.792 238.11 190.608 237.982 192.064H238.99C239.054 191.216 239.742 190.688 241.07 190.688C242.622 190.688 243.23 191.488 243.23 192.512V193.008H240.446C238.238 193.008 237.454 194.368 237.454 195.632C237.454 196.976 238.462 198.208 240.35 198.208C241.518 198.208 242.446 197.744 242.942 197.104H243.262V198ZM240.494 197.312C239.278 197.312 238.462 196.688 238.462 195.552C238.462 194.528 239.246 193.856 240.718 193.856H243.23V194.8C243.23 196.272 241.982 197.312 240.494 197.312ZM253.709 198V192.848C253.709 190.976 252.557 189.792 250.621 189.792C249.517 189.792 248.557 190.272 248.125 190.896H247.805V190H246.829V198H247.837V193.616C247.837 192.064 248.893 190.688 250.477 190.688C251.965 190.688 252.701 191.488 252.701 193.088V198H253.709ZM259.354 189.792C257.114 189.792 255.786 191.616 255.786 194C255.786 196.368 257.114 198.208 259.354 198.208C260.682 198.208 261.498 197.664 261.946 197.104H262.266V198H263.242V186.368H262.234V190.896H261.914C261.466 190.32 260.682 189.792 259.354 189.792ZM259.482 197.312C257.738 197.312 256.794 195.968 256.794 194C256.794 192.032 257.738 190.688 259.482 190.688C261.45 190.688 262.234 192.304 262.234 194C262.234 195.68 261.45 197.312 259.482 197.312ZM275.959 195.712C275.719 196.672 274.999 197.312 273.719 197.312C271.735 197.312 270.903 195.696 270.903 193.968C270.903 192.224 271.719 190.688 273.719 190.688C274.951 190.688 275.623 191.312 275.927 192.224H276.935C276.631 190.816 275.575 189.792 273.719 189.792C271.239 189.792 269.895 191.648 269.895 194C269.895 196.32 271.239 198.208 273.719 198.208C275.527 198.208 276.647 197.184 276.967 195.712H275.959ZM283.287 190H282.743C281.655 190 280.823 190.416 280.359 190.976H280.039V190H279.063V198H280.071V193.776C280.071 191.936 281.143 190.928 282.679 190.928H283.287V190ZM284.998 190V195.152C284.998 197.024 286.15 198.208 288.086 198.208C289.19 198.208 290.15 197.728 290.582 197.104H290.902V198H291.878V190H290.87V194.384C290.87 195.936 289.798 197.312 288.23 197.312C286.742 197.312 286.006 196.512 286.006 194.912V190H284.998ZM295.65 190H294.642V198H295.65V190ZM295.698 187.632V186.368H294.594V187.632H295.698ZM301.191 198.208C303.239 198.208 304.375 197.024 304.375 195.744C304.375 194.384 303.511 193.712 302.183 193.472L301.191 193.312C300.951 193.264 300.679 193.232 300.407 193.184C299.495 193.008 299.047 192.688 299.047 191.984C299.047 191.168 299.783 190.688 301.047 190.688C302.151 190.688 303.063 191.136 303.175 192.016H304.167C303.991 190.672 302.919 189.792 301.111 189.792C299.062 189.792 298.039 190.784 298.039 192.08C298.039 193.216 298.807 193.792 299.879 194C300.423 194.128 301.431 194.288 301.783 194.336C302.935 194.512 303.367 194.992 303.367 195.776C303.367 196.8 302.487 197.312 301.095 197.312C299.751 197.312 298.903 196.784 298.711 195.776H297.719C297.927 197.248 298.999 198.208 301.191 198.208ZM313.158 193.504C313.158 191.616 312.038 189.792 309.718 189.792C307.334 189.792 305.926 191.472 305.926 193.904C305.926 196.288 307.254 198.208 309.734 198.208C311.67 198.208 312.742 197.168 312.998 195.888H311.99C311.734 196.768 310.966 197.312 309.734 197.312C308.038 197.312 306.934 196.032 306.934 194.048V193.824H313.158V193.504ZM309.686 190.688C311.222 190.688 312.038 191.792 312.118 192.928H306.998C307.174 191.792 308.054 190.688 309.686 190.688ZM319.584 190H319.04C317.952 190 317.12 190.416 316.656 190.976H316.336V190H315.36V198H316.368V193.776C316.368 191.936 317.44 190.928 318.976 190.928H319.584V190Z" fill="#253640"/>
<rect x="209" y="228" width="462" height="40" rx="17.3396" fill="#F2F6F7"/>
<path d="M239.912 251.516C239.672 252.476 238.952 253.116 237.672 253.116C235.688 253.116 234.856 251.5 234.856 249.772C234.856 248.028 235.672 246.492 237.672 246.492C238.904 246.492 239.576 247.116 239.88 248.028H240.888C240.584 246.62 239.528 245.596 237.672 245.596C235.192 245.596 233.848 247.452 233.848 249.804C233.848 252.124 235.192 254.012 237.672 254.012C239.48 254.012 240.6 252.988 240.92 251.516H239.912ZM248.184 253.804H249.16V248.252C249.16 246.588 247.928 245.596 245.992 245.596C244.248 245.596 243.032 246.412 242.904 247.868H243.912C243.976 247.02 244.664 246.492 245.992 246.492C247.544 246.492 248.152 247.292 248.152 248.316V248.812H245.368C243.16 248.812 242.376 250.172 242.376 251.436C242.376 252.78 243.384 254.012 245.272 254.012C246.44 254.012 247.368 253.548 247.864 252.908H248.184V253.804ZM245.416 253.116C244.2 253.116 243.384 252.492 243.384 251.356C243.384 250.332 244.168 249.66 245.64 249.66H248.152V250.604C248.152 252.076 246.904 253.116 245.416 253.116ZM259.863 245.596C258.791 245.596 258.087 245.98 257.559 246.7H257.239C256.775 245.932 256.071 245.596 255.111 245.596C254.039 245.596 253.447 245.98 253.047 246.604H252.727V245.804H251.751V253.804H252.759V249.308C252.759 247.724 253.479 246.492 254.935 246.492C255.959 246.492 256.583 247.212 256.583 248.62V253.804H257.591V249.02C257.591 247.532 258.391 246.492 259.751 246.492C260.855 246.492 261.415 247.196 261.415 248.588V253.804H262.423V248.572C262.423 246.764 261.671 245.596 259.863 245.596ZM269.24 245.804H268.696C267.608 245.804 266.776 246.22 266.312 246.78H265.992V245.804H265.016V253.804H266.024V249.58C266.024 247.74 267.096 246.732 268.632 246.732H269.24V245.804ZM273.48 257.004L278.264 245.804H277.208L274.824 251.452H274.44L271.8 245.804H270.712L274.104 253.052L272.456 257.004H273.48Z" fill="#253640"/>
<path d="M482.262 32.0968V42H483.51V38.0332H486.451C488.615 38.0332 489.807 36.9236 489.807 35.0511C489.807 33.2064 488.615 32.0968 486.451 32.0968H482.262ZM483.51 36.9236V33.2064H486.243C487.935 33.2064 488.545 33.9138 488.545 35.065C488.545 36.2162 487.935 36.9236 486.243 36.9236H483.51ZM495.841 42H496.95V37.2426C496.95 35.6753 495.827 34.8292 494.065 34.8292C492.498 34.8292 491.389 35.5782 491.291 36.8681H492.47C492.526 36.2578 493.053 35.8556 494.093 35.8556C495.314 35.8556 495.799 36.4659 495.799 37.3119V37.5893H493.525C491.583 37.5893 490.848 38.7822 490.848 39.9056C490.848 41.0984 491.749 42.1803 493.358 42.1803C494.357 42.1803 495.106 41.8058 495.536 41.2649H495.841V42ZM493.649 41.1539C492.609 41.1539 492.027 40.6546 492.027 39.864C492.027 39.0318 492.554 38.5325 493.705 38.5325H495.799V39.1705C495.799 40.2801 494.814 41.1539 493.649 41.1539ZM503.839 39.8918C503.659 40.6685 503.076 41.1539 502.077 41.1539C500.51 41.1539 499.858 39.8779 499.858 38.477C499.858 37.09 500.496 35.8556 502.077 35.8556C503.034 35.8556 503.575 36.3272 503.797 37.0345H504.976C504.74 35.7446 503.742 34.8292 502.077 34.8292C499.9 34.8292 498.679 36.3965 498.679 38.5048C498.679 40.5714 499.9 42.1803 502.077 42.1803C503.7 42.1803 504.754 41.2649 505.018 39.8918H503.839ZM511.45 42H512.781L510.618 38.3799L512.601 35.0095H511.367L509.73 37.7835H509.231L507.622 35.0095H506.373L508.329 38.4215L506.151 42H507.441L509.217 39.0734H509.716L511.45 42ZM517.235 34.8292C515.044 34.8292 513.795 36.4381 513.795 38.5048C513.795 40.5714 515.044 42.1803 517.235 42.1803C519.413 42.1803 520.675 40.5714 520.675 38.5048C520.675 36.4381 519.413 34.8292 517.235 34.8292ZM517.235 41.1539C515.682 41.1539 514.974 39.8779 514.974 38.5048C514.974 37.1316 515.682 35.8556 517.235 35.8556C518.775 35.8556 519.496 37.1316 519.496 38.5048C519.496 39.8779 518.775 41.1539 517.235 41.1539ZM528.742 40.9736V35.0095H523.472V36.9236C523.472 38.6573 523.056 40.0305 522.612 40.9736H521.683V43.9834H522.834V42H528.881V43.9834H530.032V40.9736H528.742ZM527.563 40.9736H523.805C524.235 40.0305 524.568 38.6851 524.568 36.9236V36.0359H527.563V40.9736Z" fill="#253640"/>
<path d="M488.728 81.9792V80.7312H481.8V81.6592H487.64V81.9792L482.632 91.9312H483.736L488.728 81.9792ZM498.991 80.5072C496.687 80.5072 494.975 82.3152 494.975 86.3312C494.975 90.3472 496.687 92.1392 498.991 92.1392C501.295 92.1392 503.007 90.3472 503.007 86.3312C503.007 82.3152 501.295 80.5072 498.991 80.5072ZM498.991 91.2112C497.055 91.2112 496.015 89.5152 496.015 86.3312C496.015 83.1472 497.055 81.4352 498.991 81.4352C500.927 81.4352 501.967 83.1472 501.967 86.3312C501.967 89.5152 500.927 91.2112 498.991 91.2112ZM508.85 80.5072C506.546 80.5072 504.834 82.3152 504.834 86.3312C504.834 90.3472 506.546 92.1392 508.85 92.1392C511.154 92.1392 512.866 90.3472 512.866 86.3312C512.866 82.3152 511.154 80.5072 508.85 80.5072ZM508.85 91.2112C506.914 91.2112 505.874 89.5152 505.874 86.3312C505.874 83.1472 506.914 81.4352 508.85 81.4352C510.786 81.4352 511.826 83.1472 511.826 86.3312C511.826 89.5152 510.786 91.2112 508.85 91.2112ZM518.709 80.5072C516.405 80.5072 514.693 82.3152 514.693 86.3312C514.693 90.3472 516.405 92.1392 518.709 92.1392C521.013 92.1392 522.725 90.3472 522.725 86.3312C522.725 82.3152 521.013 80.5072 518.709 80.5072ZM518.709 91.2112C516.773 91.2112 515.733 89.5152 515.733 86.3312C515.733 83.1472 516.773 81.4352 518.709 81.4352C520.645 81.4352 521.685 83.1472 521.685 86.3312C521.685 89.5152 520.645 91.2112 518.709 91.2112ZM528.894 87.0672H530.478V88.3152H528.894V89.1472H530.478V91.9312H531.518V89.1472H535.662V88.3152H531.518V87.0672H534.446C536.766 87.0672 538.03 85.8832 538.03 83.8992C538.03 81.8992 536.766 80.7312 534.446 80.7312H530.478V86.2352H528.894V87.0672ZM531.518 86.2352V81.6592H534.286C536.27 81.6592 536.99 82.5392 536.99 83.9312C536.99 85.2912 536.27 86.2352 534.286 86.2352H531.518Z" fill="#253640"/>
<path d="M485.288 138.947C486.68 138.947 487.624 138.291 488.04 137.795H488.36C488.28 140.419 487.192 142.211 485.208 142.211C484.04 142.211 483.384 141.635 483.064 140.595H482.024C482.328 142.051 483.384 143.139 485.224 143.139C488.088 143.139 489.384 140.355 489.384 136.963C489.384 132.947 487.736 131.507 485.4 131.507C483.08 131.507 481.72 133.187 481.72 135.315C481.72 137.427 483.24 138.947 485.288 138.947ZM485.416 132.435C486.92 132.435 488.12 133.475 488.12 135.267C488.12 137.011 486.936 138.019 485.448 138.019C483.928 138.019 482.76 137.075 482.76 135.251C482.76 133.427 483.896 132.435 485.416 132.435ZM502.046 139.267V131.731H500.366L495.39 138.947V140.195H501.006V142.931H502.046V140.195H503.646V139.267H502.046ZM496.526 139.267V138.947L500.686 132.803H501.006V139.267H496.526ZM509.319 131.507C507.015 131.507 505.303 133.315 505.303 137.331C505.303 141.347 507.015 143.139 509.319 143.139C511.623 143.139 513.335 141.347 513.335 137.331C513.335 133.315 511.623 131.507 509.319 131.507ZM509.319 142.211C507.383 142.211 506.343 140.515 506.343 137.331C506.343 134.147 507.383 132.435 509.319 132.435C511.255 132.435 512.295 134.147 512.295 137.331C512.295 140.515 511.255 142.211 509.319 142.211ZM519.178 131.507C516.874 131.507 515.162 133.315 515.162 137.331C515.162 141.347 516.874 143.139 519.178 143.139C521.482 143.139 523.194 141.347 523.194 137.331C523.194 133.315 521.482 131.507 519.178 131.507ZM519.178 142.211C517.242 142.211 516.202 140.515 516.202 137.331C516.202 134.147 517.242 132.435 519.178 132.435C521.114 132.435 522.154 134.147 522.154 137.331C522.154 140.515 521.114 142.211 519.178 142.211ZM529.363 138.067H530.947V139.315H529.363V140.147H530.947V142.931H531.987V140.147H536.131V139.315H531.987V138.067H534.915C537.235 138.067 538.499 136.883 538.499 134.899C538.499 132.899 537.235 131.731 534.915 131.731H530.947V137.235H529.363V138.067ZM531.987 137.235V132.659H534.755C536.739 132.659 537.459 133.539 537.459 134.931C537.459 136.291 536.739 137.235 534.755 137.235H531.987Z" fill="#253640"/>
<path d="M482.296 186.731V187.659H487.336V187.979L484.328 190.683V191.995C484.568 191.931 484.936 191.899 485.272 191.899C487.064 191.899 488.04 192.891 488.04 194.491C488.04 196.203 486.872 197.211 485.256 197.211C483.8 197.211 482.648 196.299 482.52 194.907H481.48C481.608 196.747 483.064 198.139 485.256 198.139C487.448 198.139 489.08 196.811 489.08 194.491C489.08 192.267 487.576 191.019 485.512 191.019V190.699L488.584 187.979V186.731H482.296ZM499.256 186.507C496.952 186.507 495.24 188.315 495.24 192.331C495.24 196.347 496.952 198.139 499.256 198.139C501.56 198.139 503.272 196.347 503.272 192.331C503.272 188.315 501.56 186.507 499.256 186.507ZM499.256 197.211C497.32 197.211 496.28 195.515 496.28 192.331C496.28 189.147 497.32 187.435 499.256 187.435C501.192 187.435 502.232 189.147 502.232 192.331C502.232 195.515 501.192 197.211 499.256 197.211ZM506.428 189.531C506.428 188.171 507.612 187.435 509.004 187.435C510.396 187.435 511.58 188.171 511.58 189.531C511.58 190.891 510.396 191.627 509.004 191.627C507.612 191.627 506.428 190.891 506.428 189.531ZM509.004 197.211C507.356 197.211 506.092 196.331 506.092 194.907C506.092 193.467 507.292 192.555 509.004 192.555C510.716 192.555 511.916 193.467 511.916 194.907C511.916 196.331 510.652 197.211 509.004 197.211ZM512.956 194.955C512.956 193.355 511.836 192.571 511.02 192.219V191.899C511.66 191.563 512.635 190.811 512.635 189.515C512.635 187.707 511.1 186.507 509.004 186.507C506.908 186.507 505.388 187.707 505.388 189.515C505.388 190.811 506.348 191.563 506.988 191.899V192.219C506.172 192.571 505.052 193.355 505.052 194.955C505.052 196.827 506.684 198.139 509.004 198.139C511.324 198.139 512.956 196.827 512.956 194.955ZM518.741 186.507C516.437 186.507 514.725 188.315 514.725 192.331C514.725 196.347 516.437 198.139 518.741 198.139C521.045 198.139 522.757 196.347 522.757 192.331C522.757 188.315 521.045 186.507 518.741 186.507ZM518.741 197.211C516.805 197.211 515.765 195.515 515.765 192.331C515.765 189.147 516.805 187.435 518.741 187.435C520.677 187.435 521.717 189.147 521.717 192.331C521.717 195.515 520.677 197.211 518.741 197.211ZM528.925 193.067H530.509V194.315H528.925V195.147H530.509V197.931H531.549V195.147H535.693V194.315H531.549V193.067H534.477C536.797 193.067 538.061 191.883 538.061 189.899C538.061 187.899 536.797 186.731 534.477 186.731H530.509V192.235H528.925V193.067ZM531.549 192.235V187.659H534.317C536.301 187.659 537.021 188.539 537.021 189.931C537.021 191.291 536.301 192.235 534.317 192.235H531.549Z" fill="#253640"/>
<path d="M488.296 250.267V242.731H486.616L481.64 249.947V251.195H487.256V253.931H488.296V251.195H489.896V250.267H488.296ZM482.776 250.267V249.947L486.936 243.803H487.256V250.267H482.776ZM502.822 243.979V242.731H495.894V243.659H501.734V243.979L496.726 253.931H497.83L502.822 243.979ZM508.147 242.507C505.843 242.507 504.131 244.315 504.131 248.331C504.131 252.347 505.843 254.139 508.147 254.139C510.451 254.139 512.163 252.347 512.163 248.331C512.163 244.315 510.451 242.507 508.147 242.507ZM508.147 253.211C506.211 253.211 505.171 251.515 505.171 248.331C505.171 245.147 506.211 243.435 508.147 243.435C510.083 243.435 511.123 245.147 511.123 248.331C511.123 251.515 510.083 253.211 508.147 253.211ZM518.006 242.507C515.702 242.507 513.99 244.315 513.99 248.331C513.99 252.347 515.702 254.139 518.006 254.139C520.31 254.139 522.022 252.347 522.022 248.331C522.022 244.315 520.31 242.507 518.006 242.507ZM518.006 253.211C516.07 253.211 515.03 251.515 515.03 248.331C515.03 245.147 516.07 243.435 518.006 243.435C519.942 243.435 520.982 245.147 520.982 248.331C520.982 251.515 519.942 253.211 518.006 253.211ZM528.191 249.067H529.775V250.315H528.191V251.147H529.775V253.931H530.815V251.147H534.959V250.315H530.815V249.067H533.743C536.063 249.067 537.327 247.883 537.327 245.899C537.327 243.899 536.063 242.731 533.743 242.731H529.775V248.235H528.191V249.067ZM530.815 248.235V243.659H533.583C535.567 243.659 536.287 244.539 536.287 245.931C536.287 247.291 535.567 248.235 533.583 248.235H530.815Z" fill="#253640"/>
<path d="M610.948 39.1844C610.629 40.3356 609.727 41.043 608.34 41.043C606.038 41.043 605.025 39.1566 605.025 37.0484C605.025 34.954 606.051 33.0538 608.354 33.0538C609.727 33.0538 610.462 33.6364 610.837 34.6905H612.154C611.752 32.9845 610.365 31.9165 608.354 31.9165C605.413 31.9165 603.763 34.108 603.763 37.0484C603.763 39.9888 605.386 42.1803 608.34 42.1803C610.518 42.1803 611.863 40.9459 612.265 39.1844H610.948ZM614.218 32.0968V42H615.466V38.0332H618.406C620.57 38.0332 621.763 36.9236 621.763 35.0511C621.763 33.2064 620.57 32.0968 618.406 32.0968H614.218ZM615.466 36.9236V33.2064H618.198C619.891 33.2064 620.501 33.9138 620.501 35.065C620.501 36.2162 619.891 36.9236 618.198 36.9236H615.466ZM627.859 31.9165C624.836 31.9165 623.24 34.2051 623.24 37.0484C623.24 39.8918 624.836 42.1803 627.859 42.1803C630.869 42.1803 632.478 39.8918 632.478 37.0484C632.478 34.2051 630.869 31.9165 627.859 31.9165ZM627.859 41.043C625.501 41.043 624.503 39.115 624.503 37.0484C624.503 34.9818 625.501 33.0538 627.859 33.0538C630.217 33.0538 631.216 34.9818 631.216 37.0484C631.216 39.115 630.217 41.043 627.859 41.043Z" fill="#253640"/>
<path d="M596.827 80.8V81.728H601.867V82.048L598.859 84.752V86.064C599.099 86 599.467 85.968 599.803 85.968C601.595 85.968 602.571 86.96 602.571 88.56C602.571 90.272 601.403 91.28 599.787 91.28C598.331 91.28 597.179 90.368 597.051 88.976H596.011C596.139 90.816 597.595 92.208 599.787 92.208C601.979 92.208 603.611 90.88 603.611 88.56C603.611 86.336 602.107 85.088 600.043 85.088V84.768L603.115 82.048V80.8H596.827ZM606.646 83.6C606.646 82.24 607.83 81.504 609.222 81.504C610.614 81.504 611.798 82.24 611.798 83.6C611.798 84.96 610.614 85.696 609.222 85.696C607.83 85.696 606.646 84.96 606.646 83.6ZM609.222 91.28C607.574 91.28 606.31 90.4 606.31 88.976C606.31 87.536 607.51 86.624 609.222 86.624C610.934 86.624 612.134 87.536 612.134 88.976C612.134 90.4 610.87 91.28 609.222 91.28ZM613.174 89.024C613.174 87.424 612.054 86.64 611.238 86.288V85.968C611.878 85.632 612.854 84.88 612.854 83.584C612.854 81.776 611.318 80.576 609.222 80.576C607.126 80.576 605.606 81.776 605.606 83.584C605.606 84.88 606.566 85.632 607.206 85.968V86.288C606.39 86.64 605.27 87.424 605.27 89.024C605.27 90.896 606.902 92.208 609.222 92.208C611.542 92.208 613.174 90.896 613.174 89.024ZM616.271 83.6C616.271 82.24 617.455 81.504 618.847 81.504C620.239 81.504 621.423 82.24 621.423 83.6C621.423 84.96 620.239 85.696 618.847 85.696C617.455 85.696 616.271 84.96 616.271 83.6ZM618.847 91.28C617.199 91.28 615.935 90.4 615.935 88.976C615.935 87.536 617.135 86.624 618.847 86.624C620.559 86.624 621.759 87.536 621.759 88.976C621.759 90.4 620.495 91.28 618.847 91.28ZM622.799 89.024C622.799 87.424 621.679 86.64 620.863 86.288V85.968C621.503 85.632 622.479 84.88 622.479 83.584C622.479 81.776 620.943 80.576 618.847 80.576C616.751 80.576 615.231 81.776 615.231 83.584C615.231 84.88 616.191 85.632 616.831 85.968V86.288C616.015 86.64 614.895 87.424 614.895 89.024C614.895 90.896 616.527 92.208 618.847 92.208C621.167 92.208 622.799 90.896 622.799 89.024ZM628.909 87.136H630.493V88.384H628.909V89.216H630.493V92H631.533V89.216H635.677V88.384H631.533V87.136H634.461C636.781 87.136 638.045 85.952 638.045 83.968C638.045 81.968 636.781 80.8 634.461 80.8H630.493V86.304H628.909V87.136ZM631.533 86.304V81.728H634.301C636.285 81.728 637.005 82.608 637.005 84C637.005 85.36 636.285 86.304 634.301 86.304H631.533Z" fill="#253640"/>
<path d="M598.655 131.8V132.728H603.695V133.048L600.687 135.752V137.064C600.927 137 601.295 136.968 601.631 136.968C603.423 136.968 604.399 137.96 604.399 139.56C604.399 141.272 603.231 142.28 601.615 142.28C600.159 142.28 599.007 141.368 598.879 139.976H597.839C597.967 141.816 599.423 143.208 601.615 143.208C603.807 143.208 605.439 141.88 605.439 139.56C605.439 137.336 603.935 136.088 601.871 136.088V135.768L604.943 133.048V131.8H598.655ZM613.962 133.048V131.8H607.034V132.728H612.874V133.048L607.866 143H608.97L613.962 133.048ZM619.367 135.768C617.975 135.768 617.031 136.424 616.615 136.92H616.295C616.375 134.296 617.463 132.504 619.447 132.504C620.615 132.504 621.271 133.08 621.591 134.12H622.631C622.327 132.664 621.271 131.576 619.431 131.576C616.567 131.576 615.271 134.36 615.271 137.752C615.271 141.768 616.919 143.208 619.255 143.208C621.575 143.208 622.935 141.528 622.935 139.4C622.935 137.288 621.415 135.768 619.367 135.768ZM619.239 142.28C617.735 142.28 616.535 141.24 616.535 139.448C616.535 137.704 617.719 136.696 619.207 136.696C620.727 136.696 621.895 137.64 621.895 139.464C621.895 141.288 620.759 142.28 619.239 142.28ZM628.909 138.136H630.493V139.384H628.909V140.216H630.493V143H631.533V140.216H635.677V139.384H631.533V138.136H634.461C636.781 138.136 638.045 136.952 638.045 134.968C638.045 132.968 636.781 131.8 634.461 131.8H630.493V137.304H628.909V138.136ZM631.533 137.304V132.728H634.301C636.285 132.728 637.005 133.608 637.005 135C637.005 136.36 636.285 137.304 634.301 137.304H631.533Z" fill="#253640"/>
<path d="M604.227 197.072H598.211V196.752L599.667 195.504C600.451 194.816 601.299 194.064 601.731 193.664C602.883 192.56 603.859 191.44 603.859 189.904C603.859 187.68 602.323 186.576 600.323 186.576C598.499 186.576 596.883 187.568 596.755 189.776H597.795C597.971 188.24 598.899 187.504 600.307 187.504C601.843 187.504 602.819 188.336 602.819 189.92C602.819 191.248 601.811 192.304 601.091 192.992C600.499 193.584 599.411 194.496 598.483 195.296L596.771 196.752V198H604.227V197.072ZM609.863 190.496C608.839 190.496 608.199 190.816 607.639 191.328H607.319L607.607 187.728H612.935V186.8H606.743L606.247 192.576H607.351C607.863 191.808 608.663 191.424 609.767 191.424C611.431 191.424 612.439 192.688 612.439 194.304C612.439 196.176 611.319 197.28 609.703 197.28C608.231 197.28 607.207 196.512 607.031 194.976H605.991C606.119 196.816 607.367 198.208 609.751 198.208C611.991 198.208 613.479 196.656 613.479 194.24C613.479 192.24 612.231 190.496 609.863 190.496ZM619.367 190.768C617.975 190.768 617.031 191.424 616.615 191.92H616.295C616.375 189.296 617.463 187.504 619.447 187.504C620.615 187.504 621.271 188.08 621.591 189.12H622.631C622.327 187.664 621.271 186.576 619.431 186.576C616.567 186.576 615.271 189.36 615.271 192.752C615.271 196.768 616.919 198.208 619.255 198.208C621.575 198.208 622.935 196.528 622.935 194.4C622.935 192.288 621.415 190.768 619.367 190.768ZM619.239 197.28C617.735 197.28 616.535 196.24 616.535 194.448C616.535 192.704 617.719 191.696 619.207 191.696C620.727 191.696 621.895 192.64 621.895 194.464C621.895 196.288 620.759 197.28 619.239 197.28ZM628.909 193.136H630.493V194.384H628.909V195.216H630.493V198H631.533V195.216H635.677V194.384H631.533V193.136H634.461C636.781 193.136 638.045 191.952 638.045 189.968C638.045 187.968 636.781 186.8 634.461 186.8H630.493V192.304H628.909V193.136ZM631.533 192.304V187.728H634.301C636.285 187.728 637.005 188.608 637.005 190C637.005 191.36 636.285 192.304 634.301 192.304H631.533Z" fill="#253640"/>
<path d="M604.587 244.048V242.8H597.659V243.728H603.499V244.048L598.491 254H599.595L604.587 244.048ZM607.396 245.6C607.396 244.24 608.58 243.504 609.972 243.504C611.364 243.504 612.548 244.24 612.548 245.6C612.548 246.96 611.364 247.696 609.972 247.696C608.58 247.696 607.396 246.96 607.396 245.6ZM609.972 253.28C608.324 253.28 607.06 252.4 607.06 250.976C607.06 249.536 608.26 248.624 609.972 248.624C611.684 248.624 612.884 249.536 612.884 250.976C612.884 252.4 611.62 253.28 609.972 253.28ZM613.924 251.024C613.924 249.424 612.804 248.64 611.988 248.288V247.968C612.628 247.632 613.604 246.88 613.604 245.584C613.604 243.776 612.068 242.576 609.972 242.576C607.876 242.576 606.356 243.776 606.356 245.584C606.356 246.88 607.316 247.632 607.956 247.968V248.288C607.14 248.64 606.02 249.424 606.02 251.024C606.02 252.896 607.652 254.208 609.972 254.208C612.292 254.208 613.924 252.896 613.924 251.024ZM616.077 242.8V243.728H621.117V244.048L618.109 246.752V248.064C618.349 248 618.717 247.968 619.053 247.968C620.845 247.968 621.821 248.96 621.821 250.56C621.821 252.272 620.653 253.28 619.037 253.28C617.581 253.28 616.429 252.368 616.301 250.976H615.261C615.389 252.816 616.845 254.208 619.037 254.208C621.229 254.208 622.861 252.88 622.861 250.56C622.861 248.336 621.357 247.088 619.293 247.088V246.768L622.365 244.048V242.8H616.077ZM628.909 249.136H630.493V250.384H628.909V251.216H630.493V254H631.533V251.216H635.677V250.384H631.533V249.136H634.461C636.781 249.136 638.045 247.952 638.045 245.968C638.045 243.968 636.781 242.8 634.461 242.8H630.493V248.304H628.909V249.136ZM631.533 248.304V243.728H634.301C636.285 243.728 637.005 244.608 637.005 246C637.005 247.36 636.285 248.304 634.301 248.304H631.533Z" fill="#253640"/>
<path d="M389.81 34.6905C389.81 35.5227 389.339 36.2717 387.938 36.2717H386.343V37.409H387.924C389.588 37.409 390.185 38.1303 390.185 39.1844C390.185 40.3495 389.2 41.043 387.744 41.043C386.259 41.043 385.275 40.4604 384.956 39.2815H383.652C383.943 41.043 385.289 42.1803 387.73 42.1803C390.171 42.1803 391.461 40.7794 391.461 39.2121C391.461 37.839 390.823 37.1871 390.032 36.8542V36.5491C390.601 36.2301 391.072 35.6475 391.072 34.5379C391.072 33.1232 389.921 31.9165 387.66 31.9165C385.608 31.9165 384.29 32.9568 384.068 34.6073H385.344C385.566 33.6225 386.273 33.0538 387.66 33.0538C388.881 33.0538 389.81 33.6225 389.81 34.6905ZM397.732 42H398.842V37.2426C398.842 35.6753 397.719 34.8292 395.957 34.8292C394.39 34.8292 393.28 35.5782 393.183 36.8681H394.362C394.418 36.2578 394.945 35.8556 395.985 35.8556C397.205 35.8556 397.691 36.4659 397.691 37.3119V37.5893H395.416C393.474 37.5893 392.739 38.7822 392.739 39.9056C392.739 41.0984 393.641 42.1803 395.25 42.1803C396.248 42.1803 396.997 41.8058 397.427 41.2649H397.732V42ZM395.541 41.1539C394.501 41.1539 393.918 40.6546 393.918 39.864C393.918 39.0318 394.445 38.5325 395.596 38.5325H397.691V39.1705C397.691 40.2801 396.706 41.1539 395.541 41.1539ZM403.262 35.0095C401.667 35.0095 400.807 35.8001 400.807 37.1316C400.807 38.0054 401.167 38.6157 401.888 38.9625L400.71 42H401.944L402.998 39.226C403.151 39.2399 403.275 39.2399 403.428 39.2399H405.55V42H406.743V35.0095H403.262ZM405.55 36.0082V38.2412H403.386C402.332 38.2412 401.986 37.8251 401.986 37.1455C401.986 36.4381 402.332 36.0082 403.386 36.0082H405.55ZM413.93 38.1441C414.318 37.9361 414.679 37.4506 414.679 36.771C414.679 35.6614 413.874 35.0095 412.473 35.0095H409.006V42H412.598C414.193 42 415.067 41.362 415.067 40.0859C415.067 39.1844 414.582 38.6157 413.93 38.4493V38.1441ZM410.171 41.0014V38.907H412.529C413.541 38.907 413.888 39.3647 413.888 39.9611C413.888 40.5575 413.541 41.0014 412.529 41.0014H410.171ZM410.171 36.0082H412.362C413.208 36.0082 413.5 36.4243 413.5 36.9652C413.5 37.4645 413.208 37.9083 412.362 37.9083H410.171V36.0082ZM421.729 42H422.991L421.188 38.3799L422.894 35.0095H421.66L420.204 37.8945H418.081V35.0095H416.903V42H418.081V38.9209H420.176L421.729 42ZM426.328 42L429.449 36.5907H429.754V42H430.905V35.0095H429.185L426.12 40.4188H425.815V35.0095H424.664V42H426.328Z" fill="#253640"/>
<path d="M391.352 142.003H385.336V141.683L386.792 140.435C387.576 139.747 388.424 138.995 388.856 138.595C390.008 137.491 390.984 136.371 390.984 134.835C390.984 132.611 389.448 131.507 387.448 131.507C385.624 131.507 384.008 132.499 383.88 134.707H384.92C385.096 133.171 386.024 132.435 387.432 132.435C388.968 132.435 389.944 133.267 389.944 134.851C389.944 136.179 388.936 137.235 388.216 137.923C387.624 138.515 386.536 139.427 385.608 140.227L383.896 141.683V142.931H391.352V142.003ZM396.988 135.427C395.964 135.427 395.324 135.747 394.764 136.259H394.444L394.732 132.659H400.06V131.731H393.868L393.372 137.507H394.476C394.988 136.739 395.788 136.355 396.892 136.355C398.556 136.355 399.564 137.619 399.564 139.235C399.564 141.107 398.444 142.211 396.828 142.211C395.356 142.211 394.332 141.443 394.156 139.907H393.116C393.244 141.747 394.492 143.139 396.876 143.139C399.116 143.139 400.604 141.587 400.604 139.171C400.604 137.171 399.356 135.427 396.988 135.427Z" fill="#253640"/>
<path d="M383.976 91.9312H390.248V91.0032H387.736V80.7312H386.392L383.96 82.3632V83.4832L386.392 81.8512H386.696V91.0032H383.976V91.9312ZM393.131 83.5312C393.131 82.1712 394.315 81.4352 395.707 81.4352C397.099 81.4352 398.283 82.1712 398.283 83.5312C398.283 84.8912 397.099 85.6272 395.707 85.6272C394.315 85.6272 393.131 84.8912 393.131 83.5312ZM395.707 91.2112C394.059 91.2112 392.795 90.3312 392.795 88.9072C392.795 87.4672 393.995 86.5552 395.707 86.5552C397.419 86.5552 398.619 87.4672 398.619 88.9072C398.619 90.3312 397.355 91.2112 395.707 91.2112ZM399.659 88.9552C399.659 87.3552 398.539 86.5712 397.723 86.2192V85.8992C398.363 85.5632 399.339 84.8112 399.339 83.5152C399.339 81.7072 397.803 80.5072 395.707 80.5072C393.611 80.5072 392.091 81.7072 392.091 83.5152C392.091 84.8112 393.051 85.5632 393.691 85.8992V86.2192C392.875 86.5712 391.755 87.3552 391.755 88.9552C391.755 90.8272 393.387 92.1392 395.707 92.1392C398.027 92.1392 399.659 90.8272 399.659 88.9552Z" fill="#253640"/>
<path d="M383.976 197.931H390.248V197.003H387.736V186.731H386.392L383.96 188.363V189.483L386.392 187.851H386.696V197.003H383.976V197.931ZM399.243 197.003H393.227V196.683L394.683 195.435C395.467 194.747 396.315 193.995 396.747 193.595C397.899 192.491 398.875 191.371 398.875 189.835C398.875 187.611 397.339 186.507 395.339 186.507C393.515 186.507 391.899 187.499 391.771 189.707H392.811C392.987 188.171 393.915 187.435 395.323 187.435C396.859 187.435 397.835 188.267 397.835 189.851C397.835 191.179 396.827 192.235 396.107 192.923C395.515 193.515 394.427 194.427 393.499 195.227L391.787 196.683V197.931H399.243V197.003Z" fill="#253640"/>
<path d="M388.008 246.699C386.616 246.699 385.672 247.355 385.256 247.851H384.936C385.016 245.227 386.104 243.435 388.088 243.435C389.256 243.435 389.912 244.011 390.232 245.051H391.272C390.968 243.595 389.912 242.507 388.072 242.507C385.208 242.507 383.912 245.291 383.912 248.683C383.912 252.699 385.56 254.139 387.896 254.139C390.216 254.139 391.576 252.459 391.576 250.331C391.576 248.219 390.056 246.699 388.008 246.699ZM387.88 253.211C386.376 253.211 385.176 252.171 385.176 250.379C385.176 248.635 386.36 247.627 387.848 247.627C389.368 247.627 390.536 248.571 390.536 250.395C390.536 252.219 389.4 253.211 387.88 253.211Z" fill="#253640"/>
</svg>
