<svg width="394" height="279" viewBox="0 0 394 279" fill="none" xmlns="http://www.w3.org/2000/svg">
<rect opacity="0.5" x="7" y="14.4219" width="380.963" height="245.176" rx="17.3396" fill="white"/>
<rect y="14.4219" width="394" height="236.523" rx="17.3396" fill="white"/>
<rect x="20.084" y="83.0613" width="353.785" height="39.9926" rx="17.3396" fill="#F2F6F7"/>
<rect x="20.084" y="133.821" width="353.785" height="39.9926" rx="17.3396" fill="#F2F6F7"/>
<rect x="20.084" y="189.196" width="353.785" height="39.9926" rx="17.3396" fill="#F2F6F7"/>
<path d="M38.3401 43.1657V53.0688H40.2957L44.9006 44.6775H45.2057V53.0688H46.4263V43.1657H44.4706L39.8658 51.557H39.5606V43.1657H38.3401ZM53.5506 50.9606C53.3703 51.7373 52.7877 52.2228 51.7891 52.2228C50.2218 52.2228 49.5699 50.9467 49.5699 49.5459C49.5699 48.1589 50.2079 46.9244 51.7891 46.9244C52.7461 46.9244 53.287 47.396 53.509 48.1034H54.6879C54.4521 46.8135 53.4535 45.8981 51.7891 45.8981C49.6115 45.8981 48.3909 47.4654 48.3909 49.5736C48.3909 51.6402 49.6115 53.2492 51.7891 53.2492C53.4119 53.2492 54.466 52.3337 54.7295 50.9606H53.5506ZM55.7661 47.1047H58.1933V53.0688H59.3723V47.1047H61.7857V46.0784H55.7661V47.1047ZM66.2425 45.8981C64.051 45.8981 62.8027 47.507 62.8027 49.5736C62.8027 51.6402 64.051 53.2492 66.2425 53.2492C68.4201 53.2492 69.6823 51.6402 69.6823 49.5736C69.6823 47.507 68.4201 45.8981 66.2425 45.8981ZM66.2425 52.2228C64.6891 52.2228 63.9817 50.9467 63.9817 49.5736C63.9817 48.2005 64.6891 46.9244 66.2425 46.9244C67.7821 46.9244 68.5033 48.2005 68.5033 49.5736C68.5033 50.9467 67.7821 52.2228 66.2425 52.2228ZM71.12 46.0784V48.145C71.12 49.2962 71.2725 50.5029 73.8108 50.5029C74.4072 50.5029 75.2116 50.4335 75.808 50.3087V53.0688H77.0009V46.0784H75.808V49.2685C75.2948 49.3794 74.7123 49.4488 74.0604 49.4488C72.3405 49.4488 72.2989 48.7275 72.2989 48.0479V46.0784H71.12ZM85.3892 53.0688V46.0784H84.2102V48.9633H80.3405V46.0784H79.1615V53.0688H80.3405V49.9897H84.2102V53.0688H85.3892ZM89.3322 53.0688L92.4529 47.6595H92.7581V53.0688H93.9093V46.0784H92.1894L89.1241 51.4877H88.819V46.0784H87.6678V53.0688H89.3322ZM101.014 53.0688H102.276L100.473 49.4488L102.179 46.0784H100.945L99.4886 48.9633H97.3665V46.0784H96.1875V53.0688H97.3665V49.9897H99.4608L101.014 53.0688ZM107.018 53.0688H107.254C108.974 53.0688 109.723 52.0286 109.723 48.8108V47.1047H112.788V53.0688H113.981V46.0784H108.627V48.783C108.627 51.2657 108.197 51.9592 107.254 51.9592H107.018V53.0688ZM117.912 53.0688L121.033 47.6595H121.338V53.0688H122.489V46.0784H120.769L117.704 51.4877H117.399V46.0784H116.248V53.0688H117.912ZM130.995 52.0425V46.0784H125.724V47.9924C125.724 49.7262 125.308 51.0993 124.864 52.0425H123.935V55.0523H125.086V53.0688H131.134V55.0523H132.285V52.0425H130.995ZM129.816 52.0425H126.057C126.487 51.0993 126.82 49.7539 126.82 47.9924V47.1047H129.816V52.0425ZM138.268 53.0688H139.377V48.3114C139.377 46.7441 138.254 45.8981 136.492 45.8981C134.925 45.8981 133.815 46.647 133.718 47.9369H134.897C134.953 47.3267 135.48 46.9244 136.52 46.9244C137.741 46.9244 138.226 47.5347 138.226 48.3808V48.6582H135.951C134.01 48.6582 133.274 49.851 133.274 50.9745C133.274 52.1673 134.176 53.2492 135.785 53.2492C136.784 53.2492 137.533 52.8747 137.962 52.3337H138.268V53.0688ZM136.076 52.2228C135.036 52.2228 134.453 51.7235 134.453 50.9329C134.453 50.1007 134.98 49.6013 136.132 49.6013H138.226V50.2394C138.226 51.349 137.241 52.2228 136.076 52.2228Z" fill="#253640"/>
<path d="M269.038 51.7945C268.719 52.9457 267.817 53.6531 266.43 53.6531C264.128 53.6531 263.115 51.7668 263.115 49.6585C263.115 47.5641 264.142 45.664 266.444 45.664C267.817 45.664 268.552 46.2465 268.927 47.3006H270.245C269.842 45.5946 268.455 44.5266 266.444 44.5266C263.504 44.5266 261.853 46.7181 261.853 49.6585C261.853 52.599 263.476 54.7904 266.43 54.7904C268.608 54.7904 269.953 53.556 270.355 51.7945H269.038ZM271.462 48.646H273.889V54.6101H275.068V48.646H277.482V47.6196H271.462V48.646ZM281.938 47.4393C279.747 47.4393 278.499 49.0482 278.499 51.1149C278.499 53.1815 279.747 54.7904 281.938 54.7904C284.116 54.7904 285.378 53.1815 285.378 51.1149C285.378 49.0482 284.116 47.4393 281.938 47.4393ZM281.938 53.764C280.385 53.764 279.678 52.488 279.678 51.1149C279.678 49.7417 280.385 48.4657 281.938 48.4657C283.478 48.4657 284.199 49.7417 284.199 51.1149C284.199 52.488 283.478 53.764 281.938 53.764ZM288.882 54.6101L292.003 49.2008H292.308V54.6101H293.46V47.6196H291.74L288.674 53.0289H288.369V47.6196H287.218V54.6101H288.882ZM295.738 54.6101H296.889V48.9928H297.194L298.817 51.9887H300.121L301.744 48.9928H302.049V54.6101H303.2V47.6196H301.355L299.635 50.8097H299.33L297.61 47.6196H295.738V54.6101ZM308.486 47.4393C306.295 47.4393 305.047 49.0482 305.047 51.1149C305.047 53.1815 306.295 54.7904 308.486 54.7904C310.664 54.7904 311.926 53.1815 311.926 51.1149C311.926 49.0482 310.664 47.4393 308.486 47.4393ZM308.486 53.764C306.933 53.764 306.226 52.488 306.226 51.1149C306.226 49.7417 306.933 48.4657 308.486 48.4657C310.026 48.4657 310.747 49.7417 310.747 51.1149C310.747 52.488 310.026 53.764 308.486 53.764ZM318.496 52.5019C318.315 53.2786 317.733 53.764 316.734 53.764C315.167 53.764 314.515 52.488 314.515 51.0871C314.515 49.7001 315.153 48.4657 316.734 48.4657C317.691 48.4657 318.232 48.9373 318.454 49.6446H319.633C319.397 48.3547 318.399 47.4393 316.734 47.4393C314.557 47.4393 313.336 49.0066 313.336 51.1149C313.336 53.1815 314.557 54.7904 316.734 54.7904C318.357 54.7904 319.411 53.875 319.675 52.5019H318.496ZM320.711 48.646H323.139V54.6101H324.318V48.646H326.731V47.6196H320.711V48.646ZM329.465 47.6196H328.286V54.6101H331.532C333.238 54.6101 334.167 53.7224 334.167 52.2661C334.167 50.8236 333.238 49.9498 331.532 49.9498H329.465V47.6196ZM329.465 53.5837V50.9484H331.365C332.586 50.9484 332.988 51.4339 332.988 52.2661C332.988 53.0844 332.586 53.5837 331.365 53.5837H329.465ZM338.914 54.6101H339.15C340.87 54.6101 341.619 53.5699 341.619 50.352V48.646H344.684V54.6101H345.877V47.6196H340.523V50.3243C340.523 52.807 340.093 53.5005 339.15 53.5005H338.914V54.6101ZM349.808 54.6101L352.928 49.2008H353.233V54.6101H354.385V47.6196H352.665L349.6 53.0289H349.294V47.6196H348.143V54.6101H349.808ZM362.891 53.5837V47.6196H357.62V49.5337C357.62 51.2674 357.204 52.6406 356.76 53.5837H355.831V56.5935H356.982V54.6101H363.029V56.5935H364.18V53.5837H362.891ZM361.712 53.5837H357.953C358.383 52.6406 358.716 51.2952 358.716 49.5337V48.646H361.712V53.5837ZM370.163 54.6101H371.273V49.8527C371.273 48.2854 370.149 47.4393 368.388 47.4393C366.821 47.4393 365.711 48.1883 365.614 49.4782H366.793C366.848 48.8679 367.375 48.4657 368.416 48.4657C369.636 48.4657 370.122 49.076 370.122 49.922V50.1994H367.847C365.905 50.1994 365.17 51.3923 365.17 52.5157C365.17 53.7086 366.072 54.7904 367.68 54.7904C368.679 54.7904 369.428 54.4159 369.858 53.875H370.163V54.6101ZM367.972 53.764C366.932 53.764 366.349 53.2647 366.349 52.4741C366.349 51.6419 366.876 51.1426 368.027 51.1426H370.122V51.7806C370.122 52.8902 369.137 53.764 367.972 53.764Z" fill="#253640"/>
<path d="M81.3866 154.976H85.2586V155.376C85.2586 157.504 84.1226 159.184 81.6426 159.184C78.6826 159.184 77.4826 156.752 77.4826 154.224C77.4826 151.664 78.7306 149.264 81.6746 149.264C83.5146 149.264 84.4746 150.096 84.8746 151.376H85.9786C85.5306 149.456 83.9626 148.304 81.6746 148.304C78.2826 148.304 76.4266 150.896 76.4266 154.224C76.4266 157.488 78.2346 160.144 81.6426 160.144C85.0506 160.144 86.3466 157.68 86.3466 155.056V154.016H81.3866V154.976ZM92.0155 151.728C89.5195 151.728 88.1595 153.616 88.1595 155.936C88.1595 158.256 89.5195 160.144 92.0155 160.144C94.4955 160.144 95.8715 158.256 95.8715 155.936C95.8715 153.616 94.4955 151.728 92.0155 151.728ZM92.0155 159.248C90.0475 159.248 89.1675 157.616 89.1675 155.936C89.1675 154.256 90.0475 152.624 92.0155 152.624C93.9355 152.624 94.8635 154.256 94.8635 155.936C94.8635 157.616 93.9355 159.248 92.0155 159.248ZM101.422 151.728C98.9258 151.728 97.5658 153.616 97.5658 155.936C97.5658 158.256 98.9258 160.144 101.422 160.144C103.902 160.144 105.278 158.256 105.278 155.936C105.278 153.616 103.902 151.728 101.422 151.728ZM101.422 159.248C99.4538 159.248 98.5738 157.616 98.5738 155.936C98.5738 154.256 99.4538 152.624 101.422 152.624C103.342 152.624 104.27 154.256 104.27 155.936C104.27 157.616 103.342 159.248 101.422 159.248ZM113.452 151.936V152.832H113.132C112.668 152.272 111.852 151.728 110.556 151.728C108.332 151.728 106.972 153.488 106.972 155.84C106.972 158.176 108.332 159.936 110.556 159.936C111.82 159.936 112.636 159.408 113.1 158.832H113.42V159.536C113.42 161.312 112.588 162.336 110.796 162.336C109.5 162.336 108.54 161.968 108.284 160.88H107.292C107.564 162.368 108.812 163.232 110.812 163.232C113.116 163.232 114.428 161.776 114.428 159.536V151.936H113.452ZM110.668 159.04C108.972 159.04 107.98 157.76 107.98 155.84C107.98 153.904 108.956 152.624 110.668 152.624C112.588 152.624 113.42 154.176 113.42 155.84C113.42 157.504 112.588 159.04 110.668 159.04ZM118.148 148.304H117.14V159.936H118.148V148.304ZM127.595 155.44C127.595 153.552 126.475 151.728 124.155 151.728C121.771 151.728 120.363 153.408 120.363 155.84C120.363 158.224 121.691 160.144 124.171 160.144C126.107 160.144 127.179 159.104 127.435 157.824H126.427C126.171 158.704 125.403 159.248 124.171 159.248C122.475 159.248 121.371 157.968 121.371 155.984V155.76H127.595V155.44ZM124.123 152.624C125.659 152.624 126.475 153.728 126.555 154.864H121.435C121.611 153.728 122.491 152.624 124.123 152.624ZM134.394 148.512V159.936H135.45V155.168H139.082C141.514 155.168 142.842 153.904 142.842 151.84C142.842 149.776 141.514 148.512 139.082 148.512H134.394ZM135.45 154.208V149.472H138.906C141.034 149.472 141.786 150.4 141.786 151.84C141.786 153.28 141.034 154.208 138.906 154.208H135.45ZM151.298 155.44C151.298 153.552 150.178 151.728 147.858 151.728C145.474 151.728 144.066 153.408 144.066 155.84C144.066 158.224 145.394 160.144 147.874 160.144C149.81 160.144 150.882 159.104 151.138 157.824H150.13C149.874 158.704 149.106 159.248 147.874 159.248C146.178 159.248 145.074 157.968 145.074 155.984V155.76H151.298V155.44ZM147.826 152.624C149.362 152.624 150.178 153.728 150.258 154.864H145.138C145.314 153.728 146.194 152.624 147.826 152.624ZM159.02 159.936H160.124L158.06 155.792L160.012 151.936H158.924L157.196 155.36H154.508V151.936H153.5V159.936H154.508V156.256H157.18L159.02 159.936ZM161.181 159.936H161.453C163.261 159.936 164.013 158.72 164.013 154.928V152.832H167.885V159.936H168.893V151.936H163.069V154.928C163.069 158.112 162.589 159.008 161.453 159.008H161.181V159.936ZM176.777 159.936H177.753V154.384C177.753 152.72 176.521 151.728 174.585 151.728C172.841 151.728 171.625 152.544 171.497 154H172.505C172.569 153.152 173.257 152.624 174.585 152.624C176.137 152.624 176.745 153.424 176.745 154.448V154.944H173.961C171.753 154.944 170.969 156.304 170.969 157.568C170.969 158.912 171.977 160.144 173.865 160.144C175.033 160.144 175.961 159.68 176.457 159.04H176.777V159.936ZM174.009 159.248C172.793 159.248 171.977 158.624 171.977 157.488C171.977 156.464 172.761 155.792 174.233 155.792H176.745V156.736C176.745 158.208 175.497 159.248 174.009 159.248ZM180.343 159.936H181.351V152.928H181.639L183.735 156.736H185.079L187.159 152.928H187.447V159.936H188.455V151.936H186.663L184.583 155.808H184.263L182.135 151.936H180.343V159.936ZM196.34 159.936H197.316V154.384C197.316 152.72 196.084 151.728 194.148 151.728C192.404 151.728 191.188 152.544 191.06 154H192.068C192.132 153.152 192.82 152.624 194.148 152.624C195.7 152.624 196.308 153.424 196.308 154.448V154.944H193.524C191.316 154.944 190.532 156.304 190.532 157.568C190.532 158.912 191.54 160.144 193.428 160.144C194.596 160.144 195.524 159.68 196.02 159.04H196.34V159.936ZM193.572 159.248C192.356 159.248 191.54 158.624 191.54 157.488C191.54 156.464 192.324 155.792 193.796 155.792H196.308V156.736C196.308 158.208 195.06 159.248 193.572 159.248Z" fill="#253640"/>
<path d="M268.8 159.019H262.784V158.699L264.24 157.451C265.024 156.763 265.872 156.011 266.304 155.611C267.456 154.507 268.432 153.387 268.432 151.851C268.432 149.627 266.896 148.523 264.896 148.523C263.072 148.523 261.456 149.515 261.328 151.723H262.368C262.544 150.187 263.472 149.451 264.88 149.451C266.416 149.451 267.392 150.283 267.392 151.867C267.392 153.195 266.384 154.251 265.664 154.939C265.072 155.531 263.984 156.443 263.056 157.243L261.344 158.699V159.947H268.8V159.019ZM270.9 148.747V149.675H275.94V149.995L272.932 152.699V154.011C273.172 153.947 273.54 153.915 273.876 153.915C275.668 153.915 276.644 154.907 276.644 156.507C276.644 158.219 275.476 159.227 273.86 159.227C272.404 159.227 271.252 158.315 271.124 156.923H270.084C270.212 158.763 271.668 160.155 273.86 160.155C276.052 160.155 277.684 158.827 277.684 156.507C277.684 154.283 276.18 153.035 274.116 153.035V152.715L277.188 149.995V148.747H270.9ZM283.407 148.523C281.103 148.523 279.391 150.331 279.391 154.347C279.391 158.363 281.103 160.155 283.407 160.155C285.711 160.155 287.423 158.363 287.423 154.347C287.423 150.331 285.711 148.523 283.407 148.523ZM283.407 159.227C281.471 159.227 280.431 157.531 280.431 154.347C280.431 151.163 281.471 149.451 283.407 149.451C285.343 149.451 286.383 151.163 286.383 154.347C286.383 157.531 285.343 159.227 283.407 159.227ZM289.138 155.083H290.722V156.331H289.138V157.163H290.722V159.947H291.762V157.163H295.906V156.331H291.762V155.083H294.69C297.01 155.083 298.274 153.899 298.274 151.915C298.274 149.915 297.01 148.747 294.69 148.747H290.722V154.251H289.138V155.083ZM291.762 154.251V149.675H294.53C296.514 149.675 297.234 150.555 297.234 151.947C297.234 153.307 296.514 154.251 294.53 154.251H291.762Z" fill="#253640"/>
<mask id="mask0" mask-type="alpha" maskUnits="userSpaceOnUse" x="37" y="144" width="21" height="21">
<rect x="37.7744" y="144.1" width="20" height="20" fill="#C4C4C4"/>
</mask>
<g mask="url(#mask0)">
<rect x="51.4602" y="146.98" width="19.1688" height="5.78968" rx="2.89884" transform="matrix(-0.464282 0.883817 -0.885688 -0.467833 205.531 170.261)" fill="#FCBC03"/>
<rect x="45.2695" y="158.732" width="5.83499" height="5.78968" rx="2.89884" transform="matrix(-0.464282 0.883817 -0.885688 -0.467833 206.874 192.982)" fill="#2DA951"/>
<rect x="48.9097" y="144.033" width="19.0958" height="5.81176" rx="2.90588" transform="rotate(60 48.9097 144.033)" fill="#4284F4"/>
</g>
<path d="M80.928 97.576C78.56 97.576 77.264 98.776 77.264 100.808C77.264 102.2 77.888 103.192 79.04 103.688L77.168 109H78.272L80.064 103.96C80.304 104.008 80.592 104.024 80.928 104.024H84.8V109H85.856V97.576H80.928ZM81.088 103.064C79.056 103.064 78.32 102.2 78.32 100.808C78.32 99.416 79.04 98.536 81.088 98.536H84.8V103.064H81.088ZM95.6154 109V101H94.6074V104.424H89.7274V101H88.7194V109H89.7274V105.32H94.6074V109H95.6154ZM105.225 108.104V101H99.4808V103.144C99.4808 105.32 98.9368 107.016 98.3768 108.104H97.3688V111.288H98.3768V109H105.705V111.288H106.713V108.104H105.225ZM104.217 108.104H99.4648C100.025 107.016 100.441 105.32 100.441 103.144V101.896H104.217V108.104ZM115.267 104.504C115.267 102.616 114.148 100.792 111.828 100.792C109.444 100.792 108.036 102.472 108.036 104.904C108.036 107.288 109.364 109.208 111.844 109.208C113.78 109.208 114.852 108.168 115.108 106.888H114.1C113.844 107.768 113.076 108.312 111.844 108.312C110.148 108.312 109.044 107.032 109.044 105.048V104.824H115.267V104.504ZM111.796 101.688C113.332 101.688 114.148 102.792 114.228 103.928H109.108C109.284 102.792 110.164 101.688 111.796 101.688ZM122.989 109H124.093L122.029 104.856L123.981 101H122.893L121.165 104.424H118.477V101H117.469V109H118.477V105.32H121.149L122.989 109ZM131.412 106.712C131.172 107.672 130.452 108.312 129.172 108.312C127.188 108.312 126.356 106.696 126.356 104.968C126.356 103.224 127.172 101.688 129.172 101.688C130.404 101.688 131.076 102.312 131.38 103.224H132.388C132.084 101.816 131.028 100.792 129.172 100.792C126.692 100.792 125.348 102.648 125.348 105C125.348 107.32 126.692 109.208 129.172 109.208C130.98 109.208 132.1 108.184 132.42 106.712H131.412ZM135.78 109V107.368H134.436V109H135.78ZM147.776 108.04V97.576H140.88V99.88C140.88 103.848 140.048 106.408 139.36 108.04H138.176V111.8H139.232V109H148.368V111.8H149.424V108.04H147.776ZM146.72 108.04H140.544C141.184 106.424 141.936 103.704 141.936 99.88V98.536H146.72V108.04ZM153.495 109L157.287 101.992H157.607V109H158.615V101H156.759L153.047 108.008H152.727V101H151.719V109H153.495ZM165.217 109.208C167.457 109.208 168.785 107.384 168.785 105C168.785 102.632 167.457 100.792 165.217 100.792C163.889 100.792 163.073 101.336 162.625 101.896H162.305V101H161.329V112.2H162.337V108.104H162.657C163.105 108.68 163.889 109.208 165.217 109.208ZM165.089 101.688C166.833 101.688 167.777 103.032 167.777 105C167.777 106.968 166.833 108.312 165.089 108.312C163.121 108.312 162.337 106.696 162.337 105C162.337 103.32 163.121 101.688 165.089 101.688ZM177.705 104.504C177.705 102.616 176.585 100.792 174.265 100.792C171.881 100.792 170.473 102.472 170.473 104.904C170.473 107.288 171.801 109.208 174.281 109.208C176.217 109.208 177.289 108.168 177.545 106.888H176.537C176.281 107.768 175.513 108.312 174.281 108.312C172.585 108.312 171.481 107.032 171.481 105.048V104.824H177.705V104.504ZM174.233 101.688C175.769 101.688 176.585 102.792 176.665 103.928H171.545C171.721 102.792 172.601 101.688 174.233 101.688ZM185.427 109H186.531L184.467 104.856L186.419 101H185.331L183.603 104.424H180.915V101H179.907V109H180.915V105.32H183.587L185.427 109ZM187.652 101.896H190.484V109H191.492V101.896H194.308V101H187.652V101.896Z" fill="#253640"/>
<path d="M261.424 109.09H267.696V108.162H265.184V97.8901H263.84L261.408 99.5221V100.642L263.84 99.0101H264.144V108.162H261.424V109.09ZM273.266 97.6661C270.962 97.6661 269.25 99.4741 269.25 103.49C269.25 107.506 270.962 109.298 273.266 109.298C275.57 109.298 277.282 107.506 277.282 103.49C277.282 99.4741 275.57 97.6661 273.266 97.6661ZM273.266 108.37C271.33 108.37 270.29 106.674 270.29 103.49C270.29 100.306 271.33 98.5941 273.266 98.5941C275.202 98.5941 276.242 100.306 276.242 103.49C276.242 106.674 275.202 108.37 273.266 108.37ZM286.55 108.162H280.534V107.842L281.99 106.594C282.774 105.906 283.622 105.154 284.054 104.754C285.206 103.65 286.182 102.53 286.182 100.994C286.182 98.7701 284.646 97.6661 282.646 97.6661C280.822 97.6661 279.206 98.6581 279.078 100.866H280.118C280.294 99.3301 281.222 98.5941 282.63 98.5941C284.166 98.5941 285.142 99.4261 285.142 101.01C285.142 102.338 284.134 103.394 283.414 104.082C282.822 104.674 281.734 105.586 280.806 106.386L279.094 107.842V109.09H286.55V108.162ZM288.154 104.226H289.738V105.474H288.154V106.306H289.738V109.09H290.778V106.306H294.922V105.474H290.778V104.226H293.706C296.026 104.226 297.29 103.042 297.29 101.058C297.29 99.0581 296.026 97.8901 293.706 97.8901H289.738V103.394H288.154V104.226ZM290.778 103.394V98.8181H293.546C295.53 98.8181 296.25 99.6981 296.25 101.09C296.25 102.45 295.53 103.394 293.546 103.394H290.778Z" fill="#253640"/>
<rect x="40.0139" y="94" width="17.1429" height="12" fill="#FFCC00"/>
<rect width="3.42857" height="5.14286" transform="matrix(1 0 0 -1 40.0139 111.143)" fill="#FFCC00"/>
<rect width="3.42857" height="5.14286" transform="matrix(1 0 0 -1 44.2993 111.143)" fill="#FFCC00"/>
<rect width="3.42857" height="1.71429" transform="matrix(1 0 0 -1 48.5854 107.714)" fill="#FFCC00"/>
<path d="M54.5857 110.286H58.0142L57.1571 106H53.7285L54.5857 110.286Z" fill="#EFB30D"/>
<rect x="43.4426" y="98.2859" width="10.2857" height="0.857143" fill="#030003"/>
<rect x="43.4426" y="100" width="10.2857" height="0.857143" fill="#030003"/>
<rect x="43.4426" y="101.715" width="6" height="0.857143" fill="#030003"/>
<path d="M84.9226 212.328C84.4906 213.736 83.3866 214.664 81.6426 214.664C78.7306 214.664 77.4826 212.264 77.4826 209.704C77.4826 207.16 78.7466 204.744 81.6586 204.744C83.4026 204.744 84.3146 205.512 84.8106 206.856H85.9306C85.4666 204.936 83.8826 203.784 81.6586 203.784C78.2826 203.784 76.4266 206.36 76.4266 209.704C76.4266 213.048 78.2826 215.624 81.6426 215.624C84.0586 215.624 85.5786 214.264 86.0586 212.328H84.9226ZM87.354 208.312H90.186V215.416H91.194V208.312H94.01V207.416H87.354V208.312ZM101.011 215.416H101.987V209.864C101.987 208.2 100.755 207.208 98.8194 207.208C97.0754 207.208 95.8594 208.024 95.7314 209.48H96.7394C96.8034 208.632 97.4914 208.104 98.8194 208.104C100.371 208.104 100.979 208.904 100.979 209.928V210.424H98.1954C95.9874 210.424 95.2034 211.784 95.2034 213.048C95.2034 214.392 96.2114 215.624 98.0994 215.624C99.2674 215.624 100.195 215.16 100.691 214.52H101.011V215.416ZM98.2434 214.728C97.0274 214.728 96.2114 214.104 96.2114 212.968C96.2114 211.944 96.9954 211.272 98.4674 211.272H100.979V212.216C100.979 213.688 99.7314 214.728 98.2434 214.728ZM103.573 208.312H106.405V215.416H107.413V208.312H110.229V207.416H103.573V208.312ZM113.07 207.416H112.062V215.416H115.598C117.502 215.416 118.542 214.424 118.542 212.808C118.542 211.192 117.502 210.216 115.598 210.216H113.07V207.416ZM113.07 214.52V211.112H115.47C117.006 211.112 117.534 211.784 117.534 212.824C117.534 213.848 117.006 214.52 115.47 214.52H113.07ZM122.995 207.416C121.283 207.416 120.371 208.28 120.371 209.736C120.371 210.744 120.787 211.432 121.619 211.8L120.227 215.416H121.283L122.579 212.024C122.707 212.04 122.851 212.04 122.995 212.04H125.923V215.416H126.931V207.416H122.995ZM125.923 208.312V211.144H123.091C121.811 211.144 121.379 210.584 121.379 209.736C121.379 208.888 121.827 208.312 123.091 208.312H125.923ZM139.437 211.016C139.933 210.76 140.349 210.2 140.349 209.432C140.349 208.152 139.437 207.416 137.837 207.416H134.109V215.416H137.981C139.789 215.416 140.813 214.696 140.813 213.224C140.813 212.2 140.221 211.544 139.437 211.336V211.016ZM135.117 214.52V211.752H138.077C139.373 211.752 139.805 212.392 139.805 213.144C139.805 213.912 139.373 214.52 138.077 214.52H135.117ZM135.117 208.312H137.853C138.973 208.312 139.341 208.904 139.341 209.592C139.341 210.248 138.957 210.856 137.853 210.856H135.117V208.312ZM150.91 207.416C149.806 207.416 148.958 207.704 148.254 208.6H147.95C148.126 207.272 148.51 206.008 150.094 205.752L152.478 205.368C153.646 205.176 153.982 204.664 154.046 203.784H153.038C152.99 204.248 152.846 204.344 152.27 204.424L150.078 204.776C147.246 205.24 146.91 208.072 146.91 210.824C146.91 213.88 148.318 215.624 150.814 215.624C153.294 215.624 154.686 213.784 154.686 211.528C154.686 209.256 153.39 207.416 150.91 207.416ZM150.782 214.728C148.83 214.728 147.918 213.144 147.918 211.528C147.918 209.896 148.83 208.312 150.782 208.312C152.718 208.312 153.646 209.896 153.646 211.528C153.646 213.144 152.718 214.728 150.782 214.728ZM155.79 215.416H156.062C157.87 215.416 158.622 214.2 158.622 210.408V208.312H162.494V215.416H163.502V207.416H157.678V210.408C157.678 213.592 157.198 214.488 156.062 214.488H155.79V215.416ZM169.562 207.208C167.066 207.208 165.706 209.096 165.706 211.416C165.706 213.736 167.066 215.624 169.562 215.624C172.042 215.624 173.418 213.736 173.418 211.416C173.418 209.096 172.042 207.208 169.562 207.208ZM169.562 214.728C167.594 214.728 166.714 213.096 166.714 211.416C166.714 209.736 167.594 208.104 169.562 208.104C171.482 208.104 172.41 209.736 172.41 211.416C172.41 213.096 171.482 214.728 169.562 214.728ZM175.625 215.416H176.633V208.312H181.433V207.416H175.625V215.416ZM189.626 210.92C189.626 209.032 188.506 207.208 186.186 207.208C183.802 207.208 182.394 208.888 182.394 211.32C182.394 213.704 183.722 215.624 186.202 215.624C188.138 215.624 189.21 214.584 189.466 213.304H188.458C188.202 214.184 187.434 214.728 186.202 214.728C184.506 214.728 183.402 213.448 183.402 211.464V211.24H189.626V210.92ZM186.154 208.104C187.69 208.104 188.506 209.208 188.586 210.344H183.466C183.642 209.208 184.522 208.104 186.154 208.104Z" fill="#253640"/>
<path d="M265.28 207.923C264.256 207.923 263.616 208.243 263.056 208.755H262.736L263.024 205.155H268.352V204.227H262.16L261.664 210.003H262.768C263.28 209.235 264.08 208.851 265.184 208.851C266.848 208.851 267.856 210.115 267.856 211.731C267.856 213.603 266.736 214.707 265.12 214.707C263.648 214.707 262.624 213.939 262.448 212.403H261.408C261.536 214.243 262.784 215.635 265.168 215.635C267.408 215.635 268.896 214.083 268.896 211.667C268.896 209.667 267.648 207.923 265.28 207.923ZM277.072 211.763V204.227H275.392L270.416 211.443V212.691H276.032V215.427H277.072V212.691H278.672V211.763H277.072ZM271.552 211.763V211.443L275.712 205.299H276.032V211.763H271.552ZM280.217 210.563H281.801V211.811H280.217V212.643H281.801V215.427H282.841V212.643H286.985V211.811H282.841V210.563H285.769C288.089 210.563 289.353 209.379 289.353 207.395C289.353 205.395 288.089 204.227 285.769 204.227H281.801V209.731H280.217V210.563ZM282.841 209.731V205.155H285.609C287.593 205.155 288.313 206.035 288.313 207.427C288.313 208.787 287.593 209.731 285.609 209.731H282.841Z" fill="#253640"/>
<rect x="36.9866" y="198.921" width="21.5756" height="21.6298" fill="#FEEBEF"/>
<path d="M42.4844 215.491H43.492V211.399H42.4854L42.4854 210.442H44.3782L44.4384 211.64C44.4384 211.64 44.7174 211.126 45.1332 210.836C45.549 210.546 46.1672 210.442 46.1672 210.442H47.2722V212.297H46.282V211.361C46.282 211.361 45.4833 211.438 45.0511 211.908C44.619 212.379 44.5424 213.046 44.5424 213.046V215.513C45.1113 215.513 46.5829 215.513 47.13 215.513C47.13 215.907 47.13 216.055 47.13 216.485H42.4844V215.491Z" fill="black"/>
<rect x="40.3704" y="215.498" width="1.03103" height="0.987744" fill="black"/>
<path d="M53.584 204.247C53.584 204.247 53.4032 204.063 53.0184 203.915C52.6337 203.767 52.2628 203.833 52.2628 203.833C52.2628 203.833 51.5854 203.725 50.8935 204.368C50.1419 205.071 50.2115 205.913 50.2115 205.913L49.0493 205.962C49.0493 205.962 49.0493 204.556 50.1419 203.645C51.2346 202.733 52.2628 202.813 52.2628 202.813C52.2628 202.813 52.9355 202.8 53.584 203.071C54.2325 203.342 54.615 203.692 54.615 203.692V205.235H53.584V204.247Z" fill="black"/>
<path d="M53.584 207.749C53.584 207.749 53.4032 207.942 53.0184 208.096C52.6337 208.25 52.2628 208.181 52.2628 208.181C52.2628 208.181 51.5854 208.293 50.8935 207.623C50.1419 206.89 50.2086 205.842 50.2086 205.842L49.0493 205.962C49.0493 205.962 49.0493 207.427 50.1419 208.378C51.2346 209.328 52.2628 209.244 52.2628 209.244C52.2628 209.244 52.9355 209.258 53.584 208.975C54.2325 208.693 54.8323 207.953 54.8323 207.953L54.3687 207.623L53.9905 207.343L53.584 207.749Z" fill="black"/>
<path d="M42.0327 203.026L43.9363 203.026L45.5158 207.479L47.033 203.026L48.8308 203.026V204.013H47.8436L45.9211 209.173H44.9339L43.0637 204.013H42.0327V203.026Z" fill="black"/>
<path d="M53.3796 215.498C53.3796 215.498 53.0543 216.022 52.6643 216.354C52.2743 216.686 51.5619 216.66 51.5619 216.66C51.5619 216.66 50.4075 216.66 49.8656 215.946C49.3237 215.233 49.3538 214.368 49.3538 214.368V211.491H48.4402V210.44H50.4308V214.368C50.4308 214.368 50.4766 214.888 50.7045 215.254C50.9325 215.62 51.5619 215.696 51.5619 215.696C51.5619 215.696 52.2012 215.731 52.5926 215.349C52.9839 214.966 53.124 214.732 53.1979 214.368C53.2718 214.004 53.1979 211.491 53.1979 211.491H52.1998V210.44H54.3794V214.368V215.498H55.1788V216.485H53.5259L53.3796 215.498Z" fill="black"/>
</svg>
