<svg width="302" height="274" viewBox="0 0 302 274" fill="none" xmlns="http://www.w3.org/2000/svg">
<path d="M277.635 250.092V249.775C278.188 249.475 278.947 248.748 278.947 247.483C278.947 245.823 277.493 244.511 275.042 244.511C272.592 244.511 271.138 245.823 271.138 247.483C271.138 248.764 271.881 249.475 272.45 249.775V250.092C271.723 250.376 270.774 251.23 270.774 252.684C270.774 254.47 272.26 256.004 275.042 256.004C277.824 256.004 279.31 254.47 279.31 252.684C279.31 251.23 278.362 250.376 277.635 250.092ZM275.042 246.266C276.086 246.266 276.75 246.898 276.75 247.72C276.75 248.574 276.086 249.19 275.042 249.19C274.015 249.19 273.335 248.574 273.335 247.72C273.335 246.898 274.015 246.266 275.042 246.266ZM275.042 254.107C273.699 254.107 273.035 253.364 273.035 252.463C273.035 251.577 273.699 250.819 275.042 250.819C276.37 250.819 277.05 251.577 277.05 252.463C277.05 253.364 276.37 254.107 275.042 254.107ZM283.244 244.511C281.489 244.511 280.636 245.823 280.636 247.499C280.636 249.19 281.489 250.487 283.244 250.487C285.014 250.487 285.884 249.19 285.884 247.499C285.884 245.823 285.014 244.511 283.244 244.511ZM283.244 249.19C282.438 249.19 282.09 248.479 282.09 247.499C282.09 246.535 282.438 245.808 283.244 245.808C284.066 245.808 284.414 246.535 284.414 247.499C284.414 248.479 284.066 249.19 283.244 249.19ZM290.721 250.028C288.951 250.028 288.081 251.34 288.081 253.016C288.081 254.707 288.951 256.004 290.721 256.004C292.476 256.004 293.345 254.707 293.345 253.016C293.345 251.34 292.476 250.028 290.721 250.028ZM290.721 254.707C289.899 254.707 289.551 253.996 289.551 253.016C289.551 252.052 289.899 251.325 290.721 251.325C291.527 251.325 291.891 252.052 291.891 253.016C291.891 253.996 291.527 254.707 290.721 254.707ZM284.461 255.798L291.148 244.733H289.551L282.849 255.798H284.461Z" fill="#808191"/>
<path d="M164.088 248.068H166.364C166.459 246.993 167.155 246.535 168.072 246.535C169.02 246.535 169.684 247.056 169.684 248.116C169.684 249.19 168.799 250.044 167.914 250.692L164.136 253.522V255.798H172.308V253.822H167.629V253.506L169.937 251.704C171.123 250.787 171.976 249.491 171.976 248.068C171.976 245.776 170.38 244.511 168.135 244.511C165.764 244.511 164.199 245.76 164.088 248.068ZM178.053 244.511C175.603 244.511 173.722 246.234 173.722 250.265C173.722 254.281 175.603 256.004 178.053 256.004C180.503 256.004 182.384 254.281 182.384 250.265C182.384 246.234 180.503 244.511 178.053 244.511ZM178.053 253.98C176.393 253.98 176.014 252.036 176.014 250.265C176.014 248.479 176.393 246.535 178.053 246.535C179.729 246.535 180.108 248.479 180.108 250.265C180.108 252.036 179.729 253.98 178.053 253.98ZM186.376 244.511C184.621 244.511 183.767 245.823 183.767 247.499C183.767 249.19 184.621 250.487 186.376 250.487C188.146 250.487 189.015 249.19 189.015 247.499C189.015 245.823 188.146 244.511 186.376 244.511ZM186.376 249.19C185.569 249.19 185.222 248.479 185.222 247.499C185.222 246.535 185.569 245.808 186.376 245.808C187.198 245.808 187.545 246.535 187.545 247.499C187.545 248.479 187.198 249.19 186.376 249.19ZM193.853 250.028C192.082 250.028 191.213 251.34 191.213 253.016C191.213 254.707 192.082 256.004 193.853 256.004C195.607 256.004 196.477 254.707 196.477 253.016C196.477 251.34 195.607 250.028 193.853 250.028ZM193.853 254.707C193.031 254.707 192.683 253.996 192.683 253.016C192.683 252.052 193.031 251.325 193.853 251.325C194.659 251.325 195.022 252.052 195.022 253.016C195.022 253.996 194.659 254.707 193.853 254.707ZM187.593 255.798L194.279 244.733H192.683L185.98 255.798H187.593Z" fill="#808191"/>
<path d="M75.672 15.8076H21.8066C18.4929 15.8076 15.8066 18.4939 15.8066 21.8076V225.846C15.8066 229.159 18.4929 231.846 21.8066 231.846H75.672C78.9857 231.846 81.672 229.159 81.672 225.846V21.8076C81.672 18.4939 78.9857 15.8076 75.672 15.8076Z" fill="url(#paint0_linear)"/>
<path d="M47.4221 255.558C50.3322 255.558 52.6913 253.199 52.6913 250.289C52.6913 247.379 50.3322 245.02 47.4221 245.02C44.5119 245.02 42.1528 247.379 42.1528 250.289C42.1528 253.199 44.5119 255.558 47.4221 255.558Z" fill="#0049C6"/>
<path d="M47.4222 252.923C48.8773 252.923 50.0568 251.743 50.0568 250.288C50.0568 248.833 48.8773 247.653 47.4222 247.653C45.9672 247.653 44.7876 248.833 44.7876 250.288C44.7876 251.743 45.9672 252.923 47.4222 252.923Z" fill="white"/>
<path d="M152.807 255.558C155.717 255.558 158.076 253.199 158.076 250.289C158.076 247.379 155.717 245.02 152.807 245.02C149.897 245.02 147.538 247.379 147.538 250.289C147.538 253.199 149.897 255.558 152.807 255.558Z" fill="#0049C6"/>
<path d="M152.807 252.923C154.262 252.923 155.442 251.743 155.442 250.288C155.442 248.833 154.262 247.653 152.807 247.653C151.352 247.653 150.172 248.833 150.172 250.288C150.172 251.743 151.352 252.923 152.807 252.923Z" fill="white"/>
<path d="M258.191 255.558C261.101 255.558 263.46 253.199 263.46 250.289C263.46 247.379 261.101 245.02 258.191 245.02C255.281 245.02 252.922 247.379 252.922 250.289C252.922 253.199 255.281 255.558 258.191 255.558Z" fill="#0049C6"/>
<path d="M258.191 252.923C259.646 252.923 260.826 251.743 260.826 250.288C260.826 248.833 259.646 247.653 258.191 247.653C256.736 247.653 255.557 248.833 255.557 250.288C255.557 251.743 256.736 252.923 258.191 252.923Z" fill="white"/>
<path d="M66.2597 247.595V245.319H58.7036V247.295H63.9044V247.595L59.4624 256.385H61.8336L66.2597 247.595ZM67.7653 248.655H70.0416C70.1364 247.58 70.832 247.121 71.7488 247.121C72.6973 247.121 73.3612 247.643 73.3612 248.702C73.3612 249.777 72.476 250.631 71.5907 251.279L67.8127 254.108V256.385H75.9853V254.409H71.3062V254.092L73.6141 252.29C74.7997 251.373 75.6533 250.077 75.6533 248.655C75.6533 246.362 74.0567 245.098 71.812 245.098C69.4409 245.098 67.8759 246.347 67.7653 248.655ZM79.8332 245.098C78.0786 245.098 77.2249 246.41 77.2249 248.085C77.2249 249.777 78.0786 251.073 79.8332 251.073C81.6037 251.073 82.4731 249.777 82.4731 248.085C82.4731 246.41 81.6037 245.098 79.8332 245.098ZM79.8332 249.777C79.027 249.777 78.6792 249.066 78.6792 248.085C78.6792 247.121 79.027 246.394 79.8332 246.394C80.6552 246.394 81.003 247.121 81.003 248.085C81.003 249.066 80.6552 249.777 79.8332 249.777ZM87.3102 250.615C85.5398 250.615 84.6704 251.927 84.6704 253.602C84.6704 255.294 85.5398 256.59 87.3102 256.59C89.0649 256.59 89.9343 255.294 89.9343 253.602C89.9343 251.927 89.0649 250.615 87.3102 250.615ZM87.3102 255.294C86.4882 255.294 86.1405 254.582 86.1405 253.602C86.1405 252.638 86.4882 251.911 87.3102 251.911C88.1164 251.911 88.48 252.638 88.48 253.602C88.48 254.582 88.1164 255.294 87.3102 255.294ZM81.0504 256.385L87.7371 245.319H86.1405L79.438 256.385H81.0504Z" fill="#808191"/>
<path d="M181.056 176.519H127.191C123.877 176.519 121.191 179.205 121.191 182.519V225.846C121.191 229.16 123.877 231.846 127.191 231.846H181.056C184.37 231.846 187.056 229.16 187.056 225.846V182.519C187.056 179.205 184.37 176.519 181.056 176.519Z" fill="#4EBDC7"/>
<path d="M286.442 216.039H232.576C229.262 216.039 226.576 218.725 226.576 222.039V225.847C226.576 229.16 229.262 231.847 232.576 231.847H286.442C289.755 231.847 292.442 229.16 292.442 225.847V222.039C292.442 218.725 289.755 216.039 286.442 216.039Z" fill="#99D8E8"/>
<path d="M33.9495 241.947H16.8066V253.947H33.9495V241.947Z" fill="#FFCC00"/>
<path d="M20.2352 259.09H16.8066V253.947H20.2352V259.09Z" fill="#FFCC00"/>
<path d="M24.5204 259.09H21.0918V253.947H24.5204V259.09Z" fill="#FFCC00"/>
<path d="M28.807 255.661H25.3784V253.947H28.807V255.661Z" fill="#FFCC00"/>
<path d="M31.3782 258.233H34.8067L33.9496 253.947H30.521L31.3782 258.233Z" fill="#EFB30D"/>
<path d="M30.5211 246.233H20.2354V247.09H30.5211V246.233Z" fill="#030003"/>
<path d="M30.5211 247.948H20.2354V248.805H30.5211V247.948Z" fill="#030003"/>
<path d="M26.2354 249.662H20.2354V250.519H26.2354V249.662Z" fill="#030003"/>
<path d="M245.21 241.067H225.259V260.826H245.21V241.067Z" fill="#FEEBEF"/>
<path d="M230.343 256.204H231.274V252.467H230.343V251.592H232.094L232.149 252.686C232.149 252.686 232.407 252.217 232.792 251.952C233.176 251.687 233.748 251.592 233.748 251.592H234.77V253.286H233.854V252.432C233.854 252.432 233.116 252.502 232.716 252.931C232.316 253.361 232.246 253.971 232.246 253.971V256.225C232.772 256.225 234.133 256.225 234.638 256.225C234.638 256.585 234.638 256.72 234.638 257.113H230.343V256.204Z" fill="black"/>
<path d="M229.342 256.21H228.388V257.112H229.342V256.21Z" fill="black"/>
<path d="M240.607 245.933C240.607 245.933 240.439 245.764 240.084 245.629C239.728 245.494 239.385 245.554 239.385 245.554C239.385 245.554 238.759 245.456 238.119 246.043C237.424 246.686 237.488 247.455 237.488 247.455L236.413 247.499C236.413 247.499 236.413 246.215 237.424 245.382C238.434 244.55 239.385 244.623 239.385 244.623C239.385 244.623 240.007 244.611 240.607 244.858C241.206 245.106 241.56 245.426 241.56 245.426V246.835H240.607V245.933Z" fill="black"/>
<path d="M240.607 249.132C240.607 249.132 240.439 249.308 240.084 249.448C239.728 249.589 239.385 249.527 239.385 249.527C239.385 249.527 238.759 249.629 238.119 249.017C237.424 248.347 237.485 247.39 237.485 247.39L236.413 247.499C236.413 247.499 236.413 248.838 237.424 249.706C238.434 250.574 239.385 250.498 239.385 250.498C239.385 250.498 240.007 250.51 240.607 250.252C241.206 249.994 241.761 249.318 241.761 249.318L241.332 249.017L240.983 248.761L240.607 249.132Z" fill="black"/>
<path d="M229.925 244.817H231.685L233.146 248.885L234.549 244.817H236.211V245.719H235.298L233.521 250.432H232.608L230.878 245.719H229.925V244.817Z" fill="black"/>
<path d="M240.418 256.21C240.418 256.21 240.117 256.689 239.756 256.993C239.396 257.296 238.737 257.272 238.737 257.272C238.737 257.272 237.669 257.272 237.168 256.62C236.667 255.968 236.695 255.178 236.695 255.178V252.55H235.85V251.59H237.691V255.178C237.691 255.178 237.733 255.654 237.944 255.988C238.155 256.322 238.737 256.391 238.737 256.391C238.737 256.391 239.328 256.424 239.69 256.074C240.052 255.724 240.181 255.511 240.25 255.178C240.318 254.845 240.25 252.55 240.25 252.55H239.327V251.59H241.342V255.178V256.21H242.081V257.113H240.553L240.418 256.21Z" fill="black"/>
<mask id="mask0" mask-type="alpha" maskUnits="userSpaceOnUse" x="122" y="239" width="20" height="20">
<rect x="122" y="239" width="20" height="20" fill="#C4C4C4"/>
</mask>
<g mask="url(#mask0)">
<rect x="135.686" y="241.88" width="19.1688" height="5.78968" rx="2.89884" transform="matrix(-0.464282 0.883817 -0.885688 -0.467833 412.912 235.119)" fill="#FCBC03"/>
<rect x="129.495" y="253.632" width="5.83499" height="5.78968" rx="2.89884" transform="matrix(-0.464282 0.883817 -0.885688 -0.467833 414.256 257.84)" fill="#2DA951"/>
<rect x="133.135" y="238.933" width="19.0958" height="5.81176" rx="2.90588" transform="rotate(60 133.135 238.933)" fill="#4284F4"/>
</g>
<defs>
<linearGradient id="paint0_linear" x1="-6.9929" y1="15.8076" x2="81.672" y2="15.8076" gradientUnits="userSpaceOnUse">
<stop stop-color="#4ECBD1"/>
<stop offset="0.265625" stop-color="#46C7CD"/>
<stop offset="0.53125" stop-color="#2DA6B7"/>
<stop offset="0.760417" stop-color="#1789A3"/>
<stop offset="1" stop-color="#006B8F"/>
</linearGradient>
</defs>
</svg>
